<?xml version="1.0" encoding="utf-8"?>
<!-- Generator: Adobe Illustrator 15.0.0, SVG Export Plug-In . SVG Version: 6.00 Build 0)  -->
<!DOCTYPE svg PUBLIC "-//W3C//DTD SVG 1.1//EN" "http://www.w3.org/Graphics/SVG/1.1/DTD/svg11.dtd">
<svg version="1.1" id="Layer_1" xmlns="http://www.w3.org/2000/svg" xmlns:xlink="http://www.w3.org/1999/xlink" x="0px" y="0px"
	 width="612px" height="792px" viewBox="0 0 612 792" style="enable-background:new 0 0 612 792;" xml:space="preserve">
<style type="text/css">
<![CDATA[
	.st0{fill-rule:evenodd;clip-rule:evenodd;}
]]>
</style>
<g>
	<g>
		<path class="st0" d="M354.8,677.4c-8.1-1.2-10.6-9.7-14-15.4c-17.8-29.5-37.9-60.2-55.3-91.7c-7-12.6-12.6-26.2-19.6-39.2
			c-1.7-3.2-4.6-5.9-6.3-9.1c-5.6-10.3-9.6-23.4-14.7-35.7c-4.9-11.7-11.3-23.6-14.7-35c-2.1-7.1-3.6-13.7-6.3-20.3
			c-2.6-6.4-5.3-12.5-7.7-18.9c-7-18.8-13.1-35.5-21-54.6c-3.5-8.4-4.9-15-7.7-25.2c-1.4-5.3-4.9-8.6-7-14
			c-3.1-7.7-4.7-16.5-7.7-24.5c-5.8-15.5-12.7-30.1-17.5-46.2c-2.2-7.2-6.1-15.7-9.8-21.7c-1.9-3.1-5.4-5.3-7.7-8.4
			c-6.2-8.3-14.2-18.3-13.3-31.5c4-0.2,5.4,2.1,9.1,2.1c-1-7.5,7.8-5.3,6.3-13.3c1.8-0.8,3.4-1.7,6.3-1.4
			c-2.3-9.5,5.2-10.6,2.8-16.8c-2.5-6.4-13.8-3-15.4-12.6c9.7-8.4,10.3,6.2,16.1,7.7c8.1,2.2,13.5-9.3,18.9-14
			c9.9-8.6,29.6-17.1,35,3.5c6.4,2.8,16.5,7.1,19.6-1.4c5.4,0.5,9.3-0.5,12.6-2.1c3.2-1.7-1.1-4,0-4.9c9.9-0.5,17.7,0.9,27.3,0.7
			c-13.3-3.9-31.9-4.2-46.2-5.6c-9.5-0.9-20.5,1.8-26.6-4.2c3.6-10.4,36.3-4.7,49-3.5c12.3,1.2,22.5,0.6,39.9,1.4
			c23.5,1,50.4,6.2,74.2,9.8c8.9,1.4,18.8,3.3,17.5,9.8c-1.7,9-21.8,1.6-27.3,0.7c-11.9-2.1-19.9-2.6-30.8-3.5
			c9.9,6.8,25,5.6,36.4,11.2c3.6,1.8,5.7,6.2,9.1,7.7c8.4,3.7,20.6,5,30.8,8.4c9.9,3.3,19.3,8.9,28,11.2c2.6,0.7,5.8-0.1,8.4,0.7
			c2.6,0.8,5.6,3.4,9.1,4.9c8.7,3.8,12.7,5.4,20.3,11.2c3.7,2.9,8.3,4.8,11.2,7c7.4,5.6,14.6,14.8,21.7,22.4
			c6.9,7.3,13.9,16.2,18.9,24.5c5.2,8.7,11.5,17.5,14.7,28.7c3.1,10.8,8.6,23,9.1,34.3c0.2,5.5-1.7,10.5-1.4,16.1
			c0.4,7.6,3.4,15.2,2.1,23.8c-8.2-5.4-6.7-16.1-9.1-23.8c-4.5-14.6-9.3-29.9-14.7-43.4c-16-40-48.5-68.8-85.4-89.6
			c-5.1-2.9-8.6-7.4-13.3-10.5c-7.2-4.6-18-7.4-27.3-11.9c-8.6-4.2-19.2-10.1-28-11.2c-2.6-0.3-5.7,0.9-8.4,0.7
			c-8.2-0.7-19.4-5.2-29.4-7.7c-10.4-2.6-21.7-3.4-30.1-6.3c-6.4-2.2-11.8-7.7-18.9-6.3c2.3,3.3,6.8,6.7,10.5,8.4
			c8.1,3.7,20.1,7.1,28.7,8.4c5.7,0.9,11.5,0,16.8,2.1c6.5,2.6,10.6,7.3,16.8,9.1c12.1,3.6,26.3,7,37.8,12.6c4.7,2.3,8.9,6.4,14,9.1
			c10.2,5.5,19.7,10.2,29.4,16.8c4.9,3.3,10.5,6.3,13.3,9.1c6.5,6.3,7.9,13.2,15.4,17.5c2.2,1.2,4.6,1.4,7,2.8
			c16.1,9.6,28.3,32.5,39.2,49.7c6.3,10,8.6,14.3,11.2,28c4,21,15.7,41.2,16.1,65.1c-18.9-43.5-39.3-89.9-70-123.2
			c-3.6-3.9-7.7-7.1-11.2-11.2c-3.6-4.2-6.4-9.7-9.8-12.6c-6.6-5.6-16.3-10.6-24.5-16.1c-20.3-13.6-42.3-23.4-65.1-35.7
			c-4.6-2.5-9.8-6.5-14.7-7.7c-5.7-1.4-10-1.5-14.7-3.5c-11.3-4.9-28.8-14.6-45.5-13.3c4.9,5.8,20.1,5.1,18.9,14.7
			c-6.9,5.4-15.2-0.5-21.7-2.8c-7.4-2.6-15.1-4.1-22.4-6.3c0.5,3.7,5.1,4.2,7.7,5.6c12.1,6.6,28.1,12.1,42.7,18.2
			c14.3,6,28.7,17.2,43.4,26.6c6.8,4.3,14.2,9.1,21,14c7.1,5.1,16,10,20.3,14.7c1.8,2,2.3,5.5,4.2,7.7c4.3,4.8,10.9,6.7,16.1,10.5
			c19.4,14.1,37.6,40.2,53.2,60.2c5.4,6.9,12.6,14.4,16.1,21.7c1.3,2.7,1,6.1,2.1,9.1c2.6,6.9,6.5,14,9.8,21
			c9.3,19.6,22.5,38.8,26.6,62.3c-5.9-3.6-8.2-11.1-11.2-16.8c-9.8-18.4-19-38.5-30.8-56c-2.8-4.2-6.7-7.9-9.8-12.6
			c-20-30.1-46.9-59.4-71.4-85.4c-4.8-5-9.9-6.8-16.1-11.2c-9.7-6.8-18.7-15.3-29.4-22.4c-20.2-13.4-40.7-27.9-62.3-41.3
			c-10.9-6.8-23.1-14.4-34.3-17.5c-2.3-0.6-4.8,0.1-7-0.7c-2.5-0.9-4.5-3.2-7-4.2c-8.8-3.4-18.9-5.1-26.6-11.2
			c-1.9-3.3,0.4-5.3,1.4-7.7c-7.7,3.9-18.8-1.2-28,0.7c4,11.4,17.4,9.6,25.2,15.4c3.8,2.8,5.9,7.9,9.8,10.5c5.2,3.5,12,5.7,17.5,9.1
			c5.5,3.3,10.2,7.9,15.4,10.5c7.4,3.6,14.2,5.6,20.3,10.5c10.8,8.7,22.5,18.4,33.6,28c5.6,4.8,12.2,8.6,17.5,13.3
			c4.7,4.2,8.1,9.6,12.6,14c4.5,4.4,9.9,7.6,14.7,11.9c11.2,10,20.5,23,31.5,34.3c14.6,14.9,25.5,31.7,39.2,46.9
			c0.6,14.6,11.3,24.3,18.9,35.7c6.4,9.7,12.6,19.7,17.5,28c11.8,20.1,23.7,38.2,31.5,59.5c-9.9-4.3-12.8-15.6-17.5-23.8
			c-14.4-25-32.3-49.4-48.3-74.2c-5.3-8.3-15.2-15.6-21.7-24.5c-34.3-47.3-78.3-91.9-123.2-129.5c-16.2-13.5-34-26.3-51.8-38.5
			c-1.5,3.4-2.7,7.1-5.6,9.1c28.2,25.8,57.5,53.7,81.9,85.4c8.7,11.2,17.9,23.4,27.3,35c9.3,11.5,21.4,23.8,26.6,35
			c1.1,2.5,0.8,6,2.1,8.4c2.9,5.2,10.2,9.3,13.3,15.4c2.7,5.3,4.3,10.1,7.7,15.4c8.1,12.4,17.6,30.1,27.3,41.3
			c10.1,11.6,17.4,20.3,23.1,33.6c1,2.3,1,5.2,2.1,7.7c3,7,9.2,15.1,14,23.1c4.8,8.1,8.8,17.6,13.3,23.1c4.4,5.4,12.5,8.9,11.9,19.6
			c-3.4,0.4-4.8-4.1-6.3-6.3c-5.8-8.8-11.2-19.1-17.5-28c-2.9-4.1-7.4-7.1-9.8-11.2c-2.3-3.9-2.8-8.6-4.9-12.6
			c-5.2-9.8-14-20.3-21-29.4c-16.4-28.6-35.5-55.6-55.3-81.9c-2.6-3.5-6.6-5.6-9.8-9.1c-8.1-8.8-14.9-20.8-22.4-30.8
			c-22.6-30.1-46.1-60.2-72.1-87.5c-1.9,1.2,0.4,6.5-1.4,7.7c-1.8,1.6-4.8,0.1-7,0c1.6,10,12.2,15.1,16.8,25.2
			c3.2,7.1,3.7,15.3,8.4,21c2.7,3.2,7.3,4.6,10.5,7c2.7,7.6,9.7,13.3,12.6,20.3c2.9,7.1,4.2,14.3,8.4,21
			c4.7,7.6,11.6,14.2,16.8,22.4c10.1,15.9,19.3,31.6,29.4,49c4.9,8.4,12.7,16.2,15.4,23.8c1,2.8,0.5,6.3,1.4,9.1
			c3.8,11.9,15.8,26.5,23.8,39.9c8.3,13.9,14.2,29.8,21.7,41.3c2.3,3.5,5.8,6.2,7.7,9.8c2.1,4,2.3,8.2,4.2,11.9
			c3.2,6.4,9.3,11.7,13.3,18.2c7.9,12.8,16,25.8,23.1,39.2c3.5,6.5,7.8,13.5,8.4,21c-7.1-3-10.3-11.1-14-16.8
			c-4-6.2-7.5-12.8-11.2-18.9c-7.5-12.5-13.3-26.4-21-39.2c-2.8-4.7-8.1-8.3-10.5-13.3c-3.8-7.9-7-15.4-11.9-23.1
			c-4.4-7-9.3-13.6-14-21c-9.1-14.5-16.4-31-25.9-43.4c-9.7-12.6-18.3-28-27.3-43.4c-6.5-11.2-14.4-21.6-21-32.9
			c-6.2-10.5-10.6-24.6-18.2-36.4c-7-11-18.4-21.3-22.4-31.5c-4.1-10.3-5.2-20.3-16.1-25.2c1.3,5.9,6,10.7,3.5,18.2
			c0.5,9,13.4,11.2,16.1,18.2c1.3,3.5-0.1,7.2,0.7,11.2c2.2,11.1,16.7,18,20.3,30.8c0.8,3,0,6.2,0.7,9.1c1.3,5.4,8.8,19,12.6,23.8
			c2.5,3.2,6.6,4.8,9.1,7.7c3.5,4.2,11.2,18.2,12.6,23.8c0.8,3,0,6.3,0.7,9.1c2,8.3,10.2,17.3,15.4,26.6c7.3,13.2,11.6,26,23.1,32.2
			c11.1,17.2,19.6,37.9,31.5,56c3.6,5.5,8.5,12.6,10.5,18.2c1.1,3.2,1,7.3,2.1,10.5c2.3,6.8,7.5,13.4,11.2,20.3
			c3.6,6.8,6.9,13.9,10.5,20.3c3.7,6.7,6.6,14.6,10.5,21c3.9,6.4,10.4,12.1,9.1,20.3c-10.8-3.3-10.2-12.4-14-20.3
			c-2.1-4.3-7.1-7-9.8-11.2c-6.2-9.6-11.6-21.3-18.2-32.2c-12.2-20.2-26-39.8-37.8-61.6c-16.5-30.3-30-65.3-48.3-95.2
			c-2.4-3.8-6.2-6-8.4-9.1c-4.3-5.9-9-14.7-11.2-21.7c-1-3-0.5-6.5-1.4-9.8c-1.9-7-7.6-16.8-12.6-23.8c-2.6-3.7-7.2-6.3-9.8-10.5
			c-5.5-9-6.8-21.3-11.2-28.7c-2.6-4.4-7.9-7.4-9.8-11.9c-2.7-6.2-2.4-13.2-6.3-18.9c-4.9-7.2-12.7-11.8-16.1-21.7
			c-0.8-2.3-0.5-5.2-1.4-7.7c-3-8.1-9.8-14.4-12.6-23.1c10.1,7.9,12.9,23,26.6,27.3c-9.9-17.4-20.2-34.4-34.3-47.6
			c-3.3,2.2-5.1,3.1-10.5,2.1c0.2,13.1,9.7,18.6,16.1,27.3c5,6.8,9.9,16.9,14.7,25.9c9.4,17.6,18.2,34.5,27.3,53.9
			c4.4,9.3,11.9,19.2,13.3,27.3c0.4,2.3-0.9,4.6-0.7,7c0.5,6.6,5.9,17.4,9.1,25.2c8.6,20.6,15.7,34.6,25.9,53.9
			c5.4,10.2,10.6,22.7,16.1,29.4c2.1,2.5,5.5,3.3,7.7,5.6c7.3,7.6,8.2,19.1,14,26.6c-1.4,12.2,5.7,21.8,11.9,32.2
			c13.4,22.6,25.6,46.3,35,72.1c-2.4,1.2-3.9-2.3-4.9-3.5c-8.2-9.4-14.2-22.1-21-34.3c-5.2-9.3-10-19.2-14.7-30.8
			c-2.9-7.2-7.4-15.6-11.9-21.7c-2.3-3.2-6.3-5.8-8.4-9.1c-2.1-3.3-3.3-8.5-5.6-12.6c-4.1-7.4-5.4-9.9-8.4-18.9
			c-1.8-5.5-6.4-10.3-9.1-16.1c-6.9-14.7-10.8-32.5-18.2-48.3c-7-15-14.4-30.5-22.4-43.4c-2-3.2-5-5.3-7-8.4
			c-5.7-8.8-10-20.7-14.7-30.8c-9.7-20.9-18.8-40.8-30.1-60.9c-5.7-10.2-9.3-21.6-14.7-30.8c-7-11.9-19-21.2-25.2-33.6
			c-4.1-8.1-3.4-18.7-14-21.7c-0.6,3.6,6.8,10.5,2.1,16.1c-9.3-1-10.5-10.1-16.8-14c1.5,5.5,6.7,10,8.4,15.4c0.8,2.6,0,5.6,0.7,8.4
			c1.1,4.1,5.2,12.6,7.7,17.5c2.8,5.4,6.5,10.5,9.8,15.4c7.8,11.5,9.9,25.1,15.4,35c1.8,3.3,5.2,5.8,7,9.1
			c10.3,18.9,15.8,42.1,25.2,64.4c4.3,10.2,7.7,21.8,11.9,32.9c5.4,14.1,11.1,24.8,12.6,41.3c10.4,15.6,19.4,42,28.7,63
			c2.6,5.8,6.7,12.2,7.7,16.8c0.6,2.8-0.4,6.3,0,9.1c1,7,5.1,16.6,8.4,22.4c2,3.4,5.5,5.7,7.7,9.1c5.2,8,9.3,20.4,13.3,29.4
			c1.2,2.7,4.3,5.3,4.9,7.7c0.7,2.6-0.5,5.4,0,8.4c1.6,9.3,11,20.6,16.1,29.4c5.9,10.3,10.7,22.1,16.8,28
			C347.7,665.2,359.2,665.8,354.8,677.4z M270.9,134.2c-0.2,0.8,12.9,2.8,13.3,0.7C281.4,134.1,271.4,131.7,270.9,134.2z
			 M175.6,181.1c-2.8,0-3,2.6-2.8,5.6c5.9,3.2,8.2,10,16.8,10.5C186.3,190.5,180.7,186.1,175.6,181.1z M172.9,206.3
			c0.7-8.4,5.6-11.4,0-18.2c-4.1-1.5-8.3-2.9-13.3-3.5C157.2,195.8,165.9,202,172.9,206.3z"/>
		<path class="st0" d="M430.5,159.4c-4.5,4.4-14.1-0.3-16.8-4.2C419,151.6,427.7,155.8,430.5,159.4z"/>
		<path class="st0" d="M110.5,165c3.5,0,3.9,3.1,4.2,6.3C112.8,169.8,110.5,168.5,110.5,165z"/>
		<path class="st0" d="M453.5,169.9c12.8,1.7,22.3,6.7,27.3,16.1C468.8,186.4,458.1,179.4,453.5,169.9z"/>
		<path class="st0" d="M288.4,634.7c-11.6-5.4-15-19.6-21-30.1c-12-21.1-25-42.6-35-66.5c-4.9-11.7-10.6-22.8-16.1-34.3
			c-10.1-21.1-16.6-44.6-23.1-67.2c-3.6-12.6-10-24.6-13.3-37.8c-2.5-10.1-3.9-19.9-7.7-29.4c-3.5-8.7-9.1-16.8-11.2-25.9
			c-1-4.1-0.4-8.6-1.4-12.6c-1.1-4.6-4.4-8.1-6.3-12.6c-8.5-20.1-16.2-46-23.8-67.2c-6.3-17.4-12.5-29.8-18.2-48.3
			c-2.9-9.6-8.7-21.7-8.4-28c0-0.7,0-1.4,0-2.1c0.5,0,0.9,0,1.4,0c6.7,4.2,7.8,12.4,11.9,18.9c2.3,3.6,6.3,6.6,8.4,10.5
			c2.6,4.9,3.2,12.6,5.6,18.9c1.4,3.6,4.4,6,6.3,9.8c5.7,11,10.8,26.7,16.1,41.3c5.3,14.7,13.5,29.2,15.4,41.3
			c0.6,3.9-0.6,7.7,0,11.2c0.8,4.7,6,8.2,8.4,13.3c5.8,12.4,4.8,31.8,10.5,44.1c1.9,4,5.9,6.8,7.7,10.5c2.8,5.7,7.1,18.4,8.4,25.2
			c0.6,3.2-0.1,6.9,0.7,10.5c1.3,5.4,5.4,9.1,7.7,14c8.8,18.3,11.8,40.6,21,56.7c-0.9,26.4,19.6,47.4,25.9,69.3
			c1,3.3,0.5,6.8,1.4,9.8c1.5,4.9,5.8,10.5,8.4,16.1c2.7,5.8,4.9,12.5,7.7,16.8C280.6,618.4,292.1,623.7,288.4,634.7z"/>
		<path class="st0" d="M312.2,182.5c10.8-1.3,16.2,5,23.1,9.1c13.3,7.8,27.7,15.1,42,21c14.1,5.8,24.2,14.8,37.1,25.2
			c16,12.8,32.7,29.4,46.9,47.6c4.5,5.7,11,13,12.6,18.2c1,3.3,0.3,7.2,1.4,10.5c1.5,4.6,6.1,7.3,8.4,11.9c1.1,2.1,1,5.2,2.1,7.7
			c3,7,7.1,13.5,8.4,23.8C483,346.3,478.7,330,469,318.3c-2.6-3.2-7.1-4.8-9.8-7.7c-4.4-4.8-7.8-11.1-11.9-16.1
			c-11.7-14.2-25-30.3-39.2-42.7c-6.5-5.7-14.2-10-21-15.4c-14.8-11.7-28-24.3-45.5-35C331.7,195.4,319.6,190.2,312.2,182.5z"/>
		<path class="st0" d="M93.8,192.3c0.7,0,1.4,0,2.1,0c1.2,1.8,0.1,6,1.4,7.7c8.1,8.3,17.9,27.4,9.1,39.9c2,4.4,5.6,10.6,3.5,16.8
			c-6.6-2.3-3.7-9.4-5.6-14.7c-1.3-3.4-4.9-5.1-6.3-7.7c-3.1-5.7-5.4-15.4-4.9-23.8C93.4,205.1,96.4,199.6,93.8,192.3z"/>
		<path class="st0" d="M493.5,195.8c7.2,0.7,10.1,5.8,12.6,11.2c13.1,10,21.4,24.8,23.8,45.5c-8.1-14.3-18.6-26.2-23.8-43.4
			C500.1,206.4,493.4,204.5,493.5,195.8z"/>
		<path class="st0" d="M83.3,218.2c3.2,8,4.4,26.4-6.3,25.2C66.4,242.2,68.5,208.1,83.3,218.2z"/>
		<path class="st0" d="M317,232.2c8.2,5.2,20.7,12.6,29.4,18.9c4.4,3.2,7.4,8.6,11.9,11.2c2.5,1.4,5.9,1.3,8.4,2.8
			c5.2,3.1,11.2,10.9,16.8,16.8c28.1,29.6,50.9,58.7,74.2,93.1c4.3,6.3,7.5,14.3,11.9,21.7c4.3,7.2,9.9,14.6,11.9,21
			c1.2,3.8,1,8.3,2.1,11.9c6,19.6,21.6,35.3,23.8,57.4c-9.3-5.3-11.1-16.6-15.4-25.2c-4.4-8.8-9-18.5-14-26.6
			c-2.1-3.4-5.5-5.7-7.7-9.1c-5.9-9.1-10-19-15.4-28c-29.4-48.4-66.2-91-105-131.6c-3.4-3.6-7.4-6.8-10.5-10.5
			C332.2,247.5,323.5,240.8,317,232.2z"/>
		<path class="st0" d="M184.8,261.6c8,4.9,12.8,19,18.9,30.1c2.6,4.7,7.3,9.8,9.1,14c1.7,4,1.8,8.1,3.5,11.9
			c2.4,5.3,7.5,8.8,10.5,14c2.6,4.6,7,14.3,8.4,20.3c1.6,7,0.9,11.6,3.5,16.8c1.8,3.6,5.7,6.4,8.4,11.2
			c6.6,11.8,12.2,28.8,18.2,44.1c6.7,17.3,14.8,36.3,23.8,53.2c9.2,17.3,20,34.9,25.9,50.4c2.9,7.6,3.3,14.1,5.6,23.1
			c1.6,6.3,6.4,13,9.8,19.6c9.7,18.8,19,39.3,27.3,58.8c-19.5-11.9-27.2-35.2-36.4-56c-5.4-12.2-16.3-21.8-22.4-33.6
			c-6-11.6-11.7-25.2-16.8-38.5c-9.9-25.7-21.1-51.5-32.2-77.7c-7-16.7-12.6-30.3-18.2-48.3c-4.2-13.5-13-24.8-18.2-37.8
			c-2.2-5.6-2.8-11.9-4.9-17.5c-7.1-19.2-18.5-36.4-23.8-56C184.8,263,184.8,262.3,184.8,261.6z"/>
		<path class="st0" d="M203.6,550c-7.9-7.6-13-17.3-18.2-28.7c-5.6-12.2-9.9-24.9-15.4-40.6c-3.4-9.7-7.9-18.7-9.8-28
			c-1.5-7.6-2.4-14.9-4.9-22.4c-6.3-18.8-10.1-43.4-17.5-62.3c-1.6-4-4.8-7.3-6.3-11.2c-3.7-9.7-4.2-19.6-5.6-30.8
			c-2.5-20.3-13.9-37.3-14-58.1c0.6-0.4,1.3-0.8,1.4,0c6.1,5.7,8.4,18.1,11.2,27.3c2.9,9.3,4.5,20.4,8.4,28c2.1,4.1,6.7,5.6,8.4,8.4
			c3.1,5.1,6,14.2,6.3,21.7c0.1,3.3-1.5,6.3-1.4,10.5c0.2,11.6,7.2,24.5,11.2,37.1c3.8,12.1,6.2,25.9,11.2,36.4
			c1.7,3.5,5.6,5.9,7.7,9.8c3.9,7.3,6.3,18.7,9.8,28.7c3.5,9.8,9.2,20.5,9.8,28c0.2,2.7-1.6,5.8-1.4,8.4
			C195.3,524.9,205.2,535.8,203.6,550z"/>
		<path class="st0" d="M271.5,290.3c15.6,11.8,21,30.3,34.3,44.1c2.4,2.5,6.5,3.7,9.1,6.3c4.2,4.2,6.9,11.4,11.2,17.5
			c4.2,5.9,9.7,11.4,11.9,16.8c3.3,8.1,3.7,13.7,8.4,18.9c2.3,2.5,6.2,3.2,9.1,6.3c5.1,5.5,8.9,15.3,14,23.1
			c9.5,14.4,19.6,28.8,28.7,44.1c6.4,10.6,11.2,18.2,16.1,30.1c2.8,6.8,8.2,12.3,11.2,18.9c1.5,3.3,2,7.2,3.5,10.5
			c7.4,16.7,19.2,30.8,25.2,47.6c-3.7,0.7-8.5-9.7-11.9-14.7c-3.7-5.5-8.4-10.9-11.9-16.8c-7.2-11.8-14-24.9-21.7-35.7
			c-2.7-3.8-7.2-6.1-9.8-9.8c-5.3-7.4-8.8-16.9-14-25.2c-9.8-15.7-20.2-31.1-30.1-46.9c-5.1-8.1-8.8-16.8-13.3-25.2
			c-3.6-6.7-9.3-10.9-14-16.8c-3.8-4.7-7.7-11.7-11.2-17.5c-5.5-9-9.3-15.6-14-25.2C293.4,322.3,278.2,308.9,271.5,290.3z"/>
		<path class="st0" d="M85.4,309.2c2.7,4.6,8.2,12.9,5.6,18.2C85,328.6,84.8,314.5,85.4,309.2z"/>
		<path class="st0" d="M93.8,338.6c3.7,0.1,4.6,7,2.1,9.1C91.5,348.5,89.7,339.7,93.8,338.6z"/>
		<path class="st0" d="M100.8,368c3.2,0.7,5.3,7.1,2.8,9.1C99.5,377.4,99.4,370.8,100.8,368z"/>
		<path class="st0" d="M112,396c4.7-0.3,8.1,0.8,10.5,2.8c1.3,6.9-4.5,11.6-7,16.8c-10.4-1.2-11.9-20.5-9.1-28
			C110.6,388.1,109.9,393.4,112,396z"/>
		<path class="st0" d="M140,489.8c-19.1,0.5-10.7-33.2,3.5-19.6C149.4,475.8,144.1,485,140,489.8z"/>
		<path class="st0" d="M475.3,517.1c-7.2,0.3-10.3-7-14-13.3c-3.4-5.8-9-13.1-9.8-17.5c-1.3-7.3,2-11.6,8.4-9.1
			c4.6,1.8,16.7,23.7,17.5,30.1C477.9,511.3,477.1,515,475.3,517.1z"/>
		<path class="st0" d="M142,498.9c7.4,9.1,11,22.1,14.7,35c8.9,1.3,11.8,4.9,15.4,13.3c1.5,3.6,3.6,7.2,3.5,9.8
			c-0.1,3.9-4.6,6.9-4.9,10.5c-0.5,6.7,8.7,17,12.6,25.2c0.9,1.9,1.2,5.4,2.1,7c4.5,7.7,12.1,13,16.1,20.3
			c11.2,0.3,15.5,8.2,22.4,16.1c5.8,6.7,16.4,11,8.4,20.3c-12.8-0.8-19.7-8.7-26.6-17.5c-4.9-6.2-8.7-10.7-13.3-18.2
			c-3.5-5.7-4.3-9.9-7.7-16.1c-1.8-3.3-5.4-5.1-7.7-8.4c-3.2-4.7-5.6-12.1-9.1-18.2c-3.4-5.9-8.4-11.6-10.5-16.8
			c-2.6-6.4-3.9-14.8-6.3-22.4c-2.4-7.9-8.3-14.7-9.1-21.7C141.3,510.1,144.3,504.8,142,498.9z"/>
		<path class="st0" d="M462.7,540.9c6,0.3,9.4,6.1,7,12.6C464.3,552.3,463.1,547,462.7,540.9z"/>
		<path class="st0" d="M234.5,592c4.2,8.4,10.1,15.1,11.9,25.9c4.4,3.8,8.4,8,11.2,13.3c-0.9,18.2,14.2,20.4,18.9,32.9
			c-7.8,2.6-9-3.1-14-7.7c-2.6-2.4-5.7-2.8-7-4.2c-1.9-2.1-2.1-6.4-4.2-9.1c-2.1-2.7-6.5-3.6-9.1-6.3c-2.4-2.4-4-7.2-6.3-11.2
			c-8.2-14.3-20-22.1-14-37.1C226.6,589.2,230.5,590.6,234.5,592z"/>
		<path class="st0" d="M393.3,636.8c6.7,6.1,11.8,13.9,14.7,23.8C398.3,657.5,396.4,646.6,393.3,636.8z"/>
		<path class="st0" d="M460.5,639.6c4.2-0.5,6.6,3.8,4.9,7C462.3,645.8,460.8,643.3,460.5,639.6z"/>
		<path class="st0" d="M291.9,641c3.7,0.7,6.3,2.5,5.6,7.7C293.6,648.1,291.7,645.6,291.9,641z"/>
		<path class="st0" d="M253.4,655.7c1.8,5.8-9.1,5.5-9.1,1.4C243.3,652.5,252.7,652.5,253.4,655.7z"/>
		<path class="st0" d="M302.4,656.4c4.5-1,6.9,3,4.9,6.3C304.2,662,302.6,659.9,302.4,656.4z"/>
		<path class="st0" d="M163,221c4.1,8.2,12.7,12,13.3,23.8C170.4,238.4,167,229.5,163,221z"/>
		<path class="st0" d="M264.5,235c7.2,5.2,14.9,10,22.4,16.1c3.2,2.7,5,7.3,8.4,9.8c2.6,1.9,6.5,1.6,9.1,3.5
			c4,2.9,8.3,9.7,12.6,14.7c4,4.7,9.9,10.3,11.9,14.7c2.9,6.2,3.2,12.9,9.1,16.8c15.7,0.4,10.8,21.4,21.7,26.6
			c3.6,0,7.5-0.2,9.8,2.1c3.4,3.4,0.5,7.4,1.4,12.6c1.3,7.5,10.2,13.2,9.8,18.9c-6.9-1.5-9.7-7.1-11.2-14c-2-3.9-8.2-3.4-11.2-6.3
			c-4.3-4.1-6.2-13.1-11.2-18.2c-3-3-7.1-4.4-9.1-7c-2.2-2.8-2.9-6.9-4.9-9.8c-7.1-10.3-18.9-17.8-27.3-28.7
			c-4-5.3-8-10.8-11.9-16.1C284.9,258.4,275.4,246.5,264.5,235z"/>
		<path class="st0" d="M79.8,282.6c3.7,2.4,2.1,10,3.5,14.7C82,295.2,79.1,288.8,79.8,282.6z"/>
	</g>
</g>
</svg>
