<?xml version="1.0" encoding="utf-8"?>
<!-- Generator: Adobe Illustrator 15.0.0, SVG Export Plug-In . SVG Version: 6.00 Build 0)  -->
<!DOCTYPE svg PUBLIC "-//W3C//DTD SVG 1.1//EN" "http://www.w3.org/Graphics/SVG/1.1/DTD/svg11.dtd">
<svg version="1.1" id="Layer_1" xmlns="http://www.w3.org/2000/svg" xmlns:xlink="http://www.w3.org/1999/xlink" x="0px" y="0px"
	 width="756.1px" height="752px" viewBox="0 0 756.1 752" style="enable-background:new 0 0 756.1 752;" xml:space="preserve">
<style type="text/css">
<![CDATA[
	.st0{fill-rule:evenodd;clip-rule:evenodd;}
]]>
</style>
<g>
	<g>
		<path class="st0" d="M404,197c0.4,3.4-3,3-4,5C397.6,200.5,401.6,197,404,197z"/>
		<path class="st0" d="M440,230c-0.2,1.8-1.7,2.3-4,2C436.7,230.7,438.1,230.1,440,230z"/>
		<path class="st0" d="M431,250c-0.2,1.1-2,0.7-2,2c-1,0-0.8-1.2-1-2C429.3,248.8,429.6,249.6,431,250z"/>
		<path class="st0" d="M529,298c3.3-0.6,0,7.4-3,7C525.4,301.1,527.5,299.8,529,298z"/>
		<path class="st0" d="M614,341c2.8,5,10.4,10.1,8,17C617,354.6,615.1,348.2,614,341z"/>
		<path class="st0" d="M614,371c-0.4-1.9,4.6-1.5,3,1c-0.7,0-1.3,0-2,0C615.2,371.1,614.6,371.1,614,371z"/>
		<path class="st0" d="M621,376c1.2,0.8,2.7,1.3,5,1c-1.7,3-6.2,7.3-10,5C616.7,379,619.7,378.3,621,376z"/>
		<path class="st0" d="M488,697c-1.7,2.8-2.6,0.9-6,1C482.8,694.4,484.5,697.9,488,697z"/>
		<path class="st0" d="M538,653c0.6-5.4,6-6,10-8c1.9-1.6-1.4-3.9,1-6c8.7-2.7,10.5-12.2,18-16c-18.8-2.4-52.4,0.5-65,1
			c0.9,5.9,7.1,1.8,11,2c13.4,0.6,32.6,1.2,44,1c-8.6,12.4-41.4-0.2-55,7c9.4,6.2,29.7,0.9,44,3c-3,8.2-11.8,4.4-22,5
			c1.3,6,7.8,3.9,12,5c-0.3,5.7-7.3,4.7-10,8c0.4,1.9,3.9,0.8,3,4c1.9,1.2,5-5,11-3c-0.2,5.8-5,7-11,7c7.6,12.6,16.8-7.5,26-9
			c1,8.6-10.8,10.4-12,18c-4.7,0.4-5.3,2.8-10,1c-3.7,2.1,3,4.2,0,6c-8.2,7.8-19.8,19.9-38,13c-2.4-0.4,0.6,4.6-3,3
			c-1.9-3.8-7.7,1.7-12,1c-15.8-5.9-19.8-18.1-28-34c-3.1-6.1-6.9-8.8-8-18c-1.3-11.1,0.3-23.6,1-35c3-47.6-11.7-85.5-34-112
			c-15.8-4.9-18.7-22.7-36-26c0.2-2.5-1.6-3.1-2-5c-18.6-10.8-34-31.8-56-42c-11.5-5.3-22.7-8.6-33-16c-9.6-6.9-19.1-14.4-30-18
			c-13.6-4.5-28.8-4.7-39-16c-26.1,3.1-43.6,24.9-74,17c-14.9,5.2-28.2,10-45,9c-20.1-1.2-39.4-20.9-41-36c-2.1-19.8,12-40.3,17-55
			c2.2-6.4,3.8-13.7,7-20c9-17.7,25.4-31.5,35-45c5.9-8.2,6.4-16.5,17-19c20.5-29.8,53.7-47,77-74c31.7-16.9,59.5-40.7,90-56
			c22.7-11.4,61.5-20.8,87-8c11.7,5.9,29,16,39,26c12.6,12.6,16.8,32.1,26,48c9.4,16.2,21.6,25.7,35,38c4.2-0.5,5.6,1.7,9,2
			c30,31,62.6,59.4,112,71c46.1,0.1,65,35.5,83,67c1.9,18.7,1.3,40.5-3,56c-1.8-2.5-2.5-3.6-5-1c-1.1,3.7,3.4,2,4,4
			c-0.2,3.1-1.9,4.8-5,5c3.6,6.7-0.7,14.6-2,22c-2.3,2.7-2.7-2.7-5,0c-1,3,2.2,1.8,4,2c-11.9,21.5-15.3,52.2-29,78
			c-9.9,43.8-37,79.8-56,114c-2.4,1.9-4.8,3.8-8,5c-1.1,1.9-1.3,4.7-2,7c-3.1,0.3-4.5,2.2-7,3c-1.4,1.3-0.6,4.7-2,6
			c-8.7,1.1-7.9,16.6-19,12c4.6-10.1,16.1-13.3,19-25c2.3-0.7,5.1-0.9,7-2c2.6-2.6-1.6-0.8-1-4c9-2.9,5.6-12.2,14-15
			c-2.7-6.5-8.2-0.1-8,5c-12.9,5.3-13.8,18.7-26,23c-0.6,3.2,1.9,3.1,0,5c-8.2,3.4-10.9,12.4-19,16C537.2,655,542.4,652.3,538,653z
			 M520,686c2.7,0.9,6.1-2.4,4-3C523.7,685.1,520.3,683.9,520,686z M399,133c3,2.3,6.3-1.9,7-5C402.8,128.8,400.9,130.9,399,133z
			 M404,138c0.4,2.9,2.1,4.6,5,5c0.6-2.4,3.9-2.1,3-6C408.8,136.8,407.8,138.8,404,138z M441,242c-5.1-1.4-2.7,4.6-7,4
			c-0.9-2.1-1.6-4.4-3-6c2.3-2.7,4.8-5.2,9-6c0.1,1.9,3.3,0.7,3,3c-0.3,2-2.7,2-3,4c4.6,0.3,6.6-2.1,8-5c-4.6,0.9-4-3.3-5-6
			c4-0.3,2.8-5.9,5-8c-10.3-4.3-16.5,11.1-24,6c-1.9,1.8-6.6,6.1-10,3c4-8.4-5.1-14.7-9-23c3.8-5.6,6.4-11.9,5-16
			c-0.6,2.4-4.7,0.2-5-1c0.5-3.4,4.5-8.6,7-4c2.4-5.2-4.5-4.6,0-9c4.6-1,6,1.3,9,2c-0.3-2.3,0.2-3.8,1-5c-7.6-1.8-1.5-17.2-12-16
			c0.2,11.5-2.1,34-15,42c-4.5,2.8-9.5,0.8-13,6c4.6,2.2,9.1-3.3,15-3c-1.9,4.5,3.6,1.7,4,4c-1.9,5.1,1,8,0,11c2.6-0.5,3.5-1.3,5,1
			c-1.4,2.3-9.5,3.1-12,1c0.6-1.4,3.8-0.2,4-2c-2.5,0.1-4.2-0.5-5-2c3.4,1,1.6-3.1,2-5c-1.9-1.4-7.1,0.3-7,4c2,1.3,2.4,4.3,4,6
			c-2.6-0.6-3.6,0.4-3,3c4,4.9,10.8,0,15-1c-1.6,4.6,4.2,1.8,4,5c-0.7,3-3.8,3.5-3,8c6.6-3.6,5.3,6.7,8,10c1.7,0,3.3,0,5,0
			c3-3.5-1.1-8.3,5-9c0.2,1.4,1.6,1.7,2,3c-3.4,0-2.7,4-4,6c2.2,0.8,5.4,0.6,6,3c-1.9,1.1-2.1,3.9-4,5c0.3-2.6,0.3-5-3-4
			c-2.1,2.6,2.5,4.9,4,7c1.6-2.1,1.1-6.2,6-5c0.2,4.5-0.8,7.9-3,10c0.2,13.4,1.7-5.6,5-7c1.9,0.8,4,1.3,5,3c-0.4-3.4,5-6.2,2-9
			c-1.1,0.9-0.3,3.7-3,3c0-1.3-1.8-0.9-2-2c1.4-0.6,0.2-3.8,2-4c4.4,0.8,12.6-2.5,12-6C446.9,243,437.5,247.3,441,242z M379,206
			c12.4-6.3,30.3-17.6,25-35C402.8,189.8,387.7,194.7,379,206z M416,186c1.7,0,3.3,0,5,0c0-1.3,0-2.7,0-4
			C418.6,182.6,416.3,183.3,416,186z M423,184C421.5,191.5,423.7,180.4,423,184L423,184z M422,197c4.2,0.5,2.6-3.5,1-5
			C423.8,194.8,421.6,194.6,422,197z M417,193c-0.9-0.8-2.9,0.6-3,1C412.6,197.8,419,194.7,417,193z M421,207c2.3,0,4.7,0,7,0
			c-1-3.3-2.8-5.9-7-6C421,203,421,205,421,207z M413,208c3.2-0.1,4.4-2.3,4-6c-1,0-2,0-3,0C412.8,203.2,412.9,205.5,413,208z
			 M457,228c-1.2-4.2,0.1-4.9,1-9c-4.9-3.1-7.3-8.7-14-10c-1.9,1.9-0.1,5.2,2,6c0.2-1.2,1.6-1.1,3-1c0.4,1.9,2.2,2.5,2,5
			c-4.5,1.2,0.4,5.7-2,9c1.9-0.2,2.2,1.1,4,1C451.2,223.8,453.6,228,457,228z M424,219c-0.8-2.4-0.6-2.6-1-7c-9.9,5.7,5.1,12.6,10,5
			c-1-2.7-0.4-6.9-5-6c-0.4,3.4,0.4,5.6,1,8C427.3,219,425.7,219,424,219z M441,218c1.3-1.2,0.8-4.2-2-4
			C438.7,216.3,439.2,217.8,441,218z M418,227c3.5,0.5,5.2-0.8,6-3c-2,0.3-2-1.4-3-2C420.7,224.4,417.5,223.9,418,227z M402,239
			c-2,0.2-4.3-4.2-5-2C398.8,236.9,400.4,242.1,402,239z M327,261c5.7-0.3,5.7-6.3,11-7C333.9,252.3,329.9,258.3,327,261z M396,276
			c1.1-1.9,1.2-4.8,5-4c-1.8-3.5,0.1-10.7-3-13C399.3,266,394.5,272.1,396,276z M474,267c3.7,0.4,5.9-0.8,6-4
			C476.3,262.6,474.1,263.8,474,267z M404,272c1.8-2.1-0.3-6.4-2-8C403.5,265.9,402,270.6,404,272z M337,285
			c7.5-4.5,13.5-10.5,16-20C345.8,269.8,343.8,279.8,337,285z M484,272c0.3,1.8-4.7,3.1-2,4C482.3,274.8,487.3,273.5,484,272z
			 M484,277c3.3,0,7.9-4.9,4-6C487.4,273.7,483.8,273.5,484,277z M346,284c3.8-2.9,7.1-6.3,8-12C350.6,275.2,348.7,280,346,284z
			 M532,285c1.2,1.2,3.5,1.1,6,1c1.1-2.7,0.6-4.7-2-6C536.8,283.8,530.7,280.7,532,285z M316,283c1,0,2,0,3,0c0-0.7,0-1.3,0-2
			c-1,0-2,0-3,0C316,281.7,316,282.3,316,283z M588,301c-3.8-0.8-3.4,2.6-5,4c5.1,0.7,10.7,3.3,14,4c-3.5-2.5-7.5-5.1-5-11
			c-8.6-1-6.7-8.2-11-12C578.8,295.5,587.9,293.8,588,301z M609,288c-2.4,0.4-2.2-1.8-5-1C602.5,290,609.2,289.6,609,288z M499,322
			c3.4-1.6,5.2-4.8,9-6c3.3,2.7,7.3,4.7,10,8c0.3,2.3-2.9,1.1-3,3c4.1,2.3,10.5,3,11-3c-1.5-3.6-6.5,1.4-8-3c6.2,0.3,12.2-4,20-5
			c1,3-0.1,8.1,4,8c2.6-4.1-3.3-7-3-12c-3.1-0.5-3.9,2.2-6,0c1.6-2.4,2.1-5.9,4-8c-3.6,0.9-1.4-3.9-2-6c2.5-1.8,8-0.7,9-4
			c-6.1,1.7-8.4-4.3-12-2c-6.5,6.1-11,23.9-21,20c2.9-5.8,13.9-13,7-22C518.1,306.4,504.6,314.6,499,322z M612,296
			c2.5,0.5,3.6,2.4,5,4c2-1.9,2.3-4,1-7C614.5,292.5,612.8,293.8,612,296z M625,302c3-0.3,1.9-4.8,7-3c-0.8-2.8,1.4-2.6,1-5
			c-1.4,0-2.2-0.5-3-1C628.9,296.6,625.7,298.1,625,302z M633,308c3.1-0.7,2.9,1.7,6,1c0-6.2,2.6-16.4,8-11
			C640.5,286.6,638.4,305.9,633,308z M570,305c3,2.5,4.7-2.7,10-1c-1.4-2.3,2.6-3.8,0-4C577.9,304.5,572.8,300.6,570,305z M660,308
			c-1.7-1-3.7-6.9-6-4C656.4,304.3,658.4,310.2,660,308z M544,305c2.7,4.3,9,3.3,13,1C553.8,304.7,547.8,302.5,544,305z M620,310
			c-6.2,3.4-4.4,13.5-2,18c-0.5-8.2,3.7-11.6,7-16c1.8-0.3,5,2.8,6,0c-1.6-0.3-0.7-2.2,0-3c-5.4-3.2-8.3-4.6-15-5
			C615.2,308.1,618.1,308.5,620,310z M545,311c-0.6,6.2,8,0.6,5-1C550.2,312.2,546.5,310.5,545,311z M669,321c-1.3-5-4.3-8.4-8-11
			C661.8,315.5,666.9,316.8,669,321z M565,315c9.4,3,17.4,1.2,28,3C588.1,307.8,572.7,312.7,565,315z M599,322c0.7,0,1.3,0,2,0
			c0.1-0.6,0.1-1.2,1-1c0-0.7,0-1.3,0-2c-1.4,0-2.2-0.5-3-1C597.3,320,599.1,319.3,599,322z M508,322c-0.8-0.8-2.9,0.7-3,1
			C504.1,324.8,508.7,322.7,508,322z M542,327c2.6,0.3,4.3-0.4,4-3C544.3,322.2,542.1,324.3,542,327z M556,327c-1.1-1.9-1.2-4.8-5-4
			c-0.3,3.9,3.6,3.7,3,8c-2.7,2.1-5.3,2.1-8,0c0,3.7,4.7,2.7,3,8c-1.9-0.2-2.2,1.1-4,1c-2.1-2,0.3-4,1-6c-3.7-4.9-8.7,0.7-13-4
			c-1.3,2.7-5,3-5,7c3,1,7.3,0.7,8,4c-7.1,12.3,11,24.2,21,15c-0.5-6.9-3.9-10.7-5-17c1-1.7,2.8-2.6,6-2c-3.6-6.1,0.1-10.3,4-14
			C557.4,321.8,558.8,326.5,556,327z M637,396c3.3-12.1,11-19.7,24-22c-6.8-4.2-15.6-3.1-25-2c-1.4-0.6-0.2-3.8-2-4
			c-1.9,5.1-7.6,6.4-14,7c-0.2-1.4-1.6-1.7-2-3c4.3,0.7,3-7.5,8-3c-2.6-7,1.4-8.8,3-14c-5.2-5.2-8-12.7-10-21c-2-0.3-2,1.4-3,2
			c-2-2.3-4.5-4.2-5-8c-1.9-0.2-2.2,1.1-4,1c-0.4-2.4,1.8-2.2,1-5c-3-0.4-2.1,3.3-3,5c9.1,6.7,8.3,26.8,12,31c-2.1,3-10.2,0.5-13,6
			c0.6,1.7,4.7-0.1,5,2c-1.7,8.9-16.9,2.7-21,11c2.7,0,5.3,0,8,0c0.2-1.2-0.2-2.8,1-3c7.2,2.4,14.6,0.3,17,6c-4.4,0.6-7,0-9,1
			c3.2,1.1,7.2,1.4,9,4c-0.1-4.3,5.8-0.7,6,1c-3.4,1.7,2.2,6.8,0,4c0.3-2.3,1-4.3,3-5c3.5,1,10.8,0.3,12-4c-3-2.2-7.6-0.4-9-2
			c1.7-5.5,13.5-1.9,17-8c0.9,2.1,5.2,0.8,5,4c-5.6-1.2-7.1,5.7-11,3c1.8,4.5-4,7.3-4,13C636.2,392.1,634.4,396.3,637,396z M623,392
			c0.4,3.4,2.7,1.3,1,5c4.9-1.6,11.2,3.4,11-2C631.7,393.3,628.2,391.8,623,392z M489,332C496.5,335.3,493.9,329.3,489,332L489,332z
			 M682,347c1.1-5.7-3.2-13.9-10-15C677,337.2,679.1,341.6,682,347z M644,334c0,4,2.5,5.5,6,6c-0.6-3.1-0.3-7.1-4-7
			C645.8,333.8,645.2,334.2,644,334z M341,337c-0.6-0.3-3.8-2.5-4,0C337.6,337.3,340.8,339.5,341,337z M588,339c0.8,2.8-1.4,2.6-1,5
			c2.1,2.2,2.9-0.5,6,0c1.9,1.8,1.2,6.1,4,7c1.4-2.8-0.6-5.9,2-9c-2-2-4.4-3.6-6-6C592.9,338.6,589.3,337.6,588,339z M524,341
			c0.7-3.4-1.7-3.7-4-4C519.8,339.8,522.8,339.5,524,341z M632,348c1.9-3.6-0.3-6.4-4-7C628.8,343.9,629.6,346.8,632,348z M334,350
			c-1.8,0-5.8-2.7-7,0C329.6,349.2,332.5,353,334,350z M611,357c0.6-0.6,2.3-4.7,0-5C610.4,352.6,608.7,356.7,611,357z M681,357
			c3.7,1,4-4.9,1-5C681.2,353.2,680.7,354.7,681,357z M560,362c-2-0.3-2-2.7-4-3C555.5,361.3,558.5,365,560,362z M634,367
			c6-2.9,9.9,3.3,13-2c-3.8-2.2-8.9-3.1-14-4C632.3,364.1,634.7,363.9,634,367z M580,365c0.7-2.2-3.7-4.1-4-2
			C577.5,363.5,578.5,364.5,580,365z M679,363c-0.3,2.3,0.2,3.8,2,4c0.2-0.8,0.8-1.2,2-1c0.3-2.3-0.2-3.8-2-4
			C680.8,362.8,680.2,363.2,679,363z M557,378c-1.2-4.1-3.8-6.8-7-9C551.7,372.6,552.3,377.3,557,378z M567,375c3.5,0.9,2.5,0.1,6,1
			c-0.8-3.5-4.3-4.4-6-7C567,371,567,373,567,375z M623,372c0.7,0,1.3,0,2,0c1.6-2.5-3.4-2.9-3-1C622.6,371.1,623.2,371.1,623,372z
			 M565,377c-0.2-1.9,1.1-2.2,1-4c-1.2-0.8-2.7-1.3-5-1C561,375,562.8,376.2,565,377z M679,376c0.2-1.4,1.6-1.7,2-3c-1,0-2,0-3,0
			C678.2,374.2,677.8,375.8,679,376z M565,387c2.7-0.1,4.8-2.3,3-4C565.4,382.7,564.7,384.4,565,387z M559,390c-1.4-1.6-1.3-4.7-3-6
			C555.2,387.3,558.3,391.6,559,390z M578,398c2.7,0.6,5.1-4.1,3-5C580.7,395.4,577.5,394.9,578,398z M602,397c-1-1.9,3-3.3,0-4
			C601.7,393.6,599.5,396.8,602,397z M678,395c0.7,0,1.3,0,2,0c0-0.7,0-1.3,0-2c-0.7,0-1.3,0-2,0C678,393.7,678,394.3,678,395z
			 M604,401c3.4,0.6,5,3,6,6c3.1-1.6,2.7-2,7-1c1.1-4.1-2.1-3.9-2-7c-2.5-1.3-3.1,4-4,1c1.7-2-0.1-1.3,0-4
			C606.5,395.5,605.7,398.7,604,401z M629,407c0.1-4.6,5.7-0.5,7,0c-0.2-6.7-5.8-1.7-10-4C625.8,405.5,627.5,406.1,629,407z
			 M631,418c0-1.4,0.5-2.2,1-3c-1.3-0.1-1.4-1.3-3-1C629.1,415.9,629.7,417.3,631,418z M599,421C595,417.5,596.6,424.2,599,421
			L599,421z M585,432c3.1-2.1,3.2-1.5,8-1c-0.6-3.7-3.4-5.2-7-6C587.5,429.4,582,429,585,432z M618,436c2.8,1.3,4.9-2.9,3-3
			C620.9,434.9,617.7,433.7,618,436z M634,435c-1.8,0.1-7-3.5-5-1C630.2,434.3,632.8,438,634,435z M595,436c1.7,0.1,2.6-0.8,3-2
			C596.4,434.1,594.5,433.9,595,436z M594,440c0.9-2.5-5.7-0.3-2,0C593.6,439.9,596.3,441.7,594,440z M574,440c-1.5,0.5-5.2-1.2-5,1
			C571.1,442,574.1,444.6,574,440z M652,444c0.5-1.6-5.5-1.6-5,0C647.1,445.4,652.5,448.1,652,444z M442,454c2.9-1.4,5.1,2.7,6,0
			c-2-1.3-1.8-4.8-6-4C442,451.3,442,452.7,442,454z M640,456c3.4,0.4,4.3-1.7,6-3c-1.9,0.2-2.2-1.1-4-1
			C641.5,453.5,640.5,454.5,640,456z M623,461c1.3,0,2.7,0,4,0c1-1.3,1-3.7,2-5c-2.1-0.9-3-3-6-3C623.7,457.3,628.3,458.3,623,461z
			 M622,462c-0.4,1.6-3.1,0.9-2,4c2.5,1.3,4.2-2.9,5,0c0,1,0,2,0,3c-1.5,0.2-3.7-0.4-4,1c1.2,0.8,2.7,1.3,5,1c0.6-2.2,3.5-7,2-8
			C627.1,465.4,625,460.7,622,462z M606,477c3.3,3.3,6.6-0.1,11-1C621,468.3,603.2,465.5,606,477z M521,474c3.2-1.3,5.7-3.4,7,1
			c-0.2-1.9,1.1-2.2,1-4C526.5,469,520.8,470.2,521,474z M530,475c2.8,0.2,2.3-3,5-3c1.6,0.7-0.2,4.9,3,4c0.5-3.1-1.4-3.9-2-6
			C531.5,469.2,530.4,471.8,530,475z M582,473c-1.3-0.1-1.4-1.3-3-1C577.4,474.5,582.4,474.9,582,473z M633,473
			c-0.8-0.8-2.9,0.7-3,1C629.1,475.8,633.7,473.7,633,473z M496,477c-9,3.1,10.2,0.6,11-2C502.9,475.3,498,476.3,496,477z M595,481
			c0,0.7,0,1.3,0,2c2.5,1.6,2.9-3.4,1-3C595.9,480.6,595.9,481.2,595,481z M407,486c-0.6-2.8-1.1-5.6-5-5
			C401.9,484.4,404.9,484.7,407,486z M609,485c1.5,1.6,5.7,1.5,5-2C611.5,482.9,609.1,482.8,609,485z M565,486
			C558.6,484.8,562.8,489.1,565,486L565,486z M527,490c2.7-0.1,2,1.7,4,0C531.8,486.1,526.2,486.1,527,490z M597,495
			c0.2-1.9-1.1-2.2-1-4c-1.3,0-2.7,0-4,0C591.8,494.2,595.6,493.4,597,495z M542,515c0.9,4.6-2.5,4.8-2,9c5.1-0.6,1.4-9.9,8-9
			C546.1,513,544.3,514.7,542,515z M554,512c-4.1-3.8,2.3-5.7,3-8c-14-3.3-26.5-13.5-43-11c13.3,5,32.9,3.8,38,17c-2,0-4,0-6,0
			c-0.2,1.9,1.1,2.2,1,4C548.8,512.8,552.8,513.8,554,512z M499,503c3.3,1,6.3-6.7,5-4C501.1,499.1,500.3,501.3,499,503z M493,525
			c2.2-0.2,3.2,0.8,3,3c-7.3,13.4,8.3,30.6,18,18c-7-4.5-12.2-18.6-2-24c3.5,2.6,5.9,3,11,2c2.1-6,3.7-6.4,6-12
			c-11.1,1.8-26.7,1.6-29-6c0-1-1.8-1.3-2,0C501.7,510.2,495.1,520.1,493,525z M571,514c1.5,3.5,7.6,2.4,12,3
			C582.2,513.1,574.5,512,571,514z M612,516c3.3,0,6.7,0,10,0C622,511.4,612.2,512.2,612,516z M618,524c-0.1-1.6-6.9-1.6-7,0
			C614.1,522.8,618.1,528.4,618,524z M508,530c2.2,1.4,4.8,2.5,9,2C516.9,527.4,509,525.2,508,530z M619,566c2.2,0.2,3.2-0.8,3-3
			C619.3,562.3,620.1,565.1,619,566z M504,566c-2.3-1.7-5.9-2.1-10-2C492.9,569.6,506.4,564.9,504,566z M547,574c-2-0.4-7.4-2.5-9,0
			C541.7,575.2,544.7,578.9,547,574z M611,576c3.2,0.9,3.1-1.5,4-3C611.8,572.1,611.9,574.5,611,576z M528,584
			c3.9,1.4,12.3,3.7,17,1C542.2,580.3,533.1,582.5,528,584z M560,583C555.2,580.2,557.6,586.3,560,583L560,583z M570,585
			C559.8,579.6,562.9,587.4,570,585L570,585z M549,593c-4.7,0.6-12-1.3-15,1C536.2,598,546.4,596.9,549,593z M557,593
			c-1.8,0.6-5.9-1.2-6,1C553.7,594.4,556.7,598.3,557,593z M561,605c-8.3-0.3-29.7-8-39,1c15.1,0.7,38.8,2.4,49-1
			C566.3,602.7,560.4,605,561,605z M506,617c0.5-3.1-1.2-4.1-3-5C503,614.6,502.1,618.3,506,617z M535,612c-6.1,0.2-14.2-0.8-17,4
			c10.5,0.8,24,1.6,36,1c7-0.3,16.2,0.6,20-4C562.1,613,547.2,611.5,535,612z M527,664c-0.6-0.6-4.7-2.3-5,0
			C524.5,662.7,526.2,666.9,527,664z M508,674c0.7,0,1.3,0,2,0c0-0.7,0-1.3,0-2c-0.7,0-1.3,0-2,0C508,672.7,508,673.3,508,674z
			 M517,679c0-4.3,7.5-1.2,7-6c-4.6,1.3-9.3-3.5-11,1C516.8,674.3,516,678.4,517,679z M480,684c6.1,5.4,17.5,0,25,2
			C500.4,678.4,486.2,683.4,480,684z M507,686c2.7-0.7,5.1-1.6,7-3C510.2,684.7,507.4,681.3,507,686z"/>
	</g>
</g>
</svg>
