<?xml version="1.0" encoding="utf-8"?>
<!-- Generator: Adobe Illustrator 15.0.0, SVG Export Plug-In . SVG Version: 6.00 Build 0)  -->
<!DOCTYPE svg PUBLIC "-//W3C//DTD SVG 1.1//EN" "http://www.w3.org/Graphics/SVG/1.1/DTD/svg11.dtd">
<svg version="1.1" id="Layer_1" xmlns="http://www.w3.org/2000/svg" xmlns:xlink="http://www.w3.org/1999/xlink" x="0px" y="0px"
	 width="612px" height="792px" viewBox="0 0 612 792" style="enable-background:new 0 0 612 792;" xml:space="preserve">
<style type="text/css">
<![CDATA[
	.st0{fill-rule:evenodd;clip-rule:evenodd;}
]]>
</style>
<g>
	<g>
		<path class="st0" d="M362,179.7c6.1,3.2,13.5,5.2,15.4,12.6c-28.9,0.7-49.1-13.4-80.5-12.6c4,4.1,9.9,3.2,14.7,4.2
			c4.9,1,9.5,3.5,14.7,4.2c3.8,0.5,8.2-0.8,12.6,0c9.9,1.7,19,12,28.7,15.4c2.7,0.9,5.4,0.3,9.1,1.4c5,1.5,11.4,5.7,17.5,9.1
			c13.4,7.4,23.5,13.1,35.7,21.7c12.6,8.9,22.1,17.3,33.6,28c5.7,5.3,13.3,10.7,16.1,14.7c1.8,2.6,2.1,6,3.5,8.4
			c3.1,5.2,7.8,10.8,12.6,14.7c2,1.7,5.3,2.6,7.7,4.9c9.7,9.2,17.5,24.4,25.2,37.8c13.8,24.1,24.1,49.1,26.6,81.9
			c-6.1-3.2-5.7-9-7.7-14c-2.8-7-7.5-12.3-11.2-18.9c-4-7-5.5-15.4-9.1-22.4c-6.9-13.5-15.3-25.3-23.8-37.8
			c-4.1-6-9.5-11.4-13.3-17.5c-4.1-6.6-6.6-14.4-11.9-20.3c-2.6-2.9-6.8-4.4-9.8-7c-8.5-7.2-15.9-15.6-24.5-23.1
			c-21.1-18.5-45-32.6-70.7-48.3c-4.7-2.9-9.3-6.8-14-9.1c-7-3.4-16.2-3-24.5-7c-3.4-1.6-5.7-4.7-9.1-6.3
			c-6.9-3.3-14.9-3.2-21.7-4.9c-8.2-2-15.9-7.3-24.5-2.8c7.1,8.1,27.2,3.1,28,17.5c-9.2,4.4-19.1-1.8-28.7-4.2
			c-9.8-2.5-20.4-3.8-30.8-5.6c1.5,8.1,12.1,7.5,18.2,9.8c4.6,1.7,8.9,4.6,14,6.3c5.1,1.7,9.8,3.5,14.7,5.6
			c9.5,4.2,19.8,7.3,28.7,11.2c0.1,0,1.1,0.5,1.4,0.7c28.1,16.7,57.9,37.7,83.3,59.5c8.9,7.7,20.6,14.3,25.9,21.7
			c1.6,2.2,1.9,5.3,3.5,7.7c4.4,6.6,11.3,10.3,17.5,15.4c6.6,5.4,12.5,13.5,18.9,21c11.8,13.8,22.2,30.1,32.9,45.5
			c5.3,7.6,11.7,16,14.7,24.5c3.1,8.6,4,16.2,7.7,25.2c4.1,9.8,11.3,19.1,11.9,31.5c-10.7-10.8-14.7-27.7-23.8-40.6
			c-24.4-34.8-49.7-69.4-77-103.6c-4.4-5.5-9.8-8.3-16.1-13.3c-6.5-5.1-11.8-12-18.2-17.5c-24.8-21.3-51.7-43.2-81.9-60.9
			c-14.9-8.7-28.1-17.8-45.5-25.9c-8-3.7-18.2-8.4-25.2-9.8c-2.6-0.5-5.6,0.4-8.4,0c-3.6-0.5-7-3.3-11.2-4.2
			c-3.5-0.8-7.7,0-11.2-0.7c-3.1-0.6-6.1-2.8-9.1-3.5c-3.3-0.7-6.9,0-9.8-0.7s-5.4-3.2-8.4-3.5c-5.1-0.6-10.6,1.7-15.4,2.8
			c-4.6,1.1-10.9,0.7-11.9,5.6c8.8,7.8,24.5,7,35,14c2.5,1.6,4.6,5.4,7.7,7.7c6.9,5.1,18.5,10.2,28,15.4
			c9.8,5.3,19.1,12.3,27.3,16.1c7.9,3.6,16.5,6,23.8,11.2c6.1,4.3,11.6,10.5,18.2,15.4c18.3,13.5,38.2,28.8,56,43.4
			c10,8.2,19.4,20.4,30.1,29.4c22,18.5,39,36.4,58.8,58.8c4.3,4.8,9.2,10.4,13.3,16.1c4.5,6.2,11.5,11.8,13.3,16.1
			c1.3,3.2,0.8,7.2,2.1,10.5c2.2,5.7,7.9,10.5,11.9,16.1c11.3,15.8,20.2,34.3,30.1,51.8c-3.3,0.9-3.8-3.3-4.9-4.9
			c-4.7-7.2-10.5-13.7-16.1-21c-7.2-9.3-13.3-19.6-20.3-28.7c-3.6-4.6-9.4-7.3-13.3-11.2c-5.8-5.9-10.6-13.2-16.1-19.6
			c-48.3-56.6-104.8-108.4-166.6-153.3c-26.8-19.5-53-43.1-86.1-56c-8.2-3.2-15.7-7.9-24.5-11.2c-7.9-2.9-17.9-3.8-23.1-11.9
			c7.8-15.2,24.6-17.4,46.2-23.1c18.9-5,37.3-11.8,61.6-11.9c5.7,0,14-0.8,17.5,0c4.4,1,6.3,7.9,11.9,5.6c1.2-3.9-7.8-3.3-9.1-7
			c2.4-1.4,9.2-6,14.7-6.3c3.8-0.2,8.7,2.4,14,2.1c5.2-0.3,10-3.2,18.9-2.8c9.2,0.4,22.1,1.1,33.6,2.8c10.1,1.5,26.7,4.6,25.2,10.5
			C385.1,186.3,365.7,176.9,362,179.7z"/>
		<path class="st0" d="M380.2,193.7c16.2,2.9,40,13.2,55.3,21.7c5.6,3.1,9.7,8.1,14.7,10.5c2.3,1.2,7.1,1.1,10.5,2.8
			c13.4,6.5,35.1,27.6,44.8,39.2c7.9,9.4,16.8,22.6,24.5,35.7c12.6,21.4,23.2,35.3,30.8,61.6c5,17.2,7.9,27.2,2.1,42.7
			c-10.6-15.1-11.5-32.6-17.5-47.6c-15.3-38.2-37.8-68.6-64.4-95.2c-8.7-8.7-19.5-15.1-28.7-24.5c-2.6-2.6-4.2-6.6-7-9.1
			c-8.2-7.5-20.4-13.2-30.8-19.6C403.3,205,391.4,200,380.2,193.7z"/>
		<path class="st0" d="M144.3,207.7c4.3,0.4,0.3,3.7-0.7,4.9c2,6.1,8.2,3.8,14.7,4.9c5.6,1,11.7,5.7,18.9,9.1
			c14.2,6.7,21.3,13.7,34.3,21.7c8.4,5.2,22,9,14,23.1c-4.9,2.9-12.1-2.8-17.5-7.7c-5.5-5-10.5-7-14.7-9.8c-3.3-2.2-5.5-6.1-9.1-8.4
			c-9-5.8-19.6-10.4-28-16.1c-5.7-3.9-9.4-10.2-16.8-12.6C140.3,213.1,140.5,208.6,144.3,207.7z"/>
		<path class="st0" d="M489.4,548.6c-16-10.5-28.3-25.3-42.7-37.8c-14.4-12.5-29.2-24-43.4-36.4c-24.8-21.7-49.7-43.2-74.9-65.1
			c-1.9-1.7-3.9-2.4-5.6-4.2c-7-7.4-17.5-13.3-25.2-21c-2.4-2.4-3.5-6-5.6-8.4c-7.6-8.7-17.6-17.3-26.6-24.5c-2.7-2.2-7-3.1-9.8-5.6
			c-2.5-2.2-3.4-5.9-5.6-8.4c-7-8-16.6-13.1-24.5-20.3c-4.1-3.8-7.2-8.8-11.2-12.6c-23.4-22-48-44.9-70.7-68.6
			c-3.9-4.1-9.2-6.9-10.5-12.6c1-0.4,1.8-1,2.8-1.4c4.5,0.4,7.7,6.3,12.6,9.1c2.5,1.4,5.5,1.5,7.7,2.8c5.4,3.2,11.4,9.8,17.5,14.7
			c17.1,13.8,33.7,30.7,51.1,44.1c12.1,9.3,22.1,20.4,32.9,30.8c10.8,10.4,23.5,18.7,35,28.7c10.9,9.6,20.5,21.8,32.9,30.8
			c24.5,17.8,43.9,39.9,66.5,60.9c14,12.9,28.7,22.5,37.1,38.5c8.9,2.2,11.4,9.8,16.1,16.8c3.2,4.7,8.8,9.6,13.3,14.7
			c4.4,5,9.1,11.3,13.3,14.7C478.6,533.8,487.8,537.4,489.4,548.6z"/>
		<path class="st0" d="M262.6,232.2c-2.6-0.4-4.6-1.5-6.3-2.8C257.5,226.6,262.4,229.6,262.6,232.2z"/>
		<path class="st0" d="M486.6,230.1c7.6,4.8,15.2,9.5,18.9,18.2C496.8,245,489.7,236.6,486.6,230.1z"/>
		<path class="st0" d="M332.6,276.3c-14.8-4.8-24.3-14.9-35.7-23.1c0-0.7,0-1.4,0-2.1c0.6-0.5,1.6-0.8,2.8-0.7
			c6,3,12.1,7.9,18.2,11.9C323.7,266.1,332.3,268.8,332.6,276.3z"/>
		<path class="st0" d="M144.3,251.1c6.4,0.4,18.3,13.1,23.1,21.7c1.7,2.9,2,6.7,3.5,9.1c3.9,6.5,14.1,12.8,21,21
			c6.5,7.7,13.6,16.4,20.3,21.7c2.6,2.1,5.9,2.9,8.4,4.9c14,11.5,26.8,27.3,40.6,41.3c4.6,4.7,11.3,9.5,13.3,13.3
			c1.3,2.6,1.2,7.1,2.1,9.1c3.1,7.1,17.1,17.5,25.2,24.5c18.6,16.2,36.5,28.9,55.3,44.1c9.3,7.5,18.7,18.4,27.3,22.4
			c2.4,1.1,7.3,1.3,9.1,2.1c4.4,2,8.8,7.5,14,11.9c5,4.2,11,7.7,14,11.2c4.1,4.9,4.7,10.4,9.1,13.3c3,2,7.4,1.8,10.5,3.5
			c7.4,4.1,14.2,13.1,21.7,19.6c13.2,11.5,26.6,20.1,32.2,38.5c-17-5-26.2-15.6-39.2-26.6c-6.7-5.7-14.5-11.3-20.3-16.8
			c-4.1-3.8-6.8-9.4-11.2-12.6c-3.1-2.3-7.3-2.9-10.5-4.9c-4.6-3-9.1-7.9-14-11.9c-4.5-3.7-10.2-7.3-14-11.2c-2.7-2.7-4.2-6.4-7-9.1
			c-8.2-8-18.4-14.4-27.3-21.7c-21.9-17.9-41.6-38.5-63.7-58.1c-4.5-4-9-9.2-12.6-11.2c-3-1.7-7.1-1.3-9.8-2.8
			c-8.7-4.7-19-18.3-28-27.3c-18.6-18.6-33.8-37.3-51.1-57.4c-6.4-7.4-12.3-15.5-18.2-21.7c-9.6-10-25.3-20-26.6-37.8
			C142.9,253,142.9,251.3,144.3,251.1z"/>
		<path class="st0" d="M128.9,253.2c4.7,3.3,5.3,9.7,8.4,14c2.5,3.5,6.7,5.3,9.1,8.4c9.6,12.2,13.7,30.3,23.8,43.4
			c3.1,4.1,6.2,9.2,9.1,12.6c3.5,4.1,8.9,6.5,12.6,10.5c8.1,8.5,14.6,19.4,23.1,28.7c16.4,17.9,33.6,35,51.8,51.8
			c9.1,8.4,20.6,16.1,27.3,24.5c1.8,2.3,1.8,5.4,3.5,7.7c3,4.1,14.7,14.3,19.6,16.8c2.9,1.5,6.6,1.2,9.8,2.8
			c3.4,1.7,6.8,5.8,11.2,9.1c3.8,2.9,9.3,5.6,11.9,8.4c2.3,2.4,2.9,6.2,4.9,8.4c3.1,3.5,8.5,7.6,12.6,9.8c3.9,2.1,8.6,2.7,12.6,4.9
			c9.1,5.1,18.9,13.6,28.7,21c9.8,7.4,21.5,13.4,28.7,20.3c3.3,3.2,5,8.1,8.4,11.2c6.6,6,17.7,8.5,19.6,18.2
			c-10.8-0.5-15.9-9.8-24.5-14c-3.6-1.8-7.5-1.7-11.2-3.5c-9.2-4.5-18-12.9-28-19.6c-9.2-6.2-19-12.5-28-18.9
			c-9.2-6.5-17.5-14.4-27.3-20.3c-9.9-5.9-20-12.7-27.3-19.6c-4.1-3.8-6.6-8.6-10.5-11.9c-7-6.1-15.2-10-23.1-15.4
			c-9.5-6.5-19-16.4-28.7-25.2c-18.4-16.7-36.3-35.2-53.2-54.6c-18.3-21-32-44.8-48.3-67.9c-2.8-3.9-6.3-7.2-9.1-11.2
			c-9.5-13.6-14-32.9-17.5-48.3C127.9,255,129.2,254.4,128.9,253.2z"/>
		<path class="st0" d="M92.5,289.6c1.9,0.8,0,3.6,0,4.9C91,294.1,91.8,290.2,92.5,289.6z"/>
		<path class="st0" d="M353.6,291c17.5,10.2,34.5,24.5,51.1,37.8c5.4,4.3,9.6,11,14.7,14c2.5,1.4,5.9,1.4,8.4,2.8
			c10.1,5.9,21.3,21.7,30.1,32.2c10,11.9,17.9,23.6,27.3,35c8.4,10.2,17.8,22.7,25.9,36.4c7.5,12.6,18.3,27.8,21,40.6
			c0.6,3,0.1,6.3,0.7,9.1c2.4,10.9,9.5,19.4,11.2,30.1c-7.7-6.6-9.7-16.3-14.7-24.5c-3.1-5.1-6.9-9.5-9.8-14.7
			c-31.7-55.5-73.7-105.3-117.6-149.8c-8.2-8.3-15.2-17.4-23.8-25.2C369.6,307.1,360.8,299.9,353.6,291z"/>
		<path class="st0" d="M113.5,291.7c4,6,3.8,12.6,7,18.9c1.9,3.8,5.9,5.9,7.7,9.8c4.5,9.7,7.3,22.3,7.7,33.6
			c0.2,4.9,4.7,9.9,7.7,15.4c2.9,5.3,4,11.6,6.3,15.4c2.5,4.1,6.9,5.6,9.8,9.1c3,3.6,5.3,9.5,8.4,14c5.9,8.6,11.5,17.2,18.2,25.9
			c3.3,4.2,7.7,7.9,9.8,11.9c1.4,2.7,1.4,5.8,2.8,8.4c3,5.7,10.8,13.7,16.8,17.5c2.6,1.6,5.8,1.8,8.4,3.5
			c8.5,5.3,15.5,15.3,23.8,22.4c8.1,6.8,16.7,14.9,25.9,20.3c4.2,2.5,9.2,3.6,13.3,6.3c18,11.8,36.3,24.4,57.4,34.3
			c2.2,11.6,17.6,13.7,21.7,21c-42.3-8.6-77.4-31.4-108.5-53.2c-19.4-13.6-35.2-26.1-50.4-42.7c-4.9-5.3-7.5-12.1-12.6-18.2
			c-2.8-3.3-7.2-5.1-9.8-7.7c-6.7-6.7-10.8-15.7-16.1-22.4c-6.2-7.8-10.4-14.7-15.4-22.4c-10-15.5-13.8-33.3-23.1-52.5
			c-2.1-4.3-5.4-7.1-7.7-11.9C115.5,333.6,113.5,309.6,113.5,291.7z"/>
		<path class="st0" d="M128.2,293.8c0.7,0,1.4,0,2.1,0c4.7,8.8,8.9,19.4,14,30.1c4.2,8.9,8.1,23,14.7,28.7c2.4,2.1,6.7,2.1,9.1,4.2
			c3.1,2.6,5.3,9.2,8.4,14c5.8,8.8,12,15.5,18.9,24.5c3.6,4.7,8.4,8.5,9.8,11.9c1.3,3.2,0.6,7.1,1.4,9.1
			c3.7,9.8,17.8,20.2,27.3,29.4c4.3,4.1,9.1,9,14.7,14c4.8,4.3,11.2,10.8,15.4,12.6c3,1.3,6,0.5,8.4,1.4
			c4.6,1.8,16.7,11.4,19.6,16.1c1.3,2.1,1.2,5.4,2.8,7.7c3,4.4,11,9.9,14.7,11.2c3.2,1.1,8.7,0.8,11.2,2.1c4.3,2.3,4.4,8.1,7.7,11.9
			c2.5,2.8,8.4,6.3,12.6,7.7c7.5,2.5,15,2.3,20.3,7.7c2.4,2.5,2.9,6.4,5.6,9.1c5.6,5.6,12.6,6.3,16.8,10.5
			c16.7-0.2,25.5,7.6,30.8,18.9c10.8,4.1,17.6,12.3,33.6,11.2c9.1,5.6,22.9,10.2,23.8,21.7c-27.4,0.1-38.4-22.2-59.5-30.8
			c-9.9-0.1-17-3.2-23.8-8.4c-3.2-2.4-4.7-6.2-7.7-8.4c-7.7-5.6-17.6-8.1-27.3-11.2c-9.4-3-17.9-15-28-20.3
			c-3.6-1.9-7.9-2.1-11.2-4.2c-9.2-5.9-15-15.2-23.8-20.3c-2.5-1.4-5.4-1.5-7.7-2.8c-10.5-5.9-17.9-16.7-28-25.2
			c-19.5-16.5-34.9-33.6-50.4-53.2c-16.4-7.8-27.1-27.8-37.8-44.8c-5.4-8.5-7.3-10.8-10.5-21.7c-3.2-10.9-11.6-18.8-16.8-28.7
			c-5.3-10.1-9.3-23.1-11.9-33.6C127.9,295.3,128.2,294.8,128.2,293.8z"/>
		<path class="st0" d="M543.3,296.6c2.9,1.6,4,4.8,4.9,8.4C545.7,303,543.8,300.5,543.3,296.6z"/>
		<path class="st0" d="M268.2,302.2c34.4,19.1,59.9,47,90.3,70c2.8,0.2,3.9-1.2,7-0.7c3.9,1.7,3.9,5.6,6.3,8.4
			c8.1,9.6,22.4,16.3,28,27.3c3.4,6.7,4.2,13.9,11.9,17.5c17.5-1.5,11.7,20.6,23.1,24.5c3.2,1.1,7.8-1.5,11.9,1.4
			c2.8,4.6,0.9,9.9,2.1,14.7c1.3,5,6.2,7.4,6.3,12.6c-5.3,0.2-4.1-6.2-6.3-9.1c-3.4-1.8-8.3-1.6-11.9-3.5c-5.4-2.9-8.1-11.6-14-16.1
			c-2.5-1.9-5.8-2-7.7-3.5c-3.1-2.5-4.3-6.8-7-9.8c-5.3-6-12.5-9.9-19.6-15.4c-9.3-7.2-15.7-18.1-23.8-25.9
			c-9.6-9.3-20.2-17.5-29.4-25.9C316.1,343.4,288.8,326.2,268.2,302.2z"/>
		<path class="st0" d="M298.3,606c-15-7.9-35.4-9.7-50.4-17.5c-4.1-2.2-7.6-5.8-11.9-7.7c-3.4-1.5-7.8-1.8-11.2-3.5
			c-11.6-5.7-23.7-18.8-34.3-27.3c-22.3-17.8-41.6-40.5-56-65.8c-7.6-13.4-12.8-27.7-19.6-41.3c-2.2-4.5-7-7.7-9.1-11.9
			c-2.3-4.7-3-12-4.9-17.5c-4.8-14-12.1-32-11.9-45.5c0.1-6.3,4.2-12.3,2.8-18.9c4.4,3.1,8,9.3,9.8,15.4c2.8,9.4,4,20.5,7,30.8
			c3,10.1,8,20.1,9.8,28c0.8,3.7,0.3,9.2,1.4,13.3c1.6,6,6.9,11.4,9.8,18.2c1.7,4,2,8.3,3.5,11.9c6.3,15.3,22.3,30.4,33.6,43.4
			c3.9,4.5,8.4,9.1,12.6,13.3c8.5,8.5,19.4,21.1,27.3,25.2c2.9,1.5,6.8,1.4,9.8,2.8c4.5,2.1,8.3,6.4,12.6,9.1
			c12.6,8,27.9,14.3,42.7,21c20.3,9.1,42.3,12.2,65.8,19.6c4.9,1.5,10.5,5.7,18.9,2.8c-9.7-5.8-20.9-6.8-30.8-11.2
			c-4.2-1.9-7.4-5.4-11.2-7c-4.9-2.1-10.4-1.8-16.1-3.5c-3.7-1.1-7.2-4-11.2-5.6c-4-1.6-9-1.8-12.6-3.5c-7-3.2-12-9.9-18.9-14
			c-5-3-9.9-4.7-14.7-8.4c-12.4-9.5-28.2-17.8-39.2-29.4c-8.8-9.3-15.7-21.9-24.5-31.5c-3.6-3.9-9.5-6.5-12.6-10.5
			c-1.6-2.1-2.4-6-4.2-9.1c-4.2-7.2-9.1-14.2-14-22.4c-2.2-3.7-5.9-6.8-7.7-10.5c-3.3-6.8-4.6-14.6-7-21.7c4.6-0.7,6.4,4.7,7.7,7
			c2.1,3.6,3.5,8.1,5.6,11.9c5.8,10.7,15.9,19.3,21,29.4c1.4,2.7,1.4,5.9,2.8,8.4c6.4,11.8,21,23.3,32.9,34.3
			c11.7,10.8,24.5,23.4,36.4,30.1c4.9,2.8,10.4,3.5,14.7,6.3c6,3.9,10.8,11.2,17.5,13.3c5.8,1.9,11.3,1.4,16.1,3.5
			c5.4,2.3,11.7,5.8,16.8,9.1c3.9,2.5,6.4,7.1,11.2,9.1c4.9,2.1,9.8,0.9,15.4,2.1c7.1,1.5,14.7,6,22.4,8.4c15,4.7,30.1,9.6,46.9,14
			c7,1.8,16.4,2.4,20.3,9.8c-8.9,9.1-21.2-1.6-31.5-0.7c-3.3,0.3-6.4,3.7-9.8,4.2c-10.4,1.5-25.4-2-39.2-0.7
			c-4.7,0.5-9,2.5-13.3,2.8c-4.7,0.3-9.5-1.4-14.7-1.4c-8.9,0-18.8,3.3-24.5,2.8c-4.6-0.4-8.6-5.6-11.9-7c-15.2-6.4-34-3.3-48.3-9.8
			c-4.5-2-7.8-6.4-12.6-8.4c-3.9-1.6-8.8-1.9-13.3-3.5c-12.6-4.5-27.8-14.9-38.5-24.5c-12.7-11.4-27.1-26.9-38.5-43.4
			c-11.1-16.2-23.4-36.1-28.7-53.2c-2-6.4-2.8-13.4-5.6-20.3c-6.6-16.4-14.1-41.4-14.7-63c-0.7-24-2.5-55,2.8-77
			c0.4-0.6,0.7-1.1,0.7-2.1c0.7,0,1.4,0,2.1,0c1.7,20-2,42.7,1.4,63.7c0.6,4,3.8,7.2,4.9,11.2c2.4,8.4,2.8,18.4,4.9,28
			c2,9.3,3.2,18.9,4.9,28c1.4,7.4,6.3,13.9,10.5,21.7c3.7,6.9,6.8,15,9.8,21.7c12.6,28.5,32.5,52.1,53.2,70.7c5.6,5,10.9,10,16.8,14
			c5.9,4,12.6,6.9,18.9,11.2c5.3,3.6,9.7,10.9,15.4,12.6c3.1,0.9,7.3,0,11.2,0.7c16.1,2.9,28.7,16.7,43.4,16.8
			C282.7,607.4,290.1,603.2,298.3,606z"/>
		<path class="st0" d="M90.4,329.5c2.9,2.4,1.9,8.9,2.1,14C88.7,342,89.4,333.5,90.4,329.5z"/>
		<path class="st0" d="M129.6,407.2c-8.8,0.2-13.2-13.4-16.8-25.2c-3.4-11-8.1-23.7-9.1-32.2c-0.8-6.4,0.4-10.1,2.8-13.3
			c10.3,2.9,10.6,17.5,14.7,30.8C125.5,381,132.6,390.6,129.6,407.2z"/>
		<path class="st0" d="M61.7,387.6c10.7,6.7,10,32.1,14,46.9c1.3,4.8,11.2,34.5,1.4,36.4c-8.5,1.6-11.8-25.7-13.3-32.2
			C59.5,420.2,54.3,401.3,61.7,387.6z"/>
		<path class="st0" d="M51.2,402.3c1.2,11.2,2.8,22.1,4.9,34.3c1.3,7.5,8.2,29.8-3.5,28.7c-6-0.5-7.8-16.7-9.1-26.6
			C41.6,424.6,33.6,395.7,51.2,402.3z"/>
		<path class="st0" d="M86.9,498.2c1.8,1,3,2.6,2.8,5.6C87.9,502.8,86.7,501.2,86.9,498.2z"/>
		<path class="st0" d="M522.3,560.5c-10.2,0.9-19.2-22.8-6.3-20.3C521.3,541.2,527.5,554.2,522.3,560.5z"/>
		<path class="st0" d="M115.6,547.2c0.2-0.9,1.4-0.7,1.4,0c16.7,16.9,33.3,33.9,53.2,47.6C147.5,583.4,128.6,568.3,115.6,547.2z"/>
		<path class="st0" d="M399.1,594.1c4.1-2,6.9,3,11.9,3.5c8.8,0.9,21.8-4.2,22.4,9.8C417.6,612.5,410.7,597.8,399.1,594.1z"/>
		<path class="st0" d="M224.1,614.4c-15.8,5.9-37.2-3.3-44.8-14.7c10.6-2.7,18.8-1.1,28,2.1C215.2,604.5,223.5,605.7,224.1,614.4z"
			/>
		<path class="st0" d="M343.1,219.6c13.4-1.4,18,6.9,26.6,12.6c5.1,3.3,11.4,5.6,16.8,9.1c5.1,3.2,9.6,7.1,14.7,10.5
			c17.8,12.2,35.8,19.5,50.4,35c19.2,20.4,39.6,43.2,56,68.6c5.6,8.7,13.5,17.4,16.1,25.2c1.5,4.5,0.6,9.9,1.4,13.3
			c0.9,4.2,4.9,7.4,6.3,11.9c1.8,5.9,0.6,11.9,4.2,16.1c-5.5-6.2-9.4-16.3-14.7-23.1c-2.4-3-6.4-5-9.1-8.4
			c-3.5-4.5-5.7-10.6-9.1-15.4c-19.7-28.2-41.4-54-65.8-78.4c-4.1-4.1-8.9-7.1-12.6-11.2c-2-2.2-3-5.4-4.9-7.7
			c-4.6-5.6-11.8-10.8-17.5-16.1C384.3,245.4,361.2,236.5,343.1,219.6z"/>
	</g>
</g>
</svg>
