<?xml version="1.0" encoding="utf-8"?>
<!-- Generator: Adobe Illustrator 15.0.0, SVG Export Plug-In . SVG Version: 6.00 Build 0)  -->
<!DOCTYPE svg PUBLIC "-//W3C//DTD SVG 1.1//EN" "http://www.w3.org/Graphics/SVG/1.1/DTD/svg11.dtd">
<svg version="1.1" id="Layer_1" xmlns="http://www.w3.org/2000/svg" xmlns:xlink="http://www.w3.org/1999/xlink" x="0px" y="0px"
	 width="612px" height="792px" viewBox="0 0 612 792" style="enable-background:new 0 0 612 792;" xml:space="preserve">
<style type="text/css">
<![CDATA[
	.st0{fill-rule:evenodd;clip-rule:evenodd;}
]]>
</style>
<g>
	<g>
		<path class="st0" d="M536.3,267.9c-14-1.4-22.9-9.3-33.6-15.4c-19-10.8-37-23.4-58.8-32.2c-4.7-1.9-9.4-1.8-14.7-3.5
			c-6.3-2.1-23.2-12.8-29.4-1.4c5.4,6.6,16.1,5.3,25.2,8.4c2.6,0.9,6.3,5,9.1,6.3c11.2,5.1,23.9,4.4,25.2,17.5
			c-13.6,2.9-23.4-8.2-35-9.8c-2.5-0.3-5.9,0.8-8.4,0c-2.8-0.9-4.1-4.6-7-6.3c-7.4-4.2-19.8-6.7-23.1,1.4c0.6,4.3,6.1,3.7,6.3,8.4
			c-2.1,7.4-19.7-0.6-21,7.7c8.6,9.2,28.7,6.8,35.7,17.5c-18.5,5.6-36.5-12.9-49.7-1.4c6,6.5,20.5,9.1,30.8,7
			c5.3,2,7.8,6.6,15.4,6.3c14.5,7.4,33.8,12.5,49.7,18.2c5.3,1.9,13.6,4.6,14.7,11.2c-6,2.2-13.6-1-20.3-3.5
			c-12.5-4.7-25.2-9.9-39.2-14c-14.3-4.1-29.9-8.2-32.2,8.4c-14.3,1.1-20.4,12.9-32.2,18.9c-4.7,2.4-9.3,3.7-13.3,6.3
			c-4,2.6-7.5,8.4-11.9,9.8c-14.2,4.4-28.2,6.8-39.9,16.8c6.3,11.9,18.9-0.9,25.9-2.1c2-0.4,5,0.5,7.7,0.7c25.8,1.5,59,5.1,85.4,9.8
			c17.9,3.2,34.9,2.6,42,14c-16,3.9-31.3-2.4-46.2-4.9c-22.5-3.8-44.3-7.3-69.3-8.4c-5.5-0.3-11.2,0.6-16.8,0
			c-4.6-0.5-8.7-3.7-13.3-4.2c-8.1-0.9-13,3.8-20.3,5.6c-7.3,1.7-15.7,1.3-23.8,2.8c-23.8,4.3-44.4,8.9-65.8,16.1
			c-4.9,1.7-9.7,4.7-13.3,4.9c-2.5,0.1-5.5-1.5-7.7-1.4c-5,0.3-11.4,4.5-17.5,7c-11.2,4.5-21,7.4-28.7,14.7c3,2.7,6.3-2.5,9.1,0
			c-4.6,4.7-12,6.7-16.1,11.9c17.6,1.4,30.7-14.8,48.3-11.2c-1.7,8.4-12.2,8.9-19.6,11.2c-7.9,2.4-16.9,4.1-24.5,6.3
			c-6.6,1.9-14.9,6.4-23.8,7c2.1,3.3,11.3-0.6,11.9,4.2c-3.4,7.4-25,6.2-29.4,0.7c2.4-2.5,9.5-0.3,11.2-3.5
			c-2.5-2.8-10.1-0.6-10.5-5.6c2.6-3.2,10.7-1,12.6-4.9c0.2-3-2-3.6-2.8-5.6c-4.5,0.5-10.2,1.8-11.9-2.1c1.8-8,11.3-3.6,16.8-4.2
			c5.2-0.6,13.1-4.7,18.2-7c6.7-3,13.3-8.6,20.3-12.6c20.1-11.4,43.5-23.2,59.5-37.8c-0.3-16.7,19.1-19.5,28.7-28.7
			c1.4-2.7-1.7-2.7,0-5.6c6.2-9.5,18-13.1,26.6-21.7c7-7,14.1-18.4,23.8-23.1c5.8-2.8,13.1-1.8,17.5-5.6c2.8-2.5,3-7.1,5.6-9.8
			c3-3.2,16.3-11.4,21.7-11.9c5.3-0.5,11,3.5,15.4-0.7c1.8-2-0.6-4,0-7c5.8-1.7,16.1-11.5,23.8-11.2c5.1,0.2,15,11,21.7,1.4
			c0.7-4.9-5.4-3-5.6-7c4.1-4.9,10-3.5,16.1-5.6c4.2-1.4,7.7-5.5,11.9-7c9.8-3.5,20.8-6,32.2-5.6c3.3,0.1,7.7-0.9,11.2,0
			c3.4,0.9,6,4.5,9.1,6.3c9.7,5.5,22.1,8.6,32.9,14.7c7.3,4.1,13.8,9.3,21,13.3c7.6,4.2,13.7,9.8,20.3,14
			C526.9,255.4,537.2,257.7,536.3,267.9z M342.4,246.2c4.8,3.4,20,5.1,21-2.8C360.3,238.3,341.9,237.3,342.4,246.2z M301.1,263.7
			c6,2,14.2,0.3,14-6.3C309.3,255.7,302.2,258.4,301.1,263.7z M329.1,263.7c6.9,1.8,18.5,5.1,22.4-1.4
			C350.3,254.5,328.3,253.7,329.1,263.7z M315.8,281.9c0.8,11.5,21.6,5.8,23.8-3.5C333.9,271.5,315.2,272.5,315.8,281.9z
			 M280.8,283.3c7.2,2.6,20.2,0.6,21-7.7C293.1,273.3,280.8,276.9,280.8,283.3z M341.7,291.7c-12.9,13-29.8,22-41.3,36.4
			c22.9-3,31.8-20,49.7-28c1.4-1.7,1.4-4.7,2.8-6.3c6.5-2.8,14.9-3.8,16.1-11.9C360.6,275.6,334.3,275.3,341.7,291.7z M259.8,288.9
			c5.4,0,8-2.7,10.5-5.6C264.9,283.3,260.3,284,259.8,288.9z M287.8,311.3c-6,6.9-14.6,9.9-16.1,17.5c12.7,0,19.1-10,26.6-16.1
			c7.7-6.3,18.5-10.1,22.4-20.3C301.5,289.9,296.4,301.4,287.8,311.3z M261.2,301.5c-7.7,1.9-15.2,0.9-20.3,6.3
			c-1.6,1.7-2.3,4.5-3.5,6.3c6,0.6,14.6-2.8,17.5-0.7c-3.1,5.4-18.1,19.1-21,5.6c-8,8.5-18,15.1-25.2,24.5
			c15.5-6.4,34-9.9,49.7-16.1c6.3-4.9,2.4-18.6,10.5-21c2.6-0.8,5.7,1.3,8.4,0.7c5.3-1.2,7.6-6.2,9.1-11.2
			C278.8,290.6,270.4,299.3,261.2,301.5z M274.5,343.5c4.6-1.7,10.8-1.8,12.6-6.3C281.8,338.2,277.7,340.4,274.5,343.5z
			 M231.1,348.4c-8.8,2-18.8,2.6-23.1,10.5c5.9-1.2,7.8,1.5,10.5,3.5c5.9,0.9,9-4,14-6.3c8.4-3.9,18.9-2.9,26.6-8.4
			c-1.8-0.8-1.4-3.8-1.4-6.3C247.9,340.9,240.1,346.3,231.1,348.4z M94.6,420.5c3.6,0.1,7,0,7.7-2.8
			C99.5,418.4,95.9,418.3,94.6,420.5z"/>
		<path class="st0" d="M491.5,206.3c0.6,2.8,0.5,3.4-1.4,4.9c-2,0.6-1.8-1-3.5-0.7c0-1.6-1.2-2.1-0.7-4.2
			C487.3,204.9,489.9,205.9,491.5,206.3z"/>
		<path class="st0" d="M413.1,248.3c-0.7,3.4-9.8,4.7-8.4-1.4C407.3,245.2,412,246.3,413.1,248.3z"/>
		<path class="st0" d="M408.9,268.6c1.8-1.6,7.3-0.8,7,2.1C412.3,271.3,410.4,270.1,408.9,268.6z"/>
		<path class="st0" d="M523.7,361.7c-5.2,2.6-8-1.9-11.2-3.5c-2.1,0-4.2,0-6.3,0c-10.5-6.7-28.7-5.8-36.4-15.4
			c0.8-2.9,2.2-4.2,6.3-3.5c11.2,1.8,30.9,11.5,38.5,16.1C520.1,355,524.8,355.4,523.7,361.7z"/>
		<path class="st0" d="M348,382c-10.3,4.7-25.4,2.5-39.2,1.4c-24.3-1.9-47,3.9-70,4.9c-3.9,0.2-8.1-1-11.9-0.7
			c-18.2,1.5-32.5,18.3-50.4,13.3c1.2-7.6,13.9-12.7,23.8-14c8-1.1,16.9,1,24.5-1.4c3.5-1.1,6.3-5.5,10.5-7
			c10.1-3.7,36.6-5,49.7-4.9C308.3,373.7,338,367.5,348,382z"/>
		<path class="st0" d="M382.3,384.1c2.6,0,4.4,0.7,6.3,1.4C387.6,386.7,382.5,386.1,382.3,384.1z"/>
		<path class="st0" d="M323.5,404.4c-7.4,5-35.3,6-39.9-2.8C290.2,395.2,319.9,393.4,323.5,404.4z"/>
		<path class="st0" d="M247.9,405.8c-2.3,6.4-19.3,8.7-24.5,3.5C224.4,400.7,243.8,398.7,247.9,405.8z"/>
		<path class="st0" d="M523,436.6c-12.1,2.8-24.4-2-37.8-4.9c-9.8-2.1-19.5-4.4-28.7-6.3c-20.5-4.2-40.7-4.9-56.7-13.3
			c1.3-2.8,4.9-5.9,7.7-5.6c15.5,1.4,34.4,5.9,55.3,10.5C488.6,422.6,513.5,422.7,523,436.6z"/>
		<path class="st0" d="M205.2,412.8c-1.2,5.5-11.1,7.1-15.4,3.5C189.6,408.2,201.7,407.6,205.2,412.8z"/>
		<path class="st0" d="M65.9,412.8c-2.1,8.5-14.4-1.2-16.8,7c0.2,3.5,4.5,3,4.2,7c-3.3,2.4-12.2,2-14-1.4c0.9-4.1-0.1-8.1-1.4-13.3
			C47.1,412.5,60.5,407.6,65.9,412.8z"/>
		<path class="st0" d="M173,420.5c-3.2,6.3-17.3,9.2-23.8,5.6C150.4,418.1,168,413.7,173,420.5z"/>
		<path class="st0" d="M257,429.6c-7.9,5.6-19.1,5-29.4,6.3c-20.1,2.5-41,5.2-62.3,8.4c-13.8,2.1-27.2,7.8-37.1,2.1
			c6.9-9.1,21.3-8.1,33.6-10.5c23.8-4.6,53.6-11.5,81.2-12.6C248.8,423.1,255.5,422.4,257,429.6z"/>
		<path class="st0" d="M439,443.6c-8.9,0.8-25.6,0.8-36.4-2.1c-9.2-2.5-12.9-12.2,3.5-11.2C416.8,431,438.3,432.7,439,443.6z"/>
		<path class="st0" d="M61,449.2c-1.7,5.4-13.9,5.1-18.9,2.8C41.3,442.6,59.1,442.1,61,449.2z"/>
		<path class="st0" d="M78.5,449.9c1.1-6.8,7-4.7,14-4.9c7-0.3,23.2-2.8,23.8,2.1c0.5,4-13,4.7-15.4,4.9
			C91.7,452.6,82.7,452.7,78.5,449.9z"/>
		<path class="st0" d="M471.9,474.4c-15.3,4.2-32-1.7-48.3-4.2c-31.2-4.8-65.6-9.5-101.5-11.9c-18.2-1.2-36.7-0.1-53.9-2.1
			c-5.8-0.7-11.3-3.5-17.5-2.8c-3.5,0.4-6.9,2.7-10.5,3.5c-10.7,2.2-27.9,2.9-35-1.4c5.3-9.4,18.3-9.5,30.1-8.4
			c7.6,0.7,12.7,4.8,20.3,3.5c3.5-0.6,7-4.2,10.5-4.9c7.2-1.4,21.2-1.1,30.1-0.7c23.9,1.1,53.6,5,77.7,7c31.2,2.6,62,5.6,87.5,12.6
			C466.4,466,471.8,468.8,471.9,474.4z"/>
		<path class="st0" d="M77.1,464.6c-6.4,4.3-21.6,6.6-30.1,4.2C44.5,458.9,75.3,456.2,77.1,464.6z"/>
		<path class="st0" d="M443.2,494.7c-13.4,4.9-29.3-0.5-44.8-2.8c-15.3-2.3-31.9-2.6-46.9-5.6c-3.5-0.7-6.9-3.2-10.5-3.5
			c-3.2-0.3-6.4,1.3-9.8,1.4c-10.8,0.3-23.9-2-36.4-2.8c-24.1-1.6-50.1-1.4-76.3-1.4c-19.9,0-38.3,3.6-53.9-2.1
			c23.5-11.5,53.9-7.4,86.1-8.4c8.7-0.3,17.4-0.4,25.9,0c25.5,1.2,48.4,0.1,63,7.7c18-4.4,41.7,1.1,64.4,4.2
			C419.5,483.5,438.6,483.3,443.2,494.7z"/>
		<path class="st0" d="M88.3,480c-1,7.2-11.6,5.8-18.9,7c-7,1.1-16.4,5.6-20.3,0c0.6-8.7,15.2-8.7,24.5-9.8
			C79.5,476.5,85.9,475.3,88.3,480z"/>
		<path class="st0" d="M209.4,496.8c-2.2,4.3-5.9,4.5-9.1,4.9c-15.1,2-35.1-0.1-53.9,0.7c-15.2,0.7-30.9,2.1-44.1,2.1
			c-4,0-7.9-1.1-11.9-0.7c-10.6,1.1-20.9,6-30.8,7c-5.5,0.6-11-0.4-16.1,0.7c0.1-3.9,4.9-3.9,7.7-5.6c6.9-4.2,15.1-9.1,28-9.1
			c3.1,0,6.7,1.6,9.8,1.4c4.1-0.2,8.2-3.6,12.6-4.2c22.7-3.3,53.5-2.2,76.3-2.8C190.1,490.9,202.1,490.3,209.4,496.8z"/>
		<path class="st0" d="M423.6,519.2c-11.4,4.2-24.2-0.3-36.4-2.1c-12.2-1.8-25.2-2.4-37.1-4.9c-4.9-1.1-9-3.9-16.1-4.2
			c-13.4-0.5-29,0.5-42.7-2.8c-3.6-0.8-6.8-3.3-10.5-4.2c-22.4-5.4-42.9,8.7-63-2.8c10.6-16,37.1,0.6,56.7,1.4
			c6.4,0.3,10.3-4.1,16.1-4.9c2.6-0.4,6.7,1.1,10.5,1.4c7.2,0.6,16.2,0.1,21.7,1.4c4.1,1,6.9,3.7,10.5,4.2c6.7,0.9,13.9-1.1,21-0.7
			c9.4,0.6,20.5,2.5,30.8,4.2C402.9,508.2,418.5,507.7,423.6,519.2z"/>
		<path class="st0" d="M253.5,522c-6.2,7-31.1,3.6-37.8-2.1C216.7,509.7,251.3,514,253.5,522z"/>
		<path class="st0" d="M57.5,529.7c-0.2-8.8,24.2-13.5,32.9-13.3c4.3,0.1,8.1,1.5,8.4,4.2c0.7,6.4-14.3,6.7-19.6,7.7
			C70.4,529.9,63.3,533.6,57.5,529.7z"/>
		<path class="st0" d="M428.5,547.2c-13.4,4.9-32.2-0.6-48.3-3.5c-12.1-2.2-25.6-3-31.5-10.5c1.5-2.2,3.4-4.9,6.3-4.9
			c13.3,0.1,42.1,6.7,58.1,9.1C418.2,538.2,423.6,547.6,428.5,547.2z"/>
		<path class="st0" d="M86.9,539.5c3.7-0.2,7.5-1.7,8.4,2.8c1.4,7-30.8,14.3-32.9,7.7C60,542.7,81.8,539.8,86.9,539.5z"/>
		<path class="st0" d="M303.9,554.9c-4.6,3.7-9.1-0.2-9.1-3.5C294.9,545.2,304.6,546.8,303.9,554.9z"/>
		<path class="st0" d="M514.6,561.2c11.9-2.9,15.2,9.4,4.2,10.5c-3.1,0.3-5.6-2-9.8-2.8c-8.8-1.6-18.2-0.4-18.9-6.3
			C488.8,552.5,508.6,556.5,514.6,561.2z"/>
		<path class="st0" d="M384.4,569.6c-5.3,3.3-13.1,0.8-13.3-4.2C370.8,557.1,386.5,557.8,384.4,569.6z"/>
		<path class="st0" d="M431.3,573.8c2.7-1,12.1-0.5,14,2.8c8.1,13.8-17.6,12.1-18.9,3.5C425.9,576.6,428.1,575,431.3,573.8z"/>
		<path class="st0" d="M469.8,594.1c1.1-8.5,22.4-10.8,23.1-2.8C493.5,598.6,473.4,601.1,469.8,594.1z"/>
		<path class="st0" d="M452.3,523.4c7.1-3.2,16.3,3.2,24.5,3.5C469.7,527.5,459.5,525.1,452.3,523.4z"/>
	</g>
</g>
</svg>
