<?xml version="1.0" encoding="utf-8"?>
<!-- Generator: Adobe Illustrator 15.0.0, SVG Export Plug-In . SVG Version: 6.00 Build 0)  -->
<!DOCTYPE svg PUBLIC "-//W3C//DTD SVG 1.1//EN" "http://www.w3.org/Graphics/SVG/1.1/DTD/svg11.dtd">
<svg version="1.1" id="Layer_1" xmlns="http://www.w3.org/2000/svg" xmlns:xlink="http://www.w3.org/1999/xlink" x="0px" y="0px"
	 width="612px" height="792px" viewBox="0 0 612 792" style="enable-background:new 0 0 612 792;" xml:space="preserve">
<style type="text/css">
<![CDATA[
	.st0{fill-rule:evenodd;clip-rule:evenodd;}
]]>
</style>
<g>
	<g>
		<path class="st0" d="M302.2,92.8c2.2,3.8-3.3,10.5-5.7,13.9C295,101.1,300,96.7,302.2,92.8z"/>
		<path class="st0" d="M564.3,371.9c-5.2-4.1-5-11.5-5.7-17c-5.6-45.8-16.6-86.6-29-127.3c-3.4-11.2-8-22.2-11.3-33.4
			c-3.6-11.8-5.7-23.6-10.1-34.6c-8.6-21.9-18.1-44.4-25.8-65.5c0.2-0.7,1.1-1.6,1.3-0.6c7.5,9.3,15.2,25.4,20.8,37.8
			c6,13.1,9.5,27.9,15.8,40.3c1.9,3.8,6.1,6.7,8.2,10.7c6.2,12.1,10,29.3,14.5,44.7c8.8,30.6,17.3,61,22.7,95.1
			C568.1,338.3,573.2,358.4,564.3,371.9z"/>
		<path class="st0" d="M331.2,125.5c0.6,0,0.5,0.8,0.6,1.3c-4.4,27.9-17.1,55.1-22.7,85.7c-3.2,17.5-6.3,34.6-11.3,51.7
			c-3.8,12.8-10.8,25.1-11.3,37.8c-0.1,3.1,1.4,6.4,1.3,9.4c-0.3,4.6-2.9,11-4.4,17c-3.9,16.2-6.3,37-11.3,52.9
			c-1.8,5.8-5.2,10.3-6.3,15.8c-0.8,4.3-0.2,8.8-1.3,13.2c-2.6,10.8-8.6,20.5-10.1,30.9c-0.9,6.3,0.1,12.5-1.3,18.3
			c-0.7,2.9-4.3,6.8-4.4,10.1c-0.1,2.7,2.4,6.7,3.1,10.1c1.3,5.8,2.6,11.9,1.9,19.5c-0.7,7.6-4.7,14.5-6.3,22
			c-2.1,10.2,2.4,23.1-6.3,30.2c-5-8.5-1.7-20.3-2.5-30.9c-0.5-6.7-3-13.1-3.1-18.9c-0.4-13,4.8-22,7.6-32.8
			c1.6-6.2,1.6-13.4,3.1-20.2c1.4-6.2,3.9-12.5,4.4-18.3c0.7-7.6-0.9-14.2,0-20.8c0.8-5.8,3.9-11.1,5-17c2.5-12.5,2.3-25.4,5-37.8
			c7.7-34.4,18-66,26.5-100.8c5.4-22.1,13.8-43.7,20.2-64.9C314.2,166.1,322.8,145.2,331.2,125.5z"/>
		<path class="st0" d="M182.5,133.1c1.1-0.2,1.3,0.6,0.6,0.6c-2.9,4.9-4.7,10.8-10.1,13.2C175.4,141.5,179.2,137.6,182.5,133.1z"/>
		<path class="st0" d="M235.4,134.4c1.1-0.2,1.2,0.5,1.3,1.3c-18.9,37.3-41,74.4-59.2,114.7c-2.4,5.3-6.5,10.8-6.9,14.5
			c-0.5,3.6,1.6,6.4,1.3,9.4c-0.6,5.4-5.9,12.4-9.5,19.5c-3.4,6.7-5.3,15.2-8.8,20.2c-2,2.8-7,5-8.8,7.6c-4.1,5.7-5.9,15.2-8.8,22.7
			c-3,7.7-8.4,15.2-9.4,22c-0.4,2.7,0.9,5.9,0.6,8.8c-0.7,7.5-5.8,16.1-8.8,24.6c-3.1,8.6-5,18.3-8.2,25.2
			c-1.7,3.6-5.6,6.1-6.9,10.1c-2.2,6.7-0.4,12.4-0.6,19.5c-0.3,9.2-3.6,18.6-4.4,28.4c-0.8,10-0.6,20.8,0,31.5
			c0.6,10.9,6.4,21.7-1.3,31.5c-5.9-2.4-7.4-8.8-8.8-15.1c-1.3-6.2-3.8-13.4-4.4-19.5c-2.5-27,3.2-55.1,10.1-74.3
			c1.1-3,3.1-5.5,3.8-8.2c0.7-3,0-6.5,0.6-9.5c1.8-8,5.3-16.6,7.6-24.6c6.8-24,18.3-40,27.7-62.4c2-4.7,5-9.4,6.3-13.9
			c0.9-3.2,0.3-6.8,1.3-10.1c4.1-15.1,16.1-33.8,23.9-47.3c19.5-33.2,37.5-72.5,57.3-106.5C226.4,147.3,232,142.6,235.4,134.4z"/>
		<path class="st0" d="M281.4,134.4c-4.3,19.6-14.2,34.8-20.8,54.8c-5.2,15.8-13.8,32.3-20.2,49.1c-2.8,7.4-5.8,16.4-9.4,25.2
			c-3.2,7.7-9.2,17.6-10.1,23.9c-0.5,3.4,1.1,7.4,0.6,11.3c-0.8,6.9-5.7,15.5-8.8,23.9c-3,8.2-5.2,17.7-8.2,24.6
			c-1.9,4.4-6.3,7.2-8.2,11.3c-2.6,5.7-3.7,13.8-5.7,20.8c-1.9,6.8-6.1,13.2-6.9,18.9c-0.5,3.5,0.5,7.1,0,10.7
			c-1.8,13.8-7.9,28.9-11.3,43.5c-1.7,7.4-3.9,15.3-5,22.7c-1.3,8.5-0.7,17.2-2.5,24.6c-1,3.9-5,8.4-5,12.6c-0.1,6.3,5.5,12.4,5,22
			c-0.2,4.2-2.2,8.9-1.9,12.6c0.4,4.3,3.6,7.4,5,11.3c2.6,7.3,3.4,17.6,6.3,27.7c2.5,8.7,7.7,18,8.2,25.8c0.2,3.2-1.5,6.3-1.3,9.5
			c0.9,13.1,14.3,23.4,12.6,37.2c-6.8-2.2-7.8-9.8-10.1-15.1c-2.5-5.8-4.1-12.4-6.9-18.3c-2.2-4.6-6.5-8.4-8.8-13.2
			c-3.4-7.1-6.2-16.4-8.8-25.2c-2.6-8.7-5.9-18.6-6.9-27.1c-0.5-4.1,0-8.3-0.6-12.6c-1-6.4-4-12.7-3.8-21.4
			c0.1-4.5,1.6-8.2,1.9-12.6c0.3-4.7-1.1-9-1.3-13.9c-0.5-14.8,4.4-33.5,8.2-49.1c3.9-16.1,7.1-32,12-45.4
			c6.7-18.7,14.9-36.6,19.5-55.4c2.2-8.9,6.1-18.7,9.5-27.7c3.5-9.5,6.3-19.5,10.1-27.1c1.7-3.4,5.2-6,6.9-9.5
			c5.7-11.3,9-24.5,13.9-36.5c12.1-30.1,26.2-57.1,38.4-87.6C270.6,151.7,277.9,144.7,281.4,134.4z"/>
		<path class="st0" d="M304.1,138.1c0.6,0.3,1.1,0.6,1.3,1.3c-4,13.9-7.6,31.5-17,37.8C291.7,162.2,297.5,149.8,304.1,138.1z"/>
		<path class="st0" d="M344.4,163.3c-2.8,30.9-10.8,71.6-17,105.2c-2.2,11.9-6.7,23.8-6.3,34c0.1,3.4,2.3,6.5,2.5,10.1
			c0.4,6.3-2.7,14.5-3.8,22.7c-1.9,14.7-2.4,31.4-5.7,46.6c-1.6,7.4-4.2,14.4-5,20.8c-1.5,11.1,3.6,28.3-12,27.7
			c-4.6-5.5-0.6-11.4,0-17.6c2.2-22.1-0.6-41.3,3.1-62.4c3.9-21.8,7.3-45.2,12.6-64.9c1-3.6,2.9-7.1,3.8-10.7
			c1.9-8.1,1.6-17.1,3.2-25.2c4-21.5,9.5-38.6,15.1-59.9C337.4,180.4,341,171.6,344.4,163.3z"/>
		<path class="st0" d="M368.4,165.9c-0.6,33.3-5.4,72.2-9.5,107.7c-1,9.2-3.3,18.4-2.5,25.8c0.4,4.1,3.4,8.2,3.8,12.6
			c0.9,10.7-1.6,24.9-2.5,38.4c-0.9,13.6,0.6,28.1-1.3,39.1c-0.7,4.2-4.3,7.5-5,11.3c-1.2,6.6,0,16.6,0,25.8c0,8.9-1,18.8,0,25.8
			c0.5,3.7,2.7,6.7,3.1,10.1c1.5,11-1.8,24.1-2.5,36.5c-1.8,30.4-3.6,61.2-8.8,88.2c-1,5.3-1.2,11.6-2.5,16.4
			c-1.2,4.3-6.4,7.3-8.2,12c-3,7.8-1.2,20.2-10.7,22.7c-4.4-7.5,1.2-14.3,1.9-21.4c0.4-4.1-0.9-8.4-0.6-12.6c1-19.2,6.4-38.2,9.5-58
			c1.5-9.7,1.3-20.3,2.5-30.9c1.2-10.3,2.6-21.3,1.9-31.5c-0.9-11.5-2-26.1-1.3-41c0.4-8.7,2.6-17.7,3.1-26.5
			c1.1-17.2,0.4-35,1.9-52.9c1.4-17.3,1-35.4,3.8-52.3c0.6-3.7,3-6.8,3.8-10.7c2.2-11.8,1.1-24.2,1.9-35.9
			c1.5-23.5,7-46.7,11.3-67.4C363.8,186,364.5,174.3,368.4,165.9z"/>
		<path class="st0" d="M160.5,167.1c0.1,3.9-3.2,4.4-4.4,6.9C154.5,171.7,158.3,165.8,160.5,167.1z"/>
		<path class="st0" d="M130.9,173.4c5.7,8.4-9.1,11.6-8.8,20.8c0.9,1.6,5.3-0.3,6.3,1.3c1,8.1-4.7,13.9-8.2,19.5
			c-6.9,11-12.7,22.9-18.9,35.3c-2.5,5.1-3.9,13.6-11.3,14.5c-3.7-9,3.5-14.9,6.9-21.4c3-5.7,9.4-14.8,9.5-20.8c0-2.3-2-4.7-1.9-6.9
			c0.2-3.3,3.5-5.8,5.7-9.5c2.5-4.2,5-10.1,8.8-15.8c4.5-6.8,6.8-13.8,10.7-17C130,173.4,130.4,173.4,130.9,173.4z"/>
		<path class="st0" d="M464.8,182.2c8.9,16.2,9,38.5,17.6,58c1.7,3.9,5.9,6.3,7.6,10.1c2.3,5.1,4.8,14.8,5,20.2
			c0.1,3.5-1.4,7.2-1.3,10.7c0.2,5.7,3.2,12.9,5,20.2c1.8,6.8,2.8,14.4,5,19.5c1.5,3.4,5,5.7,6.3,8.8c1.4,3.2,1.4,8.3,2.5,12.6
			c2.2,8.2,6.6,16,6.3,22.7c-0.2,3.8-2.9,7.3-3.2,10.7c-0.4,5.5,3,22.2,5,27.7c1.5,4.1,5.4,7,5.7,11.3c0.3,6-3.7,9.1-3.8,14.5
			c0,4,2.7,8.2,3.2,11.3c2.3,16.1-2.1,31-5,45.4c-2,9.7-3.9,20.4-7.6,27.7c-2.8,5.7-8.3,8.6-10.1,15.1c-0.8,3.1-0.6,6.5-1.3,9.4
			c-2.4,9.9-9.6,17.9-14.5,27.1c-4.8,9.1-9.5,17.8-14.5,26.5c7.7-6.8,13.4-16.5,19.5-25.8c16.8-25.5,31.6-53.3,40.9-88.2
			c1.9-7,6-13.3,7.6-19.5c1.6-6.6,1.6-14.7,2.5-22c0.9-7.3,2.8-16.1,1.9-22.7c-0.5-3.4-3.4-6-4.4-9.5c-2.2-7.6-2.5-18-3.8-27.7
			c-1.2-8.9-4.3-18.1-5-26.5c-0.4-4.2,0.6-8.4,0-12.6c-0.6-3.9-3.2-6.9-4.4-10.7c-2.4-7.6-4.5-17.3-6.9-26.5
			c-4.6-17.4-6.9-34-9.5-54.2c7.4,12.2,12,26.4,16.4,40.9c4.5,15,5.9,31.6,11.3,46c1.3,3.5,4.8,6.3,6.3,10.1
			c2.7,7,3.4,17.7,4.4,27.1c1.1,10,3.1,20.6,1.9,29c-0.6,4.3-4.5,8.7-5,13.2c-0.9,7.2,1.8,17.4,1.3,27.1c-0.4,6.7-2.3,13.3-1.9,18.9
			c0.3,3.3,1.9,6.7,1.9,10.1c0,7.4-5.1,16.1-8.2,23.9c-15.3,38.6-35.8,71.4-59.2,101.4c-4.7,6-8.5,13.1-13.2,18.9
			c-4.7,5.9-9.8,12.7-17,15.1c-0.1-5.4,3.2-7.3,4.4-11.3c-3.5-2.5-6.5,4.4-8.8,3.2c4.4-17.1,15.4-29.9,23.9-44.7
			c6.8-11.8,12.1-25.1,18.3-35.3c2.5-4.2,6.8-7.4,8.8-12c2.3-5.2,2.4-12.2,4.4-18.9c1.8-6,4.4-11.7,5.7-17.6
			c3-13.5,3.5-28.1,4.4-42.2c0.3-4.7,2-9.8,1.9-14.5c-0.1-4.3-2.1-8.4-2.5-12.6c-0.4-4.4,0.8-8.6,0.6-12.6
			c-0.3-8.9-1.7-18.9-4.4-27.7c-0.9-2.9-3.3-5.6-4.4-8.8c-1.6-4.8-1.9-12-3.1-18.3c-1.7-8.9-2.8-14.2-3.8-24.6
			c-1.1-11-5.9-21.6-8.2-32.8c-0.7-3.5-0.4-7.2-1.3-10.7c-2.6-9.9-7.5-18.7-8.8-28.4c-0.4-3.4,0.3-6.7,0-10.1
			C475.6,225.6,466.8,204,464.8,182.2z"/>
		<path class="st0" d="M440.8,187.9c6.8,15.3,5.6,31.6,10.1,48.5c2.7,10,7.1,20.9,10.7,32.8c3.5,11.5,6.9,26,6.9,35.9
			c0,11.2-1.1,24.9,3.2,35.9c1.2,3,4.2,5.7,5.7,8.8c4.3,9.6,4.8,21.7,6.9,33.4c2.1,11.7,3.7,24.1,3.8,35.9c-6,12.2-14,9.8-16.4-5.7
			c-1-6.3-1.6-14.1-2.5-19.5c-2.8-17.1-5.3-30.1-6.9-48.5c-1.6-18.8-7.5-31.2-10.7-50.4c-0.9-5.2-2.9-10.6-3.2-15.8
			c-0.1-3.1,1.2-6.1,1.3-9.4c0.1-12.3-3.5-26.4-5-39.7C442.9,215.9,439.9,202.4,440.8,187.9z"/>
		<path class="st0" d="M416.9,207.4c11.7,20.5,2.8,50,8.8,73.1c0.7,2.8,4,5.9,4.4,8.8c0.3,2.4-1.5,5.4-1.3,8.2
			c0.3,2.9,3.4,5.6,3.8,8.8c0.3,2.9-1.2,6.5-1.3,9.5c-0.1,5.8,1.6,13,1.9,19.5c0.1,3.1-1,6.4-0.6,8.8c0.7,4.1,5.4,7.4,6.3,10.1
			c1.8,5.2,1.3,13.6,2.5,21.4c1.7,11.4,1.7,19.6,1.3,30.2c-0.3,6.2,0,13,0.6,18.9c0.8,7.5,1.7,15.6,3.2,23.3c0.6,3,2.7,6.2,3.1,9.5
			c1.6,10.6,0.5,24.8-0.6,37.2c-1,11.4-2.4,24.7-5,32.1c-1.3,3.7-5.5,6.5-6.3,10.1c-0.8,3.6,0.6,7.4,0,11.3
			c-0.9,5.9-4.7,12.6-6.9,18.9c-2.2,6.2-5.2,12.1-7.6,17.6c-5.3,12.3-9.4,25.5-15.8,35.3c-2.7,4.2-6.8,7.5-9.4,12
			c-2.8,4.6-6.7,8.2-8.8,12.6c-2.5,5.2-3.2,10.8-6.3,15.8c-2.9,4.7-6.1,8.6-8.2,13.9c2.7-17.2,13.2-30.6,17.6-46.6
			c0.8-3,0.4-6.5,1.3-9.4c1.9-6.5,6-13,8.8-19.5c6.9-16.3,11.5-33.1,18.3-51c2.9-7.5,4.5-13.5,6.3-24.6c2.2-13.3,4.4-30.4,4.4-46.6
			c0-22.1,2.3-44.9-1.3-65.5c-0.6-3.4-2.6-6.9-3.2-10.1c-4.4-23.6-1.9-48-5-71.8c-0.7-5.7-3.1-11.3-3.8-17
			c-0.4-3.2,0.9-6.6,0.6-10.1c-0.2-2.8-1.7-5.7-1.9-8.2c-0.9-11.3,0-26.6-0.6-41C415.5,236.7,413,215.9,416.9,207.4z"/>
		<path class="st0" d="M139,230.8c0.5-0.1,0.6,0.2,0.6,0.6c1.2,13.9-5.5,20-11.3,30.2c-7.9,13.7-13.8,27.2-20.2,41.6
			c-2.8,6.3-4.7,16.7-13.9,17c-3.1-7.9,1.7-16.3,5-23.3c6.9-14.2,12.8-26.6,20.8-41C126,245.5,128.3,234.9,139,230.8z"/>
		<path class="st0" d="M207.1,239.6c-1.3,5.2-1.8,11.2-6.3,13.2C199.3,247.2,202.5,241.1,207.1,239.6z"/>
		<path class="st0" d="M150.4,250.3c4.8,7.6-1.8,16-5,22.7c-6.8,14.1-14.2,27.2-20.8,42.2c-2.8,6.4-4.3,17.4-13.9,15.8
			c-3.1-11.3,5.3-23.2,10.7-34c5.4-10.7,11.9-21.7,16.4-31.5c2.2-4.9,2.2-11.2,6.3-13.9C144.9,249.8,148,250.4,150.4,250.3z"/>
		<path class="st0" d="M195.1,266.7c-2.7,17.4-11.6,32.2-17.6,47.3c-3.2,7.9-5.4,16.1-8.8,23.9c-4.8,11.1-12,20.7-15.8,34
			c7,11.6-0.8,21-5,34.6c-2.6,8.2-4.3,18.8-7.6,24.6c-2,3.5-7.1,5.5-8.8,8.2c-3.6,5.5-2.9,17.3-4.4,26.5c-0.8,4.7-2.8,9.9-2.5,13.9
			c0.5,6.4,6.1,11.1,3.1,20.2c-1.1,3.5-5.4,5.3-5.7,9.5c-0.3,4,4.9,7.3,5,11.3c0.1,3.3-3.8,7-3.8,10.1c0,5.9,7.3,9.5,7.6,15.1
			c0.3,7.2-5.5,11-1.9,19.5c1.6,3.8,7.2,5.8,9.4,9.4c4.3,7,5.8,13.4,1.9,22.7c-6.9-2.9-14-11.4-14.5-22.7c-0.1-2.6,1.5-5.5,1.3-8.2
			c-0.7-8.9-8.7-14.7-10.1-21.4c-0.9-4.6,0.6-9.8,0-14.5c-0.5-3.6-2.9-7.1-3.1-10.1c-0.3-4.4,2-8.6,1.9-12.6c-0.2-6.1-3.1-11-2.5-17
			c0.5-4.9,2.7-10.4,3.8-15.8c1.1-5.4,1.6-11.9,3.1-16.4c2.3-6.6,7.7-11.3,8.2-18.9c0.2-3.7-1.4-7.8-1.3-11.3
			c0.2-7.8,4.5-18,7.6-26.5c4.7-12.9,6.8-24.8,15.8-30.9c13.6-35.8,23.1-75.6,43.5-104.6C194.3,266.7,194.7,266.7,195.1,266.7z"/>
		<path class="st0" d="M195.8,486.5c-3.3-7.3,0-15.7,1.3-23.9c1.2-7.8,1.5-16.7,3.8-24.6c1-3.3,3.7-6.6,4.4-10.1
			c2.1-9.5,4.1-19.9,6.9-30.2c3.8-13.9,7.1-21.3,8.8-35.9c1.6-13.4,9.5-30.8,13.9-44.7c2.4-7.8,3.4-20.2,11.3-20.2
			c3.1,0,6.4,4,6.9,7.6c0.8,6-5.4,19.2-8.2,29c-3,10.3-4.2,21.6-8.2,29c-1.5,2.7-6.3,5.9-7.6,8.8c-1.9,4.3-1.1,10-1.9,17.6
			c-0.7,7.1-3.9,14.7-6.3,21.4c-2.5,7.2-6.5,15.5-6.9,20.8c-0.2,2.4,1.4,4.6,1.3,8.2c-0.1,4.1-2.7,11.6-4.4,18.3
			c-1.7,6.7-4.3,13.4-5,17C203.8,484.1,206.4,488.2,195.8,486.5z"/>
		<path class="st0" d="M395.5,300.7c2.6,9-1.8,15.7-8.8,17C375.8,312.8,384.6,288.7,395.5,300.7z"/>
		<path class="st0" d="M387.3,368.7c0.8,0,1.7,0,2.5,0c0.8,2.4,1.5,8.2-1.9,8.2C386.7,375,386.1,371.2,387.3,368.7z"/>
		<path class="st0" d="M67.9,385.1c0.9,9.3-2.2,20.4-5,29.6c-2,6.3-5.4,13.2-5.7,18.9c-0.2,3.8,1.8,7.2,1.9,11.3
			c0.1,2.5-1,4.8-1.3,7.6c-2.3,25.6-1.7,56,7.6,75c4.1-10-4.2-21.8-2.5-35.3c0.6-4.8,3-9.7,3.2-14.5c0.3-8.6-2.6-17.4-1.3-24.6
			c0.8-4.3,6-7.4,6.9-11.3c0.5,9.7,0.1,18.5-0.6,30.2c-0.3,5.3-2,10.5-1.3,14.5c0.5,2.8,3.1,4.9,3.8,6.9c2.7,8.6-1.1,17.1,0,25.8
			c0.5,4,3.7,7.1,5,10.7c1.5,4,1.4,8.5,2.5,12.6c10.1,37,30,68.9,48.5,100.2c9.5,16,21.1,29.3,31.5,44.7c2.9,4.3,10.1,9.3,6.3,16.4
			c-9.3-0.1-11.1-11.8-17.6-17c-1.9-1.6-5-1.7-6.9-3.2c-5.8-4.4-10.9-13.8-12.6-22c-6.9-3.4-9.9-9.7-15.1-17
			c-3.2-4.5-7.6-8.6-8.2-12.6c-0.3-2.2,2-4.1,1.9-6.3c-0.3-7.6-9.4-12.2-11.3-19.5c-2.9-0.3-4,1.2-6.3,0
			c-10.4-14.6-18.5-32.1-28.4-51c-4.1-7.8-9.8-15.6-12.6-26.5c-2-7.6-7.8-23.3-6.9-32.1c0.3-3.1,3.3-5.4,3.8-8.8
			c0.7-5.1-1.2-9.3-1.3-14.5c-1.1-3.8-4.5-1.9-6.3-5.7c-3-6.3,0.1-17.1,1.9-22c4-0.4,2.4,4.7,5.7,5c0.5-5.6,6.2-11.2,7.6-17
			c2.2-9.4,0.1-19.8,3.2-28.4C60.6,397.2,65.6,392.1,67.9,385.1z"/>
		<path class="st0" d="M390.4,416.6c-0.5-0.3-1-0.7-1.9-0.6C383.2,406.3,398.8,409.3,390.4,416.6z"/>
		<path class="st0" d="M392.3,431.7c2.8,2.5,2.1,8.7-1.3,10.1C387.5,440.5,386.2,431.2,392.3,431.7z"/>
		<path class="st0" d="M481.1,445c1.8,4.1,5.8,5.9,6.3,10.1c0.3,2.8-2.3,6.4-2.5,9.4c-0.3,3.7,0.8,8.2,0.6,12.6
			c-0.2,5.2-1.4,10.3-1.3,15.1c0.1,4.8,1.9,9.5,1.9,13.9c-0.1,7-4.5,15.4-7.6,23.9c-5.8,16.4-11.8,29.2-18.9,44.1
			c-5.9,12.4-9.4,20.2-18.9,27.1c-2.3,1.7-5.1,5.1-6.9,4.4c0.3-13.7,7.4-22.4,12.6-33.4c10.4-22.1,19.2-46.1,27.1-71.8
			c4.7-15.2,3.2-36.5,6.9-53.5C480.3,445.8,481.1,445.8,481.1,445z"/>
		<path class="st0" d="M393.6,463.9c2.8,4.2,4.3,24.2-2.5,23.3C386.3,486.5,384.7,463.5,393.6,463.9z"/>
		<path class="st0" d="M391,508.6c5.2,6.8,1.3,18.7,2.5,27.7c0.4,3.2,2.4,6.3,2.5,8.8c0.5,9-6.2,28.2-8.8,36.5
			c-9.5,30-17.1,56.2-29,83.8c-2,4.6-4,11.7-11.3,10.7c-1.7-21.4,8.1-43,14.5-64.9c3.1-10.6,6-21.3,8.8-32.1
			c4.6-17.6,8.6-33.9,13.2-50.4c2-7,2.7-16.2,6.9-20.8C391,507.8,391,508.2,391,508.6z"/>
		<path class="st0" d="M227.9,671.8c-6.9,0.4-9.2-7-11.3-12.6c-2.1-5.4-4.6-11.5-6.3-17c-3.5-11.1-8.7-24.6-10.1-36.5
			c-0.3-2.6,0.4-5.5,0-8.2c-0.6-4.1-3.7-7.5-5-12c-2.7-8.9-2.5-19.3-2.5-30.2c0-13.4-3.8-27.9,1.9-36.5c1-0.2,1.1,0.6,1.9,0.6
			c6.6,10.9,2.9,22.9,5.7,34c1.1,4.4,5.6,7.4,6.9,11.3c1.7,5.3,2.8,14.1,2.5,20.2c-0.1,2.7-2.2,6-1.9,9.5c0.4,4.1,4.7,6.4,6.3,10.1
			c4.2,9.3,5.1,22.1,8.2,33.4C227.1,648.8,232.1,661,227.9,671.8z"/>
		<path class="st0" d="M295.9,530.6c3.8,6.7,3.6,25.3-8.8,19.5C284.5,543,285.7,527,295.9,530.6z"/>
		<path class="st0" d="M240.5,557.1c3.9-0.3,4.7,2.4,6.3,4.4c-2.5,6.9,0.5,10.4,1.3,17c-1.4,1.5-3,2.9-6.3,2.5
			C239.7,574.9,239.9,563.8,240.5,557.1z"/>
		<path class="st0" d="M296.5,567.2c-0.9,5.2-4.8,7.4-10.7,7.6C276.1,568.7,291.1,559.6,296.5,567.2z"/>
		<path class="st0" d="M287.1,579.1c3.7-0.7,10.4,2.1,10.1,7.6c-0.3,4.9-6.6,7.4-10.7,6.3C279.8,591.3,279.3,580.7,287.1,579.1z"/>
		<path class="st0" d="M140.3,642.8c-7,0.1-22.2-23.7-15.8-29C134.5,618,142.4,630.6,140.3,642.8z"/>
		<path class="st0" d="M146.6,614.4c6.1,3.7,6.3,11.7,10.7,17c2.2,2.7,6.5,4.7,8.8,8.2c2.8,4.2,4.7,10.3,7.6,15.8
			c5.2,9.7,9.7,19.8,15.8,30.2c3.1,5.4,7.2,10,8.2,14.5c1.2,5.4-0.4,9.6,2.5,13.9c-13.3-10.6-19.3-24.5-29.6-42.2
			c-8.1-13.9-13.7-25-18.9-40.3C149.9,626.2,146.3,622.1,146.6,614.4z"/>
		<path class="st0" d="M248.7,632.1c3.3,2.8,4.2,7.9,4.4,13.9C247.5,645.4,248.9,637.9,248.7,632.1z"/>
		<path class="st0" d="M287.7,689.4c12-4,11.2,31.8,1.3,30.9C282.3,719.6,280.5,691.8,287.7,689.4z"/>
		<path class="st0" d="M284,189.2c1.8-1.6-1.3,3.9-1.9,5.7c-2.6,8-4,18.9-8.2,24.6C273.1,207.7,281.1,199.4,284,189.2z"/>
		<path class="st0" d="M146,188.5c-0.4,9.6-10.4,14.9-13.2,23.3c-1.1,3.3-0.8,7.1-1.9,10.7c-3.3,11.1-12,21-17.6,32.1
			c-2.8,5.6-5.1,11.2-8.2,16.4c-3,5-7.2,9.5-10.1,14.5c-5,8.9-7.3,20.7-11.3,31.5c-3.7,10.1-8.7,19.9-12.6,29.6
			c-8.8,21.8-14.2,44.1-18.3,66.2c-1.8,10-3.4,20.8-10.7,29c-4.4-8.6-4.3-17.8-2.5-25.8c0.7-3.1,2.9-5.7,3.8-8.8
			c0.9-3,0.4-6.2,1.3-9.4c2.1-8.3,6-16.2,8.2-25.2C57.1,355,64,339.9,70.4,324c3.2-7.9,6.1-16.6,9.5-23.3
			c2.8-5.7,7.3-10.4,10.1-15.8c3-5.9,3.5-12.9,6.3-18.9c3.5-7.6,9.4-16.1,13.9-24.6c4.4-8.4,9-18.2,13.9-23.9
			c3.8-4.4,7.7-6,10.7-11.3C138.2,199.8,140.2,193,146,188.5z"/>
	</g>
</g>
</svg>
