<?xml version="1.0" encoding="utf-8"?>
<!-- Generator: Adobe Illustrator 15.0.0, SVG Export Plug-In . SVG Version: 6.00 Build 0)  -->
<!DOCTYPE svg PUBLIC "-//W3C//DTD SVG 1.1//EN" "http://www.w3.org/Graphics/SVG/1.1/DTD/svg11.dtd">
<svg version="1.1" id="Layer_1" xmlns="http://www.w3.org/2000/svg" xmlns:xlink="http://www.w3.org/1999/xlink" x="0px" y="0px"
	 width="408px" height="735px" viewBox="0 0 408 735" style="enable-background:new 0 0 408 735;" xml:space="preserve">
<style type="text/css">
<![CDATA[
	.st0{fill-rule:evenodd;clip-rule:evenodd;fill:#D6B6D6;}
	.st1{fill-rule:evenodd;clip-rule:evenodd;fill:#EFE1EF;}
	.st2{fill-rule:evenodd;clip-rule:evenodd;fill:#986A8A;}
	.st3{fill-rule:evenodd;clip-rule:evenodd;fill:#FFFEFF;}
]]>
</style>
<g>
	<g>
		<path class="st3" d="M82,0c24.7,0,49.3,0,74,0c-29,7.5-44.9,16.7-56,36c-9,15.6-11.2,35.3-21,52c-6.8,11.6-16.9,20.9-25,31
			c-24.4,30.4-43,67.4-43,124c0,52.2,9.2,101.7,28,140c8.2,16.6,21.1,31,17,58c-5.5,36.5-42.9,51.4-47,91c-4.2,40.9,20.2,65.7,37,90
			c34.6,50.2,70,105.6,148,110c54.2,3.1,92.2-23.9,122-50c28.7-25.1,59.6-57.4,77-95c20.6-44.5-7.8-79.9-31-107
			c-13-15.2-29.8-29.4-27-58c2.2-22.4,19.3-43.6,26-66c13.6-45.4,22.4-105.9,10-160c-6.4-28-18-46.4-23-68c-8-34.9,2.1-65.8-9-90
			c-4.2-9.2-10.5-17.9-20-25c-7.4-5.5-19.3-9.3-28-13c22.3,0,44.7,0,67,0c20.4,30.9,5.7,72.3,13,111c2.3,12.2,9.9,23.4,14,35
			c26,72.6,14.1,180.3-9,249c-3.7,11-12.5,27-12,36c0.7,11.9,13.7,20.9,21,29c9.1,10.1,16.1,19,23,26c0,45.7,0,91.3,0,137
			c-19.5,18.7-28.1,43.4-47,62c-18.4,18.1-41.3,30.8-59,50c-65.3,0-130.7,0-196,0c-17.3-14.1-37.5-25.2-51-43
			c-9.8-12.9-16-29.3-26-43c-10.1-13.8-20.5-26.3-29-40c0-45.7,0-91.3,0-137c9.1-11.3,25.6-15.1,28-31c2.3-15.2-8.4-28.4-14-44
			c-5.7-15.9-10.4-30.4-14-44c0-67,0-134,0-201c11.2-30.1,24.1-49.1,44-69c5.6-5.6,15.2-12.1,19-19C73.1,45.6,65.9,18.7,82,0z"/>
		<path class="st1" d="M156,0c12,0,24,0,36,0c15,3.4,37.3,4.1,52,0c15.7,0,31.3,0,47,0c8.7,3.7,20.6,7.5,28,13
			c9.5,7.1,15.8,15.8,20,25c11.1,24.2,1,55.1,9,90c5,21.6,16.6,40,23,68c12.4,54.1,3.6,114.6-10,160c-6.7,22.4-23.8,43.6-26,66
			c-2.8,28.6,14,42.8,27,58c23.2,27.1,51.6,62.5,31,107c-17.4,37.6-48.3,69.9-77,95c-29.8,26.1-67.8,53.1-122,50
			c-78-4.4-113.4-59.8-148-110c-16.8-24.3-41.2-49.1-37-90c4.1-39.6,41.5-54.5,47-91c4.1-27-8.8-41.4-17-58
			c-18.8-38.3-28-87.8-28-140c0-56.6,18.6-93.6,43-124c8.1-10.1,18.2-19.4,25-31c9.8-16.7,12-36.4,21-52C111.1,16.7,127,7.5,156,0z
			 M134,36c-19.8,14.4-25.1,45.6-35,62c-14.9,24.7-32.9,39.6-45,62c-31.1,57.4-20.2,162.3,9,219c6.4,12.4,14.2,22.9,17,37
			c10.1,51-36.5,75.8-45,116c-6.2,29.6,16.6,59.7,29,78c29.1,42.7,57.7,86,116,96c30,5.2,61.8-0.4,87-15c35.3-20.5,65.2-53.6,89-88
			c11.5-16.7,22.8-36,18-60c-8.8-44.5-60.2-66.2-64-110c-2.7-31.1,17.4-53.3,26-78c15.1-43.6,22.8-111.7,10-162
			c-6.4-25.2-19.2-45.5-23-70c-5-32.2,6-59.7-12-82c-17.6-21.7-50.9-15-86-15c-16.7,0-38.7-1.1-48-1C158.6,25.2,144.9,28.1,134,36z"
			/>
		<path class="st3" d="M192,0c17.3,0,34.7,0,52,0C229.3,4.1,207,3.4,192,0z"/>
		<path class="st0" d="M152,59c-0.9,1.8-1.9,3.5-5,3c-0.5-0.8-1-1.6-1-3C147.3,57.6,150.7,57.6,152,59z"/>
		<path class="st0" d="M215,65c-2.3,0.3-3.8-0.2-5-1C210.1,61,216,61.3,215,65z"/>
		<path class="st2" d="M242,350c-8.8-6.7-21.2-6.9-30,0C212,326,246.8,321.5,242,350z"/>
		<path class="st0" d="M125,341c0.9,2,3.3,4.8,1,7c-4.1-0.3-6.8-1.9-10-3C117.4,342.1,120.2,340.5,125,341z"/>
		<path class="st2" d="M172,352c6.8-1.1,6.2,5.2,11,6c4-0.3,4.5-4.1,9-4c0.4,10.4-15.5,9.2-20,4C172,356,172,354,172,352z"/>
		<path class="st2" d="M157,379c-7.6,1.2-25.6,5.3-31-1C137.3,375.6,151.2,378.5,157,379z"/>
		<path class="st0" d="M176,429c4.9,3.1,11.8,4.2,15,9C186.8,434.2,177.5,435.5,176,429z"/>
		<path class="st0" d="M142,539c3.4,2.6,9.5,2.5,13,5c0.7,4.3,2.8,7.2,5,10c-4.2,12.3-1.9,28.9-9,41c-10.2,5-11.8-5.9-19-7
			c-3.6,0.7-0.8,7.9-4,9c-6.6,0.9-10.3-1.1-14-3c-1.1-3.1,1.6-2.4,2-4c-6.8-4.6-19.5-3.9-27-5c5.3-6.3,17.9-1,24-5
			c-3.2-6.2-6.9-11.8-13-15c-1.2-8.6-1.1-13.2-2-21c3.8-4.1,10.2-7.9,18-5C116.9,518.8,141.8,517.6,142,539z M127,550c0-1,0-2,0-3
			C120.2,542.7,120.2,554.3,127,550z M116,558c-0.5,3.1,2.1,3.2,5,3C122.1,557,117.9,556.1,116,558z M133,569c-1.5-5,3.3-10.4-1-12
			C131.8,560.7,125.2,569.2,133,569z M118,570c6.3,4.1,11-4.3,3-5C119.2,565.9,117.5,566.9,118,570z"/>
		<path class="st2" d="M127,547c0,1,0,2,0,3C120.2,554.3,120.2,542.7,127,547z"/>
		<path class="st2" d="M121,561c-2.9,0.2-5.5,0.1-5-3C117.9,556.1,122.1,557,121,561z"/>
		<path class="st2" d="M132,557c4.3,1.6-0.5,7,1,12C125.2,569.2,131.8,560.7,132,557z"/>
		<path class="st2" d="M121,565c8,0.7,3.3,9.1-3,5C117.5,566.9,119.2,565.9,121,565z"/>
		<path class="st0" d="M203,574c0,2.9-5.7,2.4-7,1C196,572.1,201.7,572.6,203,574z"/>
		<path class="st0" d="M110,592c1.3,5.6-5,3.7-9,4C101.1,591.8,106.4,592.7,110,592z"/>
		<path class="st2" d="M192,619c-0.3,3.1-2.2,4.5-3,7C178.5,624.9,183.4,611.8,192,619z"/>
		<path class="st2" d="M214,619c0.9,3.2-2.6,2.1-3,4c-1.5-0.9-3.2-1.5-3-4C209.3,617.6,212.7,617.6,214,619z"/>
		<path class="st2" d="M189,627c3.7-0.3,5.6,1.1,8,2C196.1,633.9,187.6,634.1,189,627z"/>
		<path class="st2" d="M208,630c-1.3,1.4-5.7,1.4-7,0C201,626.9,208.5,625.1,208,630z"/>
		<path class="st0" d="M205,155c2.2,2.2,3.4,5.2,5,8c-1.5,8.5-18,11-22,3C189.1,157.8,194.2,153.5,205,155z"/>
		<path class="st2" d="M290,55c6.1,14.1,5.5,44.5-1,58c-19.3,0.8-39.7-17.6-54-6c54.3,20.9,96.1,69.3,91,159
			c-1.2,20.8-6.3,43.9-12,66c-4.5,17.3-11.3,46.5-23,54c-16.5,10.6-16.9-8.6-22-19c-6.2,1.3-8.9,6.2-17,3c1.1-2.2,4.9-1.8,6-4
			c-0.8-3.9-6-3.3-8-6c4.8-4.1,8.7-5.1,4-12c3.1-0.3,4.5-2.2,7-3c0.7-4.3-5-2.3-4-7c11.9,0.3,6.7-16.6,8-27
			c-46.3-1.3-105.5-3.9-152-1c0,5.2-0.7,18.4,1,25c15.4,11.3,20.6-16.8,37-5c2.2,5.8,5.9,10.1,7,17c-3.4,2.1-13.4-9.9-24-4
			c-3.4,1.7-4.4,3.6-3,8c-4.4-0.1-8.6,0.1-10,3c4,6.3,20.5,0.1,24,7c-8.5,1.8-16.4-0.3-21,4c5.8,3.1,18-0.1,27,4
			c-9.9,5-34.1,5.2-39-4c-8.4-0.4-4.3,11.7-8,16c-12,4.8-16.3-7.5-20-17c-13.1-33.3-25-78.5-23-122c3-66.5,32.9-107.4,78-129
			c5.4,0.8,7.8-1.5,11-3c-0.9-3.1-6.3-1.7-8-4c-4.3-13.8-5-41.5,1-54c15-0.1,31.2,9.7,47,9c2.8-0.1,5.2-2.5,8-3
			c16.5-3.2,31.3,3.7,44,4C258.4,62.4,274.1,51.7,290,55z M146,59c0,1.4,0.5,2.2,1,3c3.1,0.5,4.1-1.2,5-3
			C150.7,57.6,147.3,57.6,146,59z M210,64c1.2,0.8,2.7,1.3,5,1C216,61.3,210.1,61,210,64z M188,166c4,8,20.5,5.5,22-3
			c-1.6-2.8-2.8-5.8-5-8C194.2,153.5,189.1,157.8,188,166z M116,345c3.2,1.1,5.9,2.7,10,3c2.3-2.2-0.1-5-1-7
			C120.2,340.5,117.4,342.1,116,345z"/>
		<path class="st2" d="M153,389c2.9,2.9-2.7,2.4-3,5c21.8,10.7,60.8,9.7,84,1c3.8-1,1.9-4,3-6c4.4-0.2,7.3-2,12-2
			c18.8,23.9,29.7,53.3,41,91c2.3,7.7,13.6,13.6,21,21c12.6,12.6,20.7,22.5,33,38c5,6.3,18.6,18.3,12,25c-5.3,5.4-18.9,6.9-19,13
			c-3.8-0.5-5.4-3.3-9-4c-4.8,1.2-8.1,3.9-12,6c-2.5-9.4,3.3-13.7,1-22c-2.4-8.4-14.1-12.8-13-22c-12.6-8.3-20.8,10.2-38,7
			c-3.9,4.8-8.5,14.1-8,23c0.1,1.8,2.1,4.2,2,6c-0.4,10.1-5.9,20.3,3,27c9-0.3,13.6,3.7,17,9c13.5,1,17.4-8.9,18-18
			c2.4-3.6,9.5-2.5,11-7c0.4,6.9-7.7,18.4-2,28c-4.8,5.7-11.6,13.1-8,24c-5,6.4-12.8,10.4-21,15c-7.5,4.2-13.4,9.9-21,15
			c-19.8,13.4-50,22.4-76,19c-5.6-0.7-9.8-4.5-16-7c-4.6-1.8-9.7-1.3-13-3c-4.1-2.1-8.3-9.4-15-15c-6.6-5.5-18.1-10.4-22-15
			c-4.5-5.3-9.2-21.1-6-26c-2.6-3.8-10-5.2-5-11c-4,0.3-7.4,0.1-9-2c-0.7-6.9-4.8-9.6-11-13c2.6-6.8-1.8-6-4-10c3.6-6.5,17,1.2,24-3
			c-4.4-9.5-22.9,1-31-5c-2.2-2.1-0.2-4.4,1-6c-7.9-1.5-23.1-19.3-22-29c0.7-6.6,14.7-15.9,21-21c8.2-6.6,19.7-11.7,23-19
			c3.5-7.8,3.4-19.6,6-29c4.7-17.1,11.3-33.5,19-49c5.7-11.5,10.3-18,14-30C140.6,386.3,146.9,388.3,153,389z M191,438
			c-3.2-4.8-10.1-5.9-15-9C177.5,435.5,186.8,434.2,191,438z M116,539c-7.8-2.9-14.2,0.9-18,5c0.9,7.8,0.8,12.4,2,21
			c6.1,3.2,9.8,8.8,13,15c-6.1,4-18.7-1.3-24,5c7.5,1.1,20.2,0.4,27,5c-0.4,1.6-3.1,0.9-2,4c3.7,1.9,7.4,3.9,14,3
			c3.2-1.1,0.4-8.3,4-9c7.2,1.1,8.8,12,19,7c7.1-12.1,4.8-28.7,9-41c-2.2-2.8-4.3-5.7-5-10c-3.5-2.5-9.6-2.4-13-5
			C141.8,517.6,116.9,518.8,116,539z M196,575c1.3,1.4,7,1.9,7-1C201.7,572.6,196,572.1,196,575z M181,593c-2.1,15.3-9.3,31.4-15,44
			c4,0.7,7.2,2.2,12,2c-0.3,2.7-4.2,1.8-5,4c15,4.4,42.3,5.6,51-6c0.4-3.4-0.4-5.6-1-8c3.7-2.3,9.2-2.8,12-6c-0.6-6.8-2.6-12-3-19
			c-2.9-2.1-8.3-1.7-12-3C217.6,585.7,192.4,585.7,181,593z M101,596c4-0.3,10.3,1.6,9-4C106.4,592.7,101.1,591.8,101,596z"/>
		<path class="st0" d="M177,25c9.3-0.1,31.3,1,48,1c35.1,0,68.4-6.7,86,15c18,22.3,7,49.8,12,82c3.8,24.5,16.6,44.8,23,70
			c12.8,50.3,5.1,118.4-10,162c-8.6,24.7-28.7,46.9-26,78c3.8,43.8,55.2,65.5,64,110c4.8,24-6.5,43.3-18,60
			c-23.8,34.4-53.7,67.5-89,88c-25.2,14.6-57,20.2-87,15c-58.3-10-86.9-53.3-116-96c-12.4-18.3-35.2-48.4-29-78
			c8.5-40.2,55.1-65,45-116c-2.8-14.1-10.6-24.6-17-37c-29.2-56.7-40.1-161.6-9-219c12.1-22.4,30.1-37.3,45-62
			c9.9-16.4,15.2-47.6,35-62C144.9,28.1,158.6,25.2,177,25z M242,62c-12.7-0.3-27.5-7.2-44-4c-2.8,0.5-5.2,2.9-8,3
			c-15.8,0.7-32-9.1-47-9c-6,12.5-5.3,40.2-1,54c1.7,2.3,7.1,0.9,8,4c-3.2,1.5-5.6,3.8-11,3c-45.1,21.6-75,62.5-78,129
			c-2,43.5,9.9,88.7,23,122c3.7,9.5,8,21.8,20,17c3.7-4.3-0.4-16.4,8-16c4.9,9.2,29.1,9,39,4c-9-4.1-21.2-0.9-27-4
			c4.6-4.3,12.5-2.2,21-4c-3.5-6.9-20-0.7-24-7c1.4-2.9,5.6-3.1,10-3c-1.4-4.4-0.4-6.3,3-8c10.6-5.9,20.6,6.1,24,4
			c-1.1-6.9-4.8-11.2-7-17c-16.4-11.8-21.6,16.3-37,5c-1.7-6.6-1-19.8-1-25c46.5-2.9,105.7-0.3,152,1c-1.3,10.4,3.9,27.3-8,27
			c-1,4.7,4.7,2.7,4,7c-2.5,0.8-3.9,2.7-7,3c4.7,6.9,0.8,7.9-4,12c2,2.7,7.2,2.1,8,6c-1.1,2.2-4.9,1.8-6,4c8.1,3.2,10.8-1.7,17-3
			c5.1,10.4,5.5,29.6,22,19c11.7-7.5,18.5-36.7,23-54c5.7-22.1,10.8-45.2,12-66c5.1-89.7-36.7-138.1-91-159c14.3-11.6,34.7,6.8,54,6
			c6.5-13.5,7.1-43.9,1-58C274.1,51.7,258.4,62.4,242,62z M212,350c8.8-6.9,21.2-6.7,30,0C246.8,321.5,212,326,212,350z M172,358
			c4.5,5.2,20.4,6.4,20-4c-4.5-0.1-5,3.7-9,4c-4.8-0.8-4.2-7.1-11-6C172,354,172,356,172,358z M126,378c5.4,6.3,23.4,2.2,31,1
			C151.2,378.5,137.3,375.6,126,378z M135,388c-3.7,12-8.3,18.5-14,30c-7.7,15.5-14.3,31.9-19,49c-2.6,9.4-2.5,21.2-6,29
			c-3.3,7.3-14.8,12.4-23,19c-6.3,5.1-20.3,14.4-21,21c-1.1,9.7,14.1,27.5,22,29c-1.2,1.6-3.2,3.9-1,6c8.1,6,26.6-4.5,31,5
			c-7,4.2-20.4-3.5-24,3c2.2,4,6.6,3.2,4,10c6.2,3.4,10.3,6.1,11,13c1.6,2.1,5,2.3,9,2c-5,5.8,2.4,7.2,5,11c-3.2,4.9,1.5,20.7,6,26
			c3.9,4.6,15.4,9.5,22,15c6.7,5.6,10.9,12.9,15,15c3.3,1.7,8.4,1.2,13,3c6.2,2.5,10.4,6.3,16,7c26,3.4,56.2-5.6,76-19
			c7.6-5.1,13.5-10.8,21-15c8.2-4.6,16-8.6,21-15c-3.6-10.9,3.2-18.3,8-24c-5.7-9.6,2.4-21.1,2-28c-1.5,4.5-8.6,3.4-11,7
			c-0.6,9.1-4.5,19-18,18c-3.4-5.3-8-9.3-17-9c-8.9-6.7-3.4-16.9-3-27c0.1-1.8-1.9-4.2-2-6c-0.5-8.9,4.1-18.2,8-23
			c17.2,3.2,25.4-15.3,38-7c-1.1,9.2,10.6,13.6,13,22c2.3,8.3-3.5,12.6-1,22c3.9-2.1,7.2-4.8,12-6c3.6,0.7,5.2,3.5,9,4
			c0.1-6.1,13.7-7.6,19-13c6.6-6.7-7-18.7-12-25c-12.3-15.5-20.4-25.4-33-38c-7.4-7.4-18.7-13.3-21-21c-11.3-37.7-22.2-67.1-41-91
			c-4.7,0-7.6,1.8-12,2c-1.1,2,0.8,5-3,6c-23.2,8.7-62.2,9.7-84-1c0.3-2.6,5.9-2.1,3-5C146.9,388.3,140.6,386.3,135,388z"/>
		<path class="st0" d="M220,601c3.7,1.3,9.1,0.9,12,3c0.4,7,2.4,12.2,3,19c-2.8,3.2-8.3,3.7-12,6c0.6,2.4,1.4,4.6,1,8
			c-8.7,11.6-36,10.4-51,6c0.8-2.2,4.7-1.3,5-4c-4.8,0.2-8-1.3-12-2c5.7-12.6,12.9-28.7,15-44C192.4,585.7,217.6,585.7,220,601z
			 M189,626c0.8-2.5,2.7-3.9,3-7C183.4,611.8,178.5,624.9,189,626z M208,619c-0.2,2.5,1.5,3.1,3,4c0.4-1.9,3.9-0.8,3-4
			C212.7,617.6,209.3,617.6,208,619z M197,629c-2.4-0.9-4.3-2.3-8-2C187.6,634.1,196.1,633.9,197,629z M201,630c1.3,1.4,5.7,1.4,7,0
			C208.5,625.1,201,626.9,201,630z"/>
	</g>
</g>
</svg>
