<?xml version="1.0" encoding="utf-8"?>
<!-- Generator: Adobe Illustrator 15.0.0, SVG Export Plug-In . SVG Version: 6.00 Build 0)  -->
<!DOCTYPE svg PUBLIC "-//W3C//DTD SVG 1.1//EN" "http://www.w3.org/Graphics/SVG/1.1/DTD/svg11.dtd">
<svg version="1.1" id="Layer_1" xmlns="http://www.w3.org/2000/svg" xmlns:xlink="http://www.w3.org/1999/xlink" x="0px" y="0px"
	 width="681px" height="682px" viewBox="0 0 681 682" style="enable-background:new 0 0 681 682;" xml:space="preserve">
<style type="text/css">
<![CDATA[
	.st0{fill-rule:evenodd;clip-rule:evenodd;}
]]>
</style>
<g>
	<g>
		<path class="st0" d="M447,233c8.9-19.1,46.3-13.7,49,8c1.2,9.5-6,17.5-9,27c-3.8,12-6.6,31.8-5,46c1.4,13.2,7.8,25.1,9,36
			c0.9,8.2-1.3,16.1,0,23c2.1,11.1,9.9,14.9,16,24c7.3,4.4,16.7,5.1,26,9c5,2.1,9,7,14,9c11.6,4.5,25.3,7,36,13c3.7,2.1,8,7.1,12,10
			c11.8,8.6,25,23.6,19,46c-3.4,12.5-17.9,21.1-29,29c-23,16.5-43.5,31.9-73,42c-11,17.6-51.2,10.3-81,20c-6,2-9.8,5.9-14,7
			c-10.7,2.8-24.3,0.7-35,2c-19.7,2.5-39.6,14.5-66,15c-19,0.3-40.7-4.3-56-10c-12.4-4.6-19.7-15.3-34-19c-6.5-1.7-14.2-0.8-22-3
			c-18.6-5.2-40-19.9-59-30c-21.6-11.4-43.5-22.6-54-35c-9.1-10.7-9.7-31.3-1-45c9.6-15,38.7-35.5,57-42c10.3-3.7,20-1.9,28-7
			c-1.2-9.4-11.8-14.2-18-22c-9.8-12.5-16.8-27.7-26-43c-14.8-24.7-28.5-51.3-37-85c-3.8-14.8-9.4-35.9,1-51c3.2-4.6,12.1-11,17-12
			c11.4-2.4,21.5,2.4,31,0c7-1.7,10.2-6.4,18-8c13.8-18.2,30.9-27.1,42-47c9.5-17.1,10.3-41.2,23-56c23.6-27.4,69.9-3.1,91,12
			c7.2,5.2,13,13,20,17c7.9,4.6,17.8,5.8,26,10c12,6.1,19.9,18.6,30,28c9.9,9.1,21.3,16.3,27,25C430.7,192.5,441.1,214,447,233z"/>
	</g>
</g>
</svg>
