<?xml version="1.0" encoding="utf-8"?>
<!-- Generator: Adobe Illustrator 15.0.0, SVG Export Plug-In . SVG Version: 6.00 Build 0)  -->
<!DOCTYPE svg PUBLIC "-//W3C//DTD SVG 1.1//EN" "http://www.w3.org/Graphics/SVG/1.1/DTD/svg11.dtd">
<svg version="1.1" id="Layer_1" xmlns="http://www.w3.org/2000/svg" xmlns:xlink="http://www.w3.org/1999/xlink" x="0px" y="0px"
	 width="408px" height="735px" viewBox="0 0 408 735" style="enable-background:new 0 0 408 735;" xml:space="preserve">
<style type="text/css">
<![CDATA[
	.st0{fill-rule:evenodd;clip-rule:evenodd;fill:none;stroke:#000000;stroke-width:5.099;stroke-linecap:round;}
	.st1{fill-rule:evenodd;clip-rule:evenodd;fill:none;stroke:#000000;stroke-width:3.7809;stroke-linecap:round;}
	.st2{fill-rule:evenodd;clip-rule:evenodd;fill:none;stroke:#000000;stroke-width:4.6533;stroke-linecap:round;}
	.st3{fill-rule:evenodd;clip-rule:evenodd;fill:none;stroke:#000000;stroke-width:3.8902;stroke-linecap:round;}
	.st4{fill-rule:evenodd;clip-rule:evenodd;fill:none;stroke:#000000;stroke-width:4.7376;stroke-linecap:round;}
	.st5{fill-rule:evenodd;clip-rule:evenodd;fill:none;stroke:#000000;stroke-width:7.2988;stroke-linecap:round;}
	.st6{fill-rule:evenodd;clip-rule:evenodd;fill:none;stroke:#000000;stroke-width:4.8125;stroke-linecap:round;}
	.st7{fill-rule:evenodd;clip-rule:evenodd;}
	.st8{fill-rule:evenodd;clip-rule:evenodd;fill:none;stroke:#000000;stroke-width:4.3677;stroke-linecap:round;}
	.st9{fill-rule:evenodd;clip-rule:evenodd;fill:none;stroke:#000000;stroke-width:4.7895;stroke-linecap:round;}
	.st10{fill-rule:evenodd;clip-rule:evenodd;fill:none;stroke:#000000;stroke-width:5;stroke-linecap:round;}
	.st11{fill-rule:evenodd;clip-rule:evenodd;fill:none;stroke:#000000;stroke-width:4.6566;stroke-linecap:round;}
	.st12{fill-rule:evenodd;clip-rule:evenodd;fill:none;stroke:#000000;stroke-width:5.111;stroke-linecap:round;}
]]>
</style>
<g>
	<g>
		<path class="st7" d="M243,350c-8.9-7.8-24.9-6.9-32,2C208.8,328,245.6,321.5,243,350z"/>
		<path class="st7" d="M267,367c-1.3,7.9-19.4,4.7-20,3C246.5,365.5,260.3,367.4,267,367z"/>
		<path class="st7" d="M119,566c3.7-3.4,8.1,1.6,6,5C123.3,573.8,114.4,570.2,119,566z"/>
		<path class="st7" d="M185,617c2.4-1.8,5.8-1.7,7,1C197.1,629.3,175.1,624.2,185,617z"/>
		<path class="st7" d="M162,55c9.6,3.4,23.1,2.9,31,8c0.6-8.7,20.7-7.2,35-5c5.4,0.8,10.4,4.9,14,5c1.8,0.1,9.9-2.7,16-4
			c8.6-1.9,29.8-10.2,35-3c4.5,6.2,0.5,25.8,0,36c-0.2,4.3,1.3,17-3,20c-8.2,5.7-38.3-11.9-48-11c-1.4,0.1-10.1,6.5-10,5
			c-0.1,2.7,23,10.4,26,12c26.6,13.9,41.4,33.8,55,60l-4.8,1.1L308,184c-0.3,0-0.7,0-1,0c1.3,14.3,11.2,35.3,8,51
			c1.6,0.3,1.7-0.9,3-1l3.3,3.5l4.8-0.5c1,32.3-2.1,58.1-10,89c-6.2,24-10.7,50-23,59c-2.4,1.8-9.7,4.4-12,4
			c-10.8-1.9-3.1-13.1-9-21c-5.2-7.1-14-1.5-22-7c-1.5-6.9,8.7-2,10-6c1.8-5.2-10.5-1.4-7-5c-0.5-4.9,7.9-1.6,10-4
			c0.3-0.4,6.7-32.8,4-36c-2.5-3-19.6-0.5-30,0c-36.9,1.7-76-1.4-111-2c-6.5-0.1-12-1.9-14,0c-3.3,3.2-0.2,14.7,0,18
			c0.3,4.6,0,9.4,1,15l-2,3.5l4-0.5c0,1.7,0.7,2.6,2,3l-0.5,3.1l2.5,1.9c-2.2,2.1,0.1,3.2,1,5l-0.3,3l2.3,2c-1.1,7.1-10.8-0.3-15,4
			c-4.4,4.5,1.9,14.4-7,16c-13.6,2.4-22-35.5-26-50c-15.9-57.2-18.8-132,13-175c21.7-29.4,41.1-41.3,76-51c-5.2-1.9-13.4,3.8-19,1
			c-10.3-5.2-2.4-33.5-4-43l3.1,0.5L145,62c6.9,1.1,11.5-1.2,15-2l1.8-2.2L162,55z M188,165c1.3,6.2,17.9,7.9,21,1
			c4.6-10.1-6.8-12.1-13-10C192.2,157.3,187,160.4,188,165z"/>
		<path class="st7" d="M130.3,340l-0.3-3c7-19,29.2-2.8,29,12c-3,1.3-8.2-7.6-17-8c-5-0.2-9.9,0.6-13,5c-2.3-0.3-2.3-2.7-1-4
			L130.3,340z"/>
		<path class="st7" d="M98,572c-9.2-1.8-26.4,4.4-28-5c3,0,6,0,9,0c1-7.8-8.6-1.7-14-5c-3.1-1.9-14.3-23.1-13-28
			c1-3.9,15.8-14.1,22-19c7.6-6,18.8-11,22-18c3.1-6.9,3.1-19.5,6-30c5.2-18.8,11.6-35.2,20-52c4.4-8.8,16.8-21.5,9-28
			c9.8-0.1,19.5-0.1,26,3c-1.5,3.1-7.7,1.7-12,2c2.9,8.1,19,3,25,8c-0.3,3.3-4.4-2.6-5,1c23.6,4.7,57.3,1.3,76-8c-1.1-2.6-8.3,1-7-4
			c19-6.9,20.1,4,28,19c8.4,16,15.5,28.2,22,46c3.4,9.4,3.3,19.5,7,27c3.5,7,14.6,12.6,19,17c12.7,12.7,33,35.4,44,50
			c12.5,16.7-12.8,16-17,28c-2.5-4.1-10.9-7.4-16-3l-1.4-2.4L317,570c0.4-5.5,3.3-11.8,1-18c-1.1-3-8.7-5.5-11-10
			c-1.1-2.2-0.6-7.4-1-8c-3.1-4.7-9.6-5.8-12-5c0.6-0.2,1.4,0.7,1,1c-5.3,4.7-13.6,10.7-21,2c1.1,4.5,4.2,7.1,8,9
			c-23.2-8.5-21.7,12.7-25,25c7.8,1.4-0.7,12.7,0,18c0.3,2.2,4.3,11.7,8,13c1.5,0.5,6.3-1.6,9,0c2,1.2,1.7,6.6,4,8c8,5,15-1.2,20-9
			l3,0.5l3-0.5c2.9,9.1,2.1,11.3-3,19c-2.8,4.2-6.5,7.4-4,13c0.2,0.3,2.9,3.6,3,3c-1.4,6.8-19,13.3-26,18c-5.2,3.5-8.7,8.2-13,11
			c-5.2,3.4-11.1,4.4-16,7c-13.9,7.4-42.1,20.5-69,13c-3.9-1.1-7.5-5.3-12-7c-6.3-2.4-12.5-2.5-16-5c-3.1-2.2-4.4-6.6-7-9
			c-8.1-7.3-21.2-11.9-27-20c-4.6-6.4-4.9-15.3-9-22c2.7,0,5.3,0,8,0c1.1-8.7-13.9-1.4-13-10c2.3,0,4.7,0,7,0c0.4-2.4-1.8-2.2-1-5
			l3.5-1.3L109,597c2.7,0.7,1.9-2.1,3-3c6.5,5.2,22.8,6.6,20-7c6.5,2.8,9.4,14.4,18,8c6.7-5,3.8-13.3,5-24c0.7-6.4,4.8-11.3,4-17
			c-1.4-10.2-9.5-13-17-13c7.3-18.2-28.9-27.6-24-2c-5.4-0.7-4.8-3.3-10-3c-14,0.8-11.4,21-8,31l-2.5,1.9L98,572z M197,441
			c4,1.2-15.8,24.4-9,26c9.4-19.9,22.6-36.1,34-54c-6.8,0.6-9.4,14.4-15,15c-2,0.2-3.3-3.1-6-5c-8.3-5.6-18.2-10.1-25-9
			c4.9,6,28.8,11.6,30,17c0.2,0.8-6.3,9.9-7,10c-2.4,0.5-6.8-5.6-9-7c-8.5-5.2-20.4-10.3-26-10C172.7,432.1,186.6,437.8,197,441z
			 M194,575c7.1,1,16.8,2.4,22-2C207.2,574.4,199.6,570.9,194,575z M217,594c-8.1-9.7-32.1-7.9-38,1c-0.9,1.3,2.3,2.5,2,4
			c-0.3,1.6-2.9,2.6-4,6c-0.5,1.4,0.6,3.9,0,6c-2.8,9.1-12.4,16.1-5,19c-5.8-0.5-7,3.7-9,7c6.6,1.4,17-1,20,4c-4.5,1.5-12,0-16,2
			c12.4,3.9,43.5,8.9,54-1c0.9-0.9,0.3-7.1,5-5c0.7-4.4-2.9-4.4-3-8c17.4,0.3,11.4-14.3,9-27C220.2,605.1,220.7,598.5,217,594z
			 M248,647c-8.5,2.6,6.5,13.4,13,5C256.6,654.5,251.6,645.9,248,647z"/>
		<g>
			<path class="st0" d="M190.5,355.5c-2.9,5.4-11.3,5.9-15,1"/>
			<path class="st9" d="M151.5,369.5c-10.9-0.3-22.2,0.8-33-0.7"/>
			<path class="st11" d="M125.5,378.8c10.2,1.8,20.9-0.3,31,0.7"/>
			<path class="st12" d="M87.5,589c8.8,2.1,18-0.5,27,0.8"/>
			<path class="st3" d="M111,344.5c4.8-6,12.5-6,19.3-4.5"/>
			<path class="st4" d="M131.5,349.5c-4.8,1-10.1-1.1-15,0.6"/>
			<path class="st6" d="M146.5,360c-8.7-0.5-18-1-26.8,0"/>
			<path class="st8" d="M143.1,64.5c-4.7-12.5,12.2-10.5,18.7-6.7"/>
			<path class="st5" d="M321.3,237.5c0.3-19.7-3.2-41.2-13-58.4"/>
			<path class="st10" d="M109.5,600.7c-4.5-3.1-10.6,0.9-15-2.2"/>
			<path class="st2" d="M80.5,578.8c8.8,1.5,18.1,0.3,27,0.6c2.1-5.3-5.1-9.8-10-10.5"/>
			<path class="st1" d="M301,596.5c0.6-11.8,13.8-16.2,18.6-25.9"/>
		</g>
	</g>
</g>
</svg>
