<?xml version="1.0" encoding="utf-8"?>
<!-- Generator: Adobe Illustrator 15.0.0, SVG Export Plug-In . SVG Version: 6.00 Build 0)  -->
<!DOCTYPE svg PUBLIC "-//W3C//DTD SVG 1.1//EN" "http://www.w3.org/Graphics/SVG/1.1/DTD/svg11.dtd">
<svg version="1.1" id="Layer_1" xmlns="http://www.w3.org/2000/svg" xmlns:xlink="http://www.w3.org/1999/xlink" x="0px" y="0px"
	 width="651px" height="759px" viewBox="0 0 651 759" style="enable-background:new 0 0 651 759;" xml:space="preserve">
<style type="text/css">
<![CDATA[
	.st0{fill-rule:evenodd;clip-rule:evenodd;}
]]>
</style>
<g>
	<g>
		<path class="st0" d="M448,60c2,2,5.1,2.9,6,6C451.4,64.6,448.3,63.7,448,60z"/>
		<path class="st0" d="M464,92c1.5,6.5-11.2,4.1-14,3C450.1,88.3,459.5,93,464,92z"/>
		<path class="st0" d="M131,122c1.4-2.3,7-0.4,10-1C139.6,123.3,134,121.4,131,122z"/>
		<path class="st0" d="M292,145c-1.6,1.8-8.5,1.9-13,1C283.1,141.3,286.8,142.5,292,145z"/>
		<path class="st0" d="M589,151c2.3-3.2,4.8,1.7,4,5C589.4,156.6,591.8,151.2,589,151z"/>
		<path class="st0" d="M230,152c-0.7,2.7,2.1,1.9,3,3c-3.7,2.3-11.7,0.3-17,1C218.9,150.8,224.1,153,230,152z"/>
		<path class="st0" d="M339,577c0.5-4.2,4.7-4.6,6-8C347,571.7,342.4,576.3,339,577z"/>
		<path class="st0" d="M375,46c10.5-4.9,32-5.9,42,0C404.7,41.7,387.8,42.9,375,46z"/>
		<path class="st0" d="M366,51c-1.3,2.7-4,4-6,6C358.8,55.7,363.1,51.5,366,51z"/>
		<path class="st0" d="M433,52c-1.1-3.5,15.2,8.5,9,4C437.3,56.3,436.4,52.9,433,52z"/>
		<path class="st0" d="M353,60c2.1,4.1-6.2,6.5-9,9C342.3,68.9,351.6,63.5,353,60z"/>
		<path class="st0" d="M342,71c-1.7,3.6-4.9,5.8-8,8C333,80.2,338.5,71.8,342,71z"/>
		<path class="st0" d="M344,85c0.7,0.3,5.2-4,8-1c1.5-0.4-0.4-1.3,0-3c1.7,0,3.3,0,5,0c0.7,4.4-2-0.8-2,2c0.4,2.5,4.6,0.8,3-2
			c13.7,0.3,20.1-0.2,31,0c0.4,0-1.8,0.9-2,1c6-1.8,20.4-0.1,30-1c-0.4,2.4,1.8,2.2,1,5c-4.3,1.3-3.2-2.8-5-4c-2-0.3,0.2,2.9,1,3
			C393,86.7,365,86.7,344,85z"/>
		<path class="st0" d="M77,143c1.1,0.2,0.6,1,0,1c5.4,0.4,12.5-6.1,20-7c-5.8-1.1,6.6-5.4,10-6c18.3-3.2,53.6-2.2,67,4
			c0.3,2.7-5.6-0.9-4,3c3.3-1,7,2.8,12,3c-2.8,0.9-1.5,5.8-6,5c-1.1,2.5,4.7,3.9,0,4c3.8,2.8,12.4,0.9,14,6c-6.3,1.1-17.6-2.9-18,4
			c3.5,3.5,16.1-2.1,18,3c4.5-3,9.5-1.9,14,1c11.1-6.3,33.5-1.7,47-3c0-4.7-4.1-5.2-9-5c11.6-9.4,35-1.1,41-8c6.9,4,14.6,2.5,26,3
			c-0.8-2.6,3.8-0.9,2-2c1.3-2.8,4,1.2,5,2c3.2,0.9,2.1-2.6,4-3c-2.2,0.2-7.3-0.9-11-2c-1.7-3.1,5-2.8,2-4c6.1-1.6,14.2-1.1,20-3
			c-0.8-3.9-7.9-1.5-8-6c-1-3,2.2-1.8,4-2c-1.9-10,2.8-16.8,13-23c1-3-2.2-1.8-4-2c0.4-4.7,2.8-5.3,1-10c-5.4,0.3-8,3.4-9,8
			c-7.5,1.8-18.1,0.8-21,2c0.9-4.1,10.2-3,16-5c4.3-1.5,6.8-4.5,10-5c0-2.4,1.7-2.9,1-6c6.1,2.6,17.9-1.1,19,4c1.4-0.4,0.1-1.8-1-2
			c34.9-1,77.7-3.5,94,3c-32.3,2.3-69,0.3-103,1c1.6,4,7.8,0.8,6,5c32.3,0,64.7,0,97,0c0.4,1.6,3.1,0.9,2,4c8-4.9,14.3-3.7,21-3
			c-1.7,6.6-11.9,4-19,4c-7.8,0-15.9,0-22,0c2.9,1.8,2.3,2.5,3,5c12.4-1.3,29.9,2.6,39-2c2.2,0.4,0.4,4.9,1,7c-13,0-26,0-39,0
			c-1.5,0.9,0.3,1.5-1,4c8.2,1.2,21.8,1,34,1c0.1,1.6-1.7,4.4,0,2c0.9,5.6-16,2-23,3c-0.1,1.6,0.5,3.8-1,4c4.4,2.9,18.8-1.5,24,2
			c-4.6,4.1-6.6,8.5-7,12c0.8,2.4,2.5-2.8,6-1c-2.4,3.2-9.1,2.2-10,7c1.9,2.1,8,0,8,4c-0.5,3.5-6.6,1.4-5,7c0.9-0.7,1.5-1.8,2-3
			c2,9.4,15.8,2,22,6c2.4-1.6,3.7-4.3,9-3c-1.2-1.9,0.9-5.9-5-5c1.1-1.9,1.4-4.6,4-5c-3.6-5.4-6.1-10.1-9-18c5-2.6,7.9-3,15-2
			c10.4-10.6,31.2-6.8,43-12c17.7-1.9,20.8,9.9,33,11c10.7,11.4,18,20.1,22,38c3.2-3.1-2.2-5.5,0-8c7.8,7.5,3.6,27.8,5,39
			c-4.1-5.6,1,3.5-2,5c-0.2,0.1-1.8-1.4-2-1c-2.2,4.7-2.1,12.2-5,16c-8.6,11.3-24.8,23-37,24c-0.1,5.4,2.9,6.8,2,15
			c-1.4-0.3-0.8-2.5-1-4c-5.4,0.7-2,4.9-5,7c0.3,2.4,4.7,0.6,4,4c-4.8,1-4.3,20-8,25c2.7,5.2,0.4,8.8,2,15c-1.3,2.8-2.1-3.2-5-2
			c5.5,4.6,4.4,11.6,6,16c-0.7,1.8-1.8,0.1-3,0c4.7,2.7-0.6,5.9,4,7c0.2,2.2-0.8,3.2-3,3c0,2.7,3.2,2.2,3,5c-5.1,2-2.1,6.7-7,11
			c3.1,1.2-0.5,2.9,3,3c-2.7,5-3.3,3.3-4,8c-0.3-4.2-4,4.4-3,3c-12.7,15.6-27,34.3-46,47c-13.1,8.7-28.3,13.9-41,23
			c2.3,4.7,4.5,9.5,7,14c9.9-1.2,16.7,0.6,19,7c6.5-5.9,14.3-2.9,23-1c-3.3,0.7-4.8,3.2-5,7c-4.9-0.6-8.6,0.1-9,4
			c8.8,4.1,21.1-2.2,21-7c3.2-0.5,10.1,3.9,15,5c-2.8,4.4-7.1,7.4-14,12c2.4,2.3,9,0.4,13,1c5.2-5.3,5.1-4.4,10-10
			c3.9,2.1,9.8,2.2,16,2c0.2,2.2-3.5,0.5-5,1c1.2,3.2,4-0.2,4,5c-0.9-5.4,6.2-0.4,8,3c-1.7-0.4-1.9,0.8-2,2c-4.8-1.9-3.9-1.3-9,0
			c-2.4-3.1-0.7-4.2-2-8c-1.2,0.8-2.7,1.3-5,1c1.9,4,4.9,3,3,9c3.7,4.6,12.5,7.5,18,4c-0.5,0.8-1,1.6-1,3c5.2,0.3,1.2-4.7,3-6
			c0.4,3.8,10.3-1.8,15,2c-0.2,1.1-2,0.7-2,2c4.6-0.7,7.9,7.2,11,6c-3.7,3.1,3.4,6.2,0,9c1.3,4,2.1-0.3,5,0c-4,2.7,2,3.4-1,7
			c1.8,0.1,2.1-1.2,4-1c-1.1,5-2.3,10.8,2,12c0.9,4.7-3.3-0.7-3,2c3.1,1.5,1.4,3.8,3,9c0.4,4.1-4.3,3.1-5,6c-0.7,3.1,3.4,1.2,2,5
			c-3.5-3.5-4.5,6.5-8,11c-2.5,0.2-3.1-1.6-5-2c-8.5,4.5-21.6,3.7-25,12c-19.1-1.4-41.9-6.4-47-25c-9.3-1.2-16-9.4-26-4
			c1.5,16.6,1.3,36.3,0,53c18.3,9.4,36.9,18.5,40,43c1.8,4.2,6.2,5.8,6,12c-19.7-0.2-54.9,0.1-81,0c-2.1,1.2-3.8,2.9-5,5
			c27.2-0.1,59.1,0.1,83,0c-0.5,8.2-11.9,5-18,5c-20.1,0-47.4,0.8-66-1c-1.7,1.3-1.6,4.4-3,6c29.4,0,63.9,0.1,90,0
			c0-2.6,0.9-6.3-3-5c1.6-2.4,3.7-4.3,3-9c2.2,4.9,0.9,14.9,0,20c-28-3-63,1-91-2c0,1.7,0,3.3,0,5c25.7-0.5,60.5,4.1,86,1
			c1.9-0.2,3.2,0.2,3-2c2.1,0.6,0.9,6.2,0,7c-30,0-60,0-90,0c1.7,2-0.7,2,1,4c27,1.7,61,1.7,88,0c3.1,2.5-4,3.2-2,8
			c-25.1-4-61.3-2-88-1c2.5,7,13.3,4,20,4c20.7,0,49.1,0,67,0c-10.2,20.2-51.8,28.6-78,17c-27.7-5-42-23.4-49-49
			c-30.9-5.6-66.3-5.5-100-6c-0.7,13-4.2,23.1-6,35c-15.5,22.7-44.9,29-74,17c-4.1-1.7-10.2-6.2-15-9c-4.8-2.9-11.9-10-13-10
			c-1.7-0.1-3.6,4.2-4,4c-9-3.5-13.8-22.8-15-30c-1-3,2.2-1.8,4-2c-2.7-31.4,7.4-50,22-64c-0.5-20.1-27.8-13.5-33-29
			c-7.8,7.2-24.9,5.1-30,15c-10.1-0.3-16.5-4.2-26-5c-1.2-1.5-1.2-2.5,0-4c-15.5-6.8-28.3-17.5-32-34c-7.6-34,20.4-62.8,52-67
			c13.4-4.8,27.7-17.6,45-12c4-1,5.4-4.6,7-8c7.1,0.5,15.1,0.2,19,4c4.8-0.2,3.8-6.2,10-5c-0.7-12.7-13.5-13.1-25-15
			c-25-26.3-55.5-48.4-59-93c-1.7-22.2-3.7-50.1-8-72c-24.1-20.9-58.9-40.7-52-86C65.8,164.5,71.4,153.7,77,143z M520,629
			c-11.3-6.7-48.1-1.2-66-3c-0.2,2.9-7.4,3.9-5,6c22-2.3,48.3-0.3,72-1C520.8,630.2,521,629,520,629z M452,691
			c19.4,0.1,43.2,1.5,58-2c0.2-1.4,1.6-1.7,2-3c-1,0-2,0-3,0c-17.4,0-39.8,0-57,0c-5.6,0-14.2-1.8-16,2
			C438.4,693.3,446.6,691,452,691z M497,696c-17.3,0.7-37.3-1.3-53,1C457.3,701.9,483.5,703.7,497,696z M373,111
			c10.9-2.6,39.7,5.4,46-5c-12.4,0.2-29.8-0.3-42,0c-3.7,0.1-11.2-1.9-11,2C368.6,109.8,370.8,106.7,373,111z M381,119
			c-5-1.5-2-2.6-6-3c0.4,7,13.7,5.8,18,3c3.1,5.8,11.5-3.3,20,0c-0.4-1.7,1.5-2.6,0-3C407,117.7,382.3,112.5,381,119z M412,133
			c1.5-2.8,4.1,1.7,5-1c-2.5-0.2-0.3-3.4,0-4c-3.4-0.7-3.3,2.1-5,3C414.7,130.7,409,135.7,412,133z M435,141c6.9-1.1,19.3,3.3,19-5
			c-5.4-1-12.6,1.4-14,1c-0.1-0.6-0.1-1.2-1-1C440.2,140.2,435.7,138.7,435,141z M258,159c0.5-2-4.6-3.2-5-1c2.2-0.2,3.2,0.8,3,3
			c2.3,0,4.7,0,7,0c0.3-2.4-5.8-6.5-4-4C260.5,157.2,259.1,158.6,258,159z M272,156c-2.3,0-4.7,0-7,0
			C265.3,158.8,273.2,160.3,272,156z M287,157c-1.8-1.3-9.3-1.9-11,0C280.9,156.7,283.4,158.6,287,157z M310,158
			c-0.8-0.2-1.2-0.8-1-2c-3.7,0.2-3.8,1.4-7,0C301.9,161,307.4,160.1,310,158z M449,161c-0.2-1.2,0.2-2.8-1-3c-0.2,1.4-1.6,1.7-2,3
			c2,2,5.7,0.6,8,0c-0.9-1.7,0-5.4-3-5C449.3,156.6,451.1,160.7,449,161z M123,161c6-0.7,14.7,1.3,19-1
			C137.8,156.6,127.8,159,123,161z M105,171c13.4,0,28,1.3,35-5C128.3,167.6,109.2,161.8,105,171z M167,167c2.2-0.2,3.2,0.8,3,3
			c-1.8,0.3-5-2.8-6,0c15.6,1.7,37,1.8,47-1c-3.5,3.2,8.9,2.5,10,1c-2.8,1.6-4.5-2.6-2-3c3.5,3.6,8.4,5.3,14,3c5.3-2.1,4.2-0.5,8-1
			c0.4,0,1.8-3.4,4-1C227.2,164.1,186.4,166,167,167z M473,166c-1.9,3.2-9.2-2.8-14,1c2.6,1.9,6.3,2.8,6,0c0,2,2.7,1.3,2,4
			C469.7,170,472.7,169.4,473,166z M477,169c2.1,4,8.6,0.2,11,2c0-1.4,0.5-2.2,1-3c-2.5,0.5-3.9,1.7-4-2c-1.7,0-3.3,0-5,0
			C480.5,170.1,477.3,165,477,169z M549,170c-4,0.2,0.3-1.5-2-3c-7.8,0.1-11.6-2-13,3c-0.5-1.5-1.5-2.5-2-4c-3.1-0.7-2.9,1.7-6,1
			c-0.3,2,1.4,2,2,3c-2.3,1.4-3.8-2.6-4,0C530.5,170.8,541,172,549,170z M99,181c7,0,14,0,21,0c-0.7-2.5,3.8-3.6,7-5
			C118.2,178.2,100,171,99,181z M168,177c0.7,0,1.3,0,2,0c2,0,1.3,2.7,4,2c1.5,0.2,3.7-0.4,4,1c-1.1,0-2.5,0.5-1,1
			c3.5-0.5,5.4-2.6,7-5C179.7,176.3,164.2,175.1,168,177z M483,181c3-0.3,6.1,2.8,7-1c-1.3,0-2.7,0-4,0c-0.2-1.2,0.2-2.8-1-3
			C484.5,178.5,483.5,179.5,483,181z M537,181c2.7,0.3-0.9-5.6,3-4c-0.3,1.4-1.4,1.9-1,4c5.7-0.5,6.3-0.5,12,0c-0.8-2.8,1.4-2.6,1-5
			c-7.8,1.3-13.2-1.3-20,1C537.5,176.4,533.7,181.2,537,181z M134,190c-1,0-1.3-1.8,0-2c-6.1-3.9-23.3-2-31-1
			C107.3,191.9,123.5,192.1,134,190z M546,191c2.1-0.6,6.6,1.2,7-1c-3.1-1,1.1-2.7,1-4c-1.3,0-2.7,0-4,0
			C550.3,191.1,545.7,187.6,546,191z M108,200c5.8,1.8,19.1,2.5,21-3C122.2,194.7,108.5,195.5,108,200z M114,211
			c0.9-4.7-3.3,0.7-3-2c0.5-3.8,5.6,1.1,7-3c-7.5,0.6-13.5-0.8-17,2C108,207.7,107.6,209.9,114,211z M441,269c-0.2,3.6,9.7,2.3,11,1
			C447.6,267.9,445.5,267.8,441,269z M437,281c5,0,10,0,15,0c-0.3-2.3,0.2-3.8,1-5c-5,0.6-12.6-1.3-16,1
			C440,277.7,436,279.1,437,281z M449,286c-2.7,0.6-7.9-1.3-9,1C443.2,288.3,448,290.4,449,286z M300,311c25-0.7,52.7,1.3,76-1
			C353.8,303,320.3,307.5,300,311z M340,316c-23.3,0-51.6-3.1-61,5c36-0.7,74.7,1.3,109-1C377.4,313.2,358.7,316,340,316z M369,326
			c-32.5,0-67.3,0-98,0c-2.3-0.3-1.1,2.9-3,3c39.1,4,89.3,2,129,1C390.4,323.4,379,326,369,326z M267,336c-2.1,1.2-3.8,2.9-5,5
			c19.5-1.8,47.2,4.5,59-5C303,336,285,336,267,336z M347,341c17.4-1.3,40,2.6,54-2c-6-5.2-17.8-3-28-3c-11,0-24,0-32,0
			c-0.6,0.1-1.2,0.1-1,1C343.4,337.3,344.2,340.1,347,341z M288,346c-9.1,0-19,0-27,0c-0.8,0.2-1.2,0.8-1,2c0,0.7,0,1.3,0,2
			c14.7,1,39,3,52-1C307.2,343.6,297.2,346,288,346z M350,349c5.1,3.6,16.3,2,26,2c9.6,0,22.4,2.2,24-3c-12.4-4.6-33.3-0.7-49-2
			C350.8,347.2,351.2,348.8,350,349z M434,351c4,0.4,7.3,0,8-3c-3.1-0.5-2.3,3.1-6,2c0.1-1.7-0.8-2.6-2-3
			C434,348.3,434,349.7,434,351z M259,359c17.4,4,46,2,65,1c-14.4-8-46.6-2.2-64-4C259.5,359.1,262.4,360.8,259,359z M338,361
			c9.3,0,20.9,0,32,0c10.1,0,25.7,3,29-4C381,356.7,349.9,351.9,338,361z M265,371c11.9-0.8,27.2,1.9,36-2c3.9,2.3,27.6,5.3,27-2
			c-14.7-2.3-42.3-0.3-62-1C266.3,368.3,265.8,369.8,265,371z M335,370c9.1,2.9,19.6,0,30,0c10.8,0,24.3,4.5,32-2
			c-17-4.6-42.7-0.7-63-2C333.8,367.9,335.1,368.2,335,370z M270,381c8.1-0.4,21.9,0.3,33,0c1.2-5.8-17.3-7.2-25-5
			c-5.3,1.5-2.8,2.4-9,0C269.5,379.1,274.3,378.4,270,381z M313,380c3.9,1.1,13.3,2,17,0c-1.5-0.2-0.9-2.4-1-4c-5.3,0-10.7,0-16,0
			C313,377.3,313,378.7,313,380z M336,381c8.6,0.6,15.7-0.3,19-5c-6.3,0-12.7,0-19,0C336,377.7,336,379.3,336,381z M360,381
			c10.3-2.1,29.2,4.5,33-4C383.9,376.2,363.3,372.6,360,381z M278,389c10,4.3,27.7,0.9,41,2c-5.8-8.1-25.3-4.4-37-4
			c-4.2,0.1-9.3-4-9,1C272.8,387.9,280.4,393.9,278,389z M339,391c15.6-2.4,41.4,5.4,49-5C370.5,386.5,349.7,383.7,339,391z
			 M288,396c-0.6,2-3,2-1,4c0.1,0.6,0.1,1.2,1,1c14.6,0,31.7,0,48,0c16.4,0,33.5,2.9,43-5C348.2,395.8,315.9,396.3,288,396z
			 M280,397c3.9-1.6,2.1,2.6,4,3c-1.3-2.8,5.3-2.5,2-4C287.2,397.5,276.9,394.4,280,397z M361,406c-22.3,0.7-47.3-1.3-68,1
			C311.3,410.7,345.1,415.3,361,406z M467,463c0.9-2.8,6.8-5.8,4-9C468.9,456.6,466.2,459.7,467,463z M158,460c-1.5-0.9-3.2-1.5-3-4
			c-2.1,0.6-6.6-1.2-7,1C151.9,456.8,153.9,463.7,158,460z M481,471c4,0,8,0,12,0c-0.2-2.5,1.6-3.1,2-5c-4.3,0-8.7,0-13,0
			C482.8,468.8,480.6,468.6,481,471z M397,476c2.6,0.3,4.3-0.4,4-3C398.4,472.7,396.7,473.4,397,476z M480,477c1.8,0.2,5-1,4,2
			c-3.1,0.5-4.1-2.4-5,1c2.6,1,6.1,1.2,10,1c-0.2-2.5,1.6-3.1,2-5C488,476.4,478.1,475,480,477z M503,481c6-0.3,14.6,1.9,14-5
			c-4.3,0-8.7,0-13,0C504.8,478.8,502.6,478.6,503,481z M499,491c6.2,0.9,9.8-0.9,11-5c-3,0-6,0-9,0C500,487.3,500,489.7,499,491z
			 M497,501c4.9,0.9,4.8-3.2,7-5c-2.3,0-4.7,0-7,0C497,497.7,497,499.3,497,501z M486,510c0.3-2.4,3.5-1.9,3-5c-1.4-0.2-1.7-1.6-3-2
			C488.6,505.9,483.4,507.9,486,510z M339,520c4.8,4.5,15.4,4.3,19,0C352.2,519.2,342.6,511.9,339,520z M328,528c3.3,0.9,0.5,4,4,6
			c2.8-1,4.2-1,7,0C346.6,526.1,332.3,518.2,328,528z M345,540c7.1,4.4,16.8,8.4,20-2c-3.5,0.9-1.7-3.3-1-4c-5.4-3.4-9.1-6.3-16-6
			C344.7,531.9,345.7,534.7,345,540z M369,541c3.2,0.9,3.1-1.6,5-2c-0.6-3.3-2.9-3.4-1-7c-1.8,0.6-4.2-2.9-5,0
			C370.8,535.2,368.6,536.5,369,541z M306,548c-1.3,3.4,2.2,7,4,4c-4.2-1.2,0.2-3.2,2-1C313.4,546.5,308,546.1,306,548z M310,558
			c3.7,0,1.5-5.9,6-5c1.7-3.4-3-7.6-1-5C315.3,553.3,310.6,553.6,310,558z M361,549c-0.9,2.2-1.4,8.1,1,8c1.9-3.5,6-4.6,7-9
			C365.3,549.1,363.2,548.1,361,549z M322,564c1.2-0.2,1.1-1.6,1-3c1.7,0.1,3.1-0.2,4-1c-0.2-1.5,0.4-3.7-1-4
			C325.5,558.7,319.5,564.9,322,564z M333,572c0.4-2.6,3-3,3-6C332.6,558.7,334.7,570.2,333,572z M337,577c3.8,0.5,5.4,3.3,9,4
			c-2.2-5.9,9.1-3.5,5-8c-2.5,1.5-5.5,7.7-9,5c1.8-3.2,4.5-5.5,8-7c-2.9-4.5-12.4-6.3-11,0c0.9-1.8,1.9-3.5,5-3
			C342.2,571.5,338.9,573.5,337,577z M201,611c14.7-0.7,32,1.3,45-1C237.8,603.8,207.8,603.3,201,611z M191,617
			c-0.1,1.3-1.3,1.4-1,3c20.7,1.7,48.3,1.7,69,0C243.3,612.6,211.3,616.4,191,617z M462,621c16-0.7,34.7,1.3,49-1
			C502.1,614,469.4,612.8,462,621z M202,631c21-0.7,44.7,1.3,64-1c-6.8-6.8-21-4-33-4c-12.7,0-26,0-37,0c-0.6,0.1-1.2,0.1-1,1
			C200.6,625.1,198.5,630.8,202,631z M198,640c23,2.3,50.3,0.3,75,1c-5.3-8.6-21.6-5-34-5c-13.9,0-30.2,0-40,0c-0.6,0.1-1.2,0.1-1,1
			C199.7,637.4,197.8,638.3,198,640z M200,648c6.6,4.8,40.8,3.1,59,3c5.2,0,13.4,2.5,15-3c-20-4.7-48.7-0.7-72-2
			c-0.6,0.1-1.2,0.1-1,1C202.1,647.1,201.8,648.3,200,648z M208,658c0,1-0.8,1.2-1,2c-0.6,0.1-1.2,0.1-1,1c17,0,37.7,0,54,0
			c5,0,13.7,2.5,16-3C259.4,654.7,222.1,654.8,208,658z M209,666c-1.4,0.6-2.4,1.6-3,3c-0.8,0.2-1.2,0.8-1,2c8.3-0.5,24.8,0,41,0
			c10.5,0,26.7,3,30-4C255.7,664.7,231,666.7,209,666z M212,677c2,2,0.3,2.7-1,4c7.7-0.2,20.1,0,32,0c11.5,0,26.4,3.5,30-5
			c-20.8,0.5-52.2-1-65,1C209.5,679.3,210.5,679.3,212,677z M246,691c8.9,0,20.6,2.2,22-5c-19.3,0.7-41.3-1.3-59,1
			C216.9,692.3,231.8,691,246,691z M251,696c-5,0.6-12.6-1.3-16,1C240.6,697.3,247,699.3,251,696z"/>
		<path class="st0" d="M471,98c2.6-1.7-0.9,5,0,8C466.9,106.1,472,101,471,98z"/>
		<path class="st0" d="M482,123c1.2-6.3,9.1-5.2,9-6c0.3-0.3,5.9-1.7,3,1c5.1-2.6,13.2-2.1,17-6c9.6,1.6,8.7-1.2,3,1
			C505.6,116.3,491.2,121.8,482,123z"/>
		<path class="st0" d="M168,129c4-2,17.3-1.2,27-2c-5.8,2.2-11.3,4.7-17,7C173.9,133.1,172.7,129.3,168,129z"/>
		<path class="st0" d="M90,131c-2.4,6-20.1,15.9-4,4C87.6,133.8,88.4,133.7,90,131z"/>
		<path class="st0" d="M551,321c1.1-2.8,0.3,7.7-1,9c0-2.7,0-5.3,0-8C550.9,322.2,550.9,321.6,551,321z"/>
		<path class="st0" d="M595,535c9.1-10.8,4.3-39.2-8-46c-0.3-3.9,4.1,1.8,6,2C600.2,501,607.8,525.1,595,535z"/>
	</g>
</g>
</svg>
