<?xml version="1.0" encoding="utf-8"?>
<!-- Generator: Adobe Illustrator 15.0.0, SVG Export Plug-In . SVG Version: 6.00 Build 0)  -->
<!DOCTYPE svg PUBLIC "-//W3C//DTD SVG 1.1//EN" "http://www.w3.org/Graphics/SVG/1.1/DTD/svg11.dtd">
<svg version="1.1" id="Layer_1" xmlns="http://www.w3.org/2000/svg" xmlns:xlink="http://www.w3.org/1999/xlink" x="0px" y="0px"
	 width="612px" height="792px" viewBox="0 0 612 792" style="enable-background:new 0 0 612 792;" xml:space="preserve">
<style type="text/css">
<![CDATA[
	.st0{fill-rule:evenodd;clip-rule:evenodd;}
]]>
</style>
<g>
	<g>
		<path class="st0" d="M300.3,439.3c-10.4-9.8-8.5-29.7-10.7-51c-8-78-12.5-163.8-15.8-249.5c-0.5-14.6-2.1-29.8-0.6-43.5
			c0.5-4.4,2.3-15.1,6.9-14.5c7.3,1,6.4,17.2,6.9,26.5c0.4,6.8,1.7,8.9,1.9,13.2c0.3,7.1-1.1,14.4-0.6,21.4
			c0.6,10.6,3,20.7,3.8,30.9c0.8,10.5-0.7,21.2,0,31.5c1.1,16.3,4.6,33,5,49.1c0.2,7.4-0.8,14.8,0,22.1c0.4,3.7,2.1,5.8,2.5,10.1
			c0.2,2.4-0.7,4.8-0.6,6.9c0.2,4.5,2.3,8.2,2.5,12.6c1.3,22.5,1.1,48.2,3.8,73.1c0.7,6.9,2,15.1,2.5,22.7
			c0.6,8.7,2.2,18.2,1.3,23.9C308.1,431.1,301.7,434.2,300.3,439.3z"/>
		<path class="st0" d="M335,150.7c-2.9,2.8-7.9,4.2-11.3,1.9c-4-2.7-4.8-24.8-6.3-34.6c-1.4-9.2-6.5-27.8-8.2-35.3
			c0.3-0.5,0.7-1,0.6-1.9c0.4,0,0.8,0,1.3,0c5.7,1.3,12.8,5.1,15.1,10.7c1.6,3.7,1.4,9.6,2.5,15.1
			C331.3,119.2,335.3,137.4,335,150.7z"/>
		<path class="st0" d="M352,84c7.8-0.5,12.6,6.5,15.8,13.9c3,6.9,6.8,15.9,6.9,21.4c0.1,3.9-2.9,7.3-3.1,11.3
			c-0.5,6.9,4.8,16,6.9,24.6c2.2,9,2.9,18.7,5,25.8c1.4,4.6,5.7,7.7,6.9,12c2.7,9.2,2.9,21,4.4,32.1c7.1,51.6,12.5,109.6,15.1,166.3
			c1.4,29.4,1,56.6,1.9,84.4c-2.5,4.4-8.2,9-12,10.1c-6.1-11.1-3.9-26.9-4.4-42.2c-2.3-74.1-7.1-145.1-16.4-214.2
			c-1.8-13.7-3.8-27.5-5-41c-1.3-14-5.8-27.1-6.3-39.7c-0.1-3.5,1.1-6.3,0.6-9.4c-0.5-3.3-3.4-8.2-5-12.6c-1.7-4.4-3.1-8.8-4.4-13.2
			C356.1,104,349.4,89.9,352,84z"/>
		<path class="st0" d="M395.5,90.9c-3.3,0.1-5.7-0.6-5.7-3.8C392,85.9,396.3,87.1,395.5,90.9z"/>
		<path class="st0" d="M425.1,90.9c4.8,0.8,15.6,4,13.2,12C430.4,102.4,428,96.4,425.1,90.9z"/>
		<path class="st0" d="M237.3,122.4c-8.3-4.2,0.1-17-2.5-25.2c3.6-3.8,11.8-7.7,13.9-1.3c0.4,1.1-0.8,16.2-1.9,18.9
			C244.9,119.3,238.7,120.5,237.3,122.4z"/>
		<path class="st0" d="M476.7,114.2c-7.6-1.7-15.3-8.6-18.9-16.4C468,96.9,475.1,104.5,476.7,114.2z"/>
		<path class="st0" d="M209.6,98.5c0.4,0,0.8,0,1.3,0c2,7.1-0.8,14.1-3.1,20.2c-1.4,3.6-4.8,6.5-6.3,10.1c-1.3,3.1-1.1,6.9-1.9,11.3
			c-0.6,3.6-2.6,7.6-2.5,10.7c0.1,2.6,2.1,4.8,2.5,7.6c1.3,8.3-1.8,18.2-2.5,28.4c-1.7,23.5-1.9,47.1-1.9,72.4
			c0,14.6,2.7,28-4.4,35.3c-0.4,5.9,1.6,14.2-3.2,15.8c-4.9-1.1-3.3-7.8-4.4-12.6c-0.7-3-2.7-5.7-3.2-8.2
			c-1.6-9.7-0.6-24.6-0.6-36.5c0-14.2,1.4-31.4,2.5-47.9c1.1-16.3,1.1-33.4,4.4-45.4c1-3.5,3.1-5.8,3.8-8.8
			C194.4,130.8,193.4,101.9,209.6,98.5z"/>
		<path class="st0" d="M481.8,536.9c1.8-7.9-1.2-15.6-1.9-22.7c-0.9-9.1,2.6-20.2,3.8-31.5c1.1-10.5,2-22,2.5-32.8
			c1.1-24.1-1.1-48.8,1.3-69.3c0.9-7.7,3.3-14,1.9-21.4c-0.7-3.6-3.3-7.2-3.8-10.7c-1.5-10.4-0.8-22.2-1.9-34
			c-1.9-20.5-4.4-42.1-7.6-63c-3.5-23-4.8-42.1-8.8-65.5c-1.5-9-2.9-18.7-5.7-25.2c-1.6-3.7-5.1-5.9-6.9-9.5c-2-4-2.6-9.3-4.4-13.9
			c-2.8-7.1-8.6-12.2-7.6-23.3c0-0.6,0-1.3,0-1.9c9.1,0.6,15.4,10.4,18.3,20.2c1.3,4.7,5.9,13.5,6.3,17.6c0.3,3.2-1.4,6-1.3,8.8
			c0.2,2.8,2.6,6.3,3.1,10.1c0.4,2.9-0.6,6,0,8.8c0.6,3.2,3.6,5.6,5,9.5c2.9,7.5,3.5,18.2,6.3,25.8c1.2,3.3,4,6,5,9.5
			c2.8,9,3.1,20.4,4.4,30.9c2.6,20.7,5.9,40.2,7.6,63c0.9,11.6,4,24,2.5,32.8c-0.5,3-4.2,7.3-4.4,10.1c-0.2,2.3,1.4,3.6,1.9,6.3
			c0.4,2.6-0.4,5.5,0,7.6c0.6,2.8,2.5,4.8,3.1,7.6c2.4,10.1,0.8,26.2,0.6,38.4c-0.2,16-2.8,36.2-4.4,52.3c-1.5,15-1.8,31-5,41.6
			C489.6,520.3,481.8,526.2,481.8,536.9z"/>
		<path class="st0" d="M513.9,201.8c-7.8,0.8-9.2-7.5-10.7-13.2c-3.4-12.6-6.5-24.8-11.3-36.5c-2.4-5.7-6.2-10.6-7.6-15.8
			c-1.8-6.9-2.1-10.8-8.2-13.2c-0.4-2.5,1.7-2.5,1.3-5c4.8,0.4,6.7,3.8,10.1,5.7c0.7,1.4,0.4,3.8,1.3,5c11.5,9.7,16.1,27.9,21.4,46
			C512.7,183.4,519.1,193.9,513.9,201.8z"/>
		<path class="st0" d="M147.9,122.4c-3.7,9.5-8.4,18-18.9,20.8C127.9,134.3,138.5,116.9,147.9,122.4z"/>
		<path class="st0" d="M505.1,126.8c4-1.2,8,2.9,9.5,6.3C510.3,132.1,507.4,129.7,505.1,126.8z"/>
		<path class="st0" d="M163,126.8c1.7,0.9,0.3,9-2.5,9.4C158.6,132.7,163.2,130.7,163,126.8z"/>
		<path class="st0" d="M239.2,129.3c4.9,9.9-2.2,22.2,0,34.6c0.5,3,3.8,5.3,4.4,8.2c2.5,11.3,0.2,35.6-0.6,46
			c-1.1,13.8,4.6,25.8-12,23.9c-5-7.1-3.1-19-3.1-29.6c0-13.4-1.9-28.2,0.6-39.1c0.9-3.6,3.9-6.3,4.4-9.5c1.9-11.8-2-24.2,3.1-33.4
			C236.5,129.3,238,128,239.2,129.3z"/>
		<path class="st0" d="M540.4,149.5c-6.7-5-13.7-9.9-20.8-14.5c-0.1-0.7,0.1-1.1,0.6-1.3C529.7,133.7,536.3,141.9,540.4,149.5z"/>
		<path class="st0" d="M117,138.1c-2.4,6.6-6.7,12.5-10.1,18.9c-3,5.7-6.1,14.1-13.9,15.1c-0.7-6.4,3.6-13.9,6.9-19.5
			c3.4-5.7,10.9-11.6,15.1-15.1C116.1,137.3,116.2,138.1,117,138.1z"/>
		<path class="st0" d="M519.6,142.6c6.3,1.2,10.7,10,13.9,16.4c3.2,6.5,8.9,16.9,3.1,22.1c-8.3-2.3-10.4-15.6-14.5-23.9
			c-2.5-5.1-5.9-7.6-3.8-14.5C518.7,142.6,519.2,142.6,519.6,142.6z"/>
		<path class="st0" d="M160.5,156.4c1.7,6.1-2.6,12.6-3.8,20.8c-2.1,14.5,0.7,33.2-14.5,33.4c-3.5-5.4-0.6-16,1.3-25.8
			c1.7-8.8,3.4-19.4,5.7-24.6C150.9,156.2,155.8,151.7,160.5,156.4z"/>
		<path class="st0" d="M118.3,169c8.1,5.7,1.4,20.4-0.6,30.9c-0.8,3.9-2.3,7.8-3.2,12c-1,4.7-0.7,9.8-1.9,13.2
			c-1.4,4.2-5.9,7.5-6.9,11.3c-1.2,4.3-1.9,12.1-1.3,16.4c0.5,3.5,3.3,5.7,3.8,8.8c1.2,7.3-1.7,17.6-1.9,24.6
			c-1.3,40.2,3.4,82.3,8.2,117.2c0.3,2.2,3.5,17-5.7,16.4c-6-0.4-10.2-28.6-11.3-35.9c-3.1-20.2-5-43.5-5-68.7
			c0-17.8-0.4-36.8,2.5-51.7c2.1-11.1,7.3-18.1,7.6-26.5c0.1-3.1-1.8-6.2-1.9-9.5c-0.2-6.3,2.7-16.5,4.4-25.8
			C107.6,187.5,110.9,175.9,118.3,169z"/>
		<path class="st0" d="M80.5,171.5c-3.1,9.1-6.4,23.4-17.6,26.5c-0.6-6.1,5.3-9.2,7.6-13.9c2.5-5.1,3.5-10.6,8.8-13.2
			C79.9,170.8,80.3,171,80.5,171.5z"/>
		<path class="st0" d="M559.3,189.8c0.4,0,0.8,0,1.3,0c6.8,3.3,8.9,12.8,11.3,20.8c2.5,7.9,4.5,17,6.3,25.2
			c1.4,6.4,2.8,13.5,1.3,19.5c-7.3-5-7.9-18.3-10.7-28.4c-2.8-10.2-5.9-20.5-8.8-29.6c-0.6-1.8-0.6-3-0.6-5.7
			C559.3,191.1,559.3,190.4,559.3,189.8z"/>
		<path class="st0" d="M66,206.2c1.7,7.3-5.1,12.3-8.2,17.6c-3.4,5.8-5.1,12.6-10.1,17c-3.3-0.3-4.3-2.8-8.2-2.5
			c-0.5-4.5,1.6-6.4,3.1-8.8c2-0.5,1.9,1,3.1,1.3c2.4-4.7,6.5-8.4,9.5-13.2C57.7,213.5,59.2,206.1,66,206.2z"/>
		<path class="st0" d="M564.9,386.4c-5.3-4.7-4-11.4-4.4-22.1c-0.6-15.4-1.4-34.6-3.2-52.9c-1.8-18.4-6.6-36.4-6.3-49.8
			c0.1-5.6,1.9-10.7,0.6-15.8c-2.4-9.2-11.9-16.7-5.7-27.1c6.7,3.8,10.7,7.1,9.5,17.6c-0.3,2.9-2.3,5.2-2.5,8.2
			c-0.4,6.9,5.2,11.5,7.6,18.3c1.6,4.4,2.4,10.7,3.1,16.4c3.8,29,7.2,67.5,6.9,98.9C568.7,380.9,566.7,383.6,564.9,386.4z"/>
		<path class="st0" d="M34.5,249c0.5-0.1,0.6,0.2,0.6,0.6c0.5-0.1,0.6,0.2,0.6,0.6c-4,21.9-11.8,45-13.9,69.9
			c-1.1,12.6,1,29.6-4.4,40.3c-5.5-4-2.8-11.9-2.5-17.6C16.5,308.9,23.4,272.7,34.5,249z"/>
		<path class="st0" d="M139.1,282.4c11.1-0.3,10.9,13.3,10.1,26.5c-0.2,3.7-6.4,11.1-10.7,10.1C131.6,317.3,132.5,285.1,139.1,282.4
			z"/>
		<path class="st0" d="M355.8,359.3c-19.3,17.4-17.3-15.5-18.3-37.2c-0.2-4.8-1.5-11.5,0-14.5c4.4-5.1,13.5-1.8,15.1,2.5
			c1,2.6,0.2,5.5,0.6,9.4C354.4,331.7,357.7,349.9,355.8,359.3z"/>
		<path class="st0" d="M185.7,319.6c0.5-0.5,0.4-1.7,1.3-1.9c10,4.4,10.6,11.9,12,26.5c0.5,5.3,1.7,11.2,1.3,15.1
			c-0.4,3.1-2.7,5.7-3.1,8.8c-0.8,5.8-0.5,15.8,1.3,22c1,3.6,4.6,5.2,6.3,9.4c3.4,8.2,3.4,24.3,5,34.7c3.2,20.3,8.5,43.4,12.6,63
			c1.2,5.6,3.6,11.6,3.1,15.1c-0.3,1.9-3.4,7.3-6.3,7.6c-8.1,0.7-10.1-17.4-12-25.2c-5.6-23-8.6-38-12.6-61.1c-1.6-9.5-5-21-5-31.5
			c0-2.6,1.1-4.8,1.3-7.6c0.5-10.7-4.2-21-6.3-31.5C181.8,350,180.8,329.4,185.7,319.6z"/>
		<path class="st0" d="M38.3,321.5c5.9,10.7,2.7,28.2,3.8,44.1c2.1,30.6,7.8,57.3,15.8,82.5c4,12.7,9.9,25.7,8.2,38.4
			c-10-5.4-11.7-19.3-15.8-31.5c-7.6-23-14.3-49.1-16.4-78.1c-1-14.5-5.8-44.8,1.9-54.2C36.4,322,35.9,319.5,38.3,321.5z"/>
		<path class="st0" d="M522.1,487.8c-3.9-11.2,0.7-23.4,1.9-35.9c2.2-23.8,4.1-52.4,3.1-79.4c-0.4-12.2-5.7-40.5,1.9-46.6
			c0.6-0.5,0-2,1.3-1.9c2.2,0.3,7.5,7.9,8.2,10.1c1.6,5.2,1.3,15.6,1.3,21.4c0,37.4-2.3,86.3-7.6,121.6
			C531.4,482.5,529.3,488.8,522.1,487.8z"/>
		<path class="st0" d="M445.9,330.3c4.7,5.5,1.4,11.7,3.1,18.9c1.4,5.6,6.2,7.4,7.6,12c1.7,5.7,0.4,14.7,0.6,23.3
			c1.3,45.2,1,86.3-3.8,130.4c-1.5,13.5-2.5,26.8-4.4,39.1c-1.3,8-4,15.2-5,22.7c-1.1,7.6,0.4,19.5-11.3,19.5
			c-2.3-9.7,0.2-21.8,1.9-34c6.6-46.5,10-101.8,8.2-154.3c-0.5-15-1.8-30.7-1.3-45.4c0.1-3.7,1.6-7.1,1.9-10.7
			c0.5-6.5-1.2-13-0.6-19.5C443.3,331.1,443.9,330,445.9,330.3z"/>
		<path class="st0" d="M588.2,332.8c7.7,6.6,5.2,18.3,5.7,27.7c1.3,27.4-2.1,54-6.3,78.1c-4.1,23.3-7.8,47.6-15.8,66.1
			c-1,2.3-3.3,4.3-4.4,6.9c-4.6,10.7-5.9,25.7-15.8,30.9c6.4-21.9,15.4-43.3,21.4-67.4c7.6-30.2,13-61.7,13.2-98.9
			c0.1-13.6-2.4-27.7-0.6-41.6C586.3,333.8,586.7,332.7,588.2,332.8z"/>
		<path class="st0" d="M150.4,345.4c3.2,9.4-3.2,14.3-8.2,17.6c-6.7-2.1-6.3-17.2-1.9-21.4C143.4,343.1,147.9,343.3,150.4,345.4z"/>
		<path class="st0" d="M65.3,363.1c8.5,0.6,7.3,7.8,8.2,18.3c0.4,5.2,2.2,9.4,1.9,13.9c-0.5,7-5.6,12.3-1.9,21.4
			c1.4,3.6,6.6,5.8,8.2,8.8c2.5,4.9,3.1,13.4,5,20.2c7,24.7,16,52.1,26.5,74.3c9.4,20,20.7,37.1,30.2,56.7c2.7,5.5,7.6,13,5,19.5
			c-6.3-0.6-8.9-7.7-12-12.6c-22.7-36.6-43.3-79.2-58-125.4c-3-9.6-7.3-21.6-7.6-29.6c-0.2-6.9,1.8-12.4-0.6-18.9
			c-1.2-3.3-3.8-5.3-5-8.8c-1.3-3.6-1-9.3-1.9-14.5C62,377.4,58.6,369,65.3,363.1z"/>
		<path class="st0" d="M20.6,407.8c-4.2-5.5-8.5-21-2.5-27.1C23.8,384.2,25.6,403.4,20.6,407.8z"/>
		<path class="st0" d="M155.4,389.5c2.2,9.2,4.8,24.2-5.7,23.3c-8.4-0.7-8.4-20-5.7-28.4C146.7,385,152.5,387.3,155.4,389.5z"/>
		<path class="st0" d="M356.4,388.3c2.5,2.1,3.1,6.2,3.1,10.7c-2.3,4-8.5,6.8-14.5,5C338.8,396.7,344.1,382.6,356.4,388.3z"/>
		<path class="st0" d="M282.1,603.7c-10.2-2.4-10.3-15.5-12.6-25.8c-4.6-20.6-8.1-39.9-12.6-63c-2.2-11.1-5.9-23.1-5.7-32.1
			c0.1-3.4,1.8-6.9,1.9-10.1c0.1-4.3-1-10.2-2.5-14.5c-1.2-3.3-4-5.8-5-8.8c-2.7-7.8-2-17-3.1-26.5c-1.2-10.1-7.5-30.2,1.9-32.1
			c2.4-0.5,8.8,2.3,10.1,4.4c3.6,5.8,3.6,30.1,5,39.7c0.5,3.5,2.2,7.7,1.9,10.1c-0.6,4.9-5,6.6-5.7,10.7c-0.5,3.1-0.2,10,1.3,14.5
			c1.4,4.4,7.1,4.8,9.4,10.1c1.1,2.5,0.7,6.8,1.3,10.7c4.1,26.7,11.9,62.9,16.4,91.3C285.5,592.2,288.8,596.8,282.1,603.7z"/>
		<path class="st0" d="M563,402.7c9.4,8.6,5,24.1,2.5,41c-2.9,19.9-6.9,37-10.7,55.4c-1.7,8.4-3.8,19.8-12.6,20.2
			c-2.4-8.4,1.6-17.4,3.8-25.8c4.2-16.2,7.9-34.3,10.1-52.9C557.8,426.5,557,411.8,563,402.7z"/>
		<path class="st0" d="M352,429.2c5.9-1.3,9.9,1.3,9.5,6.3c-0.7,7.2-13.8,7.8-15.1,1.3C345.3,431.6,347.9,430.1,352,429.2z"/>
		<path class="st0" d="M29.4,441.8c4.8,3.1,5.5,10.6,7.6,16.4c2,5.5,6.1,12.1,3.1,17.6c-7.7-7-13.4-22.1-12-34
			C28.6,441.8,29,441.8,29.4,441.8z"/>
		<path class="st0" d="M164.9,453.1c3,3.9,16.4,37,3.8,37.8c-10.2,0.6-11.2-25.9-13.2-34.7C157,453.7,160.3,452.7,164.9,453.1z"/>
		<path class="st0" d="M44.6,487.2c0.4,0,0.8,0,1.3,0c7.6,6.7,11,17.7,15.8,27.1c4.8,9.5,11.9,18.1,13.9,27.7
			c-5-1-7.2-7.2-10.1-11.3c-2.7-4-5.7-8.1-8.2-12.6C52.3,509.2,44.6,496,44.6,487.2z"/>
		<path class="st0" d="M107.6,563.4c-7.5,0.3-9.3-8.5-12.6-13.9c-6.9-11.4-13.2-21.8-20.2-35.3c-4-7.9-8.6-13.6-8.8-22.7
			c0.3-0.5,0.7-1,0.6-1.9c0.6,0,1.3,0,1.9,0c10.2,9.3,14.3,24,20.8,36.5c3.1,6.1,6,13,9.4,18.9C102.1,550.9,109.3,555.8,107.6,563.4
			z"/>
		<path class="st0" d="M157.3,547c2,4.8,5.3,10.2,7.6,15.8c2.1,5.1,6.6,11.7,2.5,17c-7.8,0.2-9.5-8.8-12-13.9
			c-2.8-5.6-6.8-11.3-7.6-17.6C149,545,154.6,545.4,157.3,547z"/>
		<path class="st0" d="M226.6,547.6c5.4,7.4,5.9,19.8,8.8,29.6C231.2,569.4,225.8,556.4,226.6,547.6z"/>
		<path class="st0" d="M231.7,656c-7.2-2.5-10.4-11.5-13.9-19.5c-6.4-14.7-13.5-30.3-19.5-46c-3.2-8.4-8.2-16.5-9.4-23.3
			c-1.9-10,4.2-8.5,10.1-4.4c8.5,18.7,14.7,39.4,22.7,58.6C226.1,632.1,236.1,643.3,231.7,656z"/>
		<path class="st0" d="M366.5,622c2.3,12-0.9,23.8-1.3,35.3c-1.5,1.1-4.5,3.9-6.3,2.5c-3.6-1.2-3.1-9.9-3.1-17.6
			C355.6,629.5,353.4,614.9,366.5,622z"/>
		<path class="st0" d="M158,643.4c3.9,2.8,8.9,4.5,10.7,9.5C163.9,650.9,160.1,647.9,158,643.4z"/>
	</g>
</g>
</svg>
