<?xml version="1.0" encoding="utf-8"?>
<!-- Generator: Adobe Illustrator 15.0.0, SVG Export Plug-In . SVG Version: 6.00 Build 0)  -->
<!DOCTYPE svg PUBLIC "-//W3C//DTD SVG 1.1//EN" "http://www.w3.org/Graphics/SVG/1.1/DTD/svg11.dtd">
<svg version="1.1" id="Layer_1" xmlns="http://www.w3.org/2000/svg" xmlns:xlink="http://www.w3.org/1999/xlink" x="0px" y="0px"
	 width="612px" height="792px" viewBox="0 0 612 792" style="enable-background:new 0 0 612 792;" xml:space="preserve">
<style type="text/css">
<![CDATA[
	.st0{fill-rule:evenodd;clip-rule:evenodd;}
]]>
</style>
<g>
	<g>
		<path class="st0" d="M378.6,50.9c-0.3,3.3,3.8,15.1-3.9,13.6c-3.5-0.6-4-4.7-2.6-9.8C343.6,54.1,329.8,77,316.2,97
			c-10.3,15.1-19.5,29.6-27.9,43.6c-18,29.8-38.8,58.7-56.6,86.4c-4.6,7.2-9.3,14.3-14.3,21.5c-24.2,34.6-49.1,70-74.1,104.6
			c-9.9,13.8-22.3,26.4-27.9,42.9c-4.4,1.2-5.2,6.7-7.8,11.7c-3.6,7.1-10,8.9-8.4,18.8c0.4,2.5,2.3,5.6,3.9,5.9
			c7,1.3,10.5-14,14.9-19.5c2.8-3.4,7.3-5.4,9.8-9.1c0.8-6.5,6.3-8.4,7.8-14.3c4.8-2.2,4.5-11.4,11.7-9.8c8.7,2,0.6,15.2-2.6,19.5
			c-9.3,12.4-16.6,22.2-26,33.8c-6.6,8.2-18.2,22.6-8.5,33.2c5.4-2,9.4-7.5,13-11.7c11-13,21.8-27.6,32.5-41.6
			c14.4-18.8,26.2-39.5,42.9-55.9c0.3-2.7,2.3-3.8,2.6-6.5c8.6-9.4,18.2-19,26-29.9c1.2-1.6,1.4-4.2,2.6-5.9c2.8-4,6.4-8.9,9.8-13.6
			c6.6-9.3,14.2-20,20.8-30.5c3.4-5.4,7.7-10.5,11.1-15.6c1.1-1.7,1.3-4,2.6-5.9c1.7-2.5,4.8-4,6.5-6.5c4.5-6.8,7.9-14.2,13-20.8
			c4.9-6.3,10.4-12.9,14.3-19.5c2.6-4.4,3.7-9.9,6.5-14.3c2.1-3.4,5.9-5.6,7.8-9.1c2.2-4,3.4-8.3,5.8-12.4c2.2-3.7,5.4-6.7,7.8-10.4
			c12-18.6,24.8-41.2,37.7-61.1c8.9-13.7,14.9-22.2,31.2-27.3c1.2,3.3-3.4,5.3-5.2,8.5c-0.9,1.6-1.5,5.3-2.6,7.1
			c-5,8.6-12.1,16.6-17.6,25.4c-16,25.8-30.9,53.1-47.4,79.3c-10.5,16.6-21.9,34-33.2,52c-10.8,17.5-24,33.5-35.1,49.4
			c-11.6,16.5-22.6,33.7-35.1,50c-12.1,15.8-24.6,31.5-37,47.5c-18.4,23.4-37.4,46.4-56.5,70.8c-6.3,8.1-16.8,18.9-17.6,24.7
			c-0.8,6,2.1,14.5,7.8,15c6.2,0.4,22.6-20.4,26-24.7c3.9-5,7.5-9.9,11-14.3c3.9-4.7,8.8-9.2,11-13.7c1.4-2.7,1.6-6.7,2.6-8.5
			c5-8.8,14.3-14.4,20.8-22.8c5.8-7.4,10.9-15.9,16.9-23.4c2.9-3.7,6.2-7.5,9.1-11.1c6.5-8.1,12.5-16.3,18.8-25.4
			c1.7-1.3,3.8-2.2,5.9-3.3c0.7-6.9,8.1-7.1,8.5-14.3c2.1-1.5,3.7-3.7,6.5-4.5c1.4-3.3,8.7-22.2,16.9-19.5c9,3-2.2,17.2-3.9,19.5
			c-20.5,28.1-42,55.6-63.7,83.2c-18.2,23.1-36.3,39.6-55.3,63c-10.5,13-21.4,20.8-27.3,35.1c-9.2,2.6-12.3,11.4-19.5,18.9
			c-2.7,2.8-7.4,4.7-9.1,7.1c-2,2.9-2.1,7.4-3.9,10.4c-2.6,4.3-8.5,7.1-12.4,11.7c-1.8,2.2-2.9,5.2-4.5,7.1c-2.6,3-6.7,4.8-9.8,7.8
			c-3,3-5.5,8.4-10.4,7.2c-5.3-7-0.2-11.6,4.6-16.9c4.9-5.6,7.8-8,13-13c8.1-7.7,7.1-16.7,20.1-16.3c3.8-3.7,8.1-9.4,12.4-14.9
			c3.9-5,9.6-12.1,10.4-16.9c1.1-6.7-2.6-15-6.5-15.6c-7.3-1.2-13.1,13.3-17.5,18.8c-2.8,3.4-6.3,6.1-9.1,9.8
			c-2.6,3.5-4.7,8.1-7.1,11c-2.2,2.7-6.1,4.3-8.5,7.2c-2.6,3.1-3.6,7.5-6.5,11c-2.5,3-7,4.8-9.8,7.8c-9,10-16.1,22.7-22.8,29.9
			c3.6-19.8,20.1-32.3,26.6-51.4c7.2-3.3,8.6-12.5,13.6-18.8c5.1-6.3,12.4-11.8,17.6-19.5c5.3-8,13.2-13.9,14.9-21.5
			c1.2-5.2-0.5-12.6-4.5-13c-6.4-0.7-10.4,13.7-13.6,18.9c-2.9,4.6-9.1,8.7-12.4,14.3c-2,3.4-2.7,7.6-4.5,10.4
			c-4.4,6.7-11.9,10.9-13.7,20.2c-2.7,1.4-5.7,2.6-7.8,4.5c-2.2,4.3-2,11-7.8,11.7c-1.2-6.9,5.4-11.3,7.1-16.3
			c2.9-8.4,1.6-13.3,5.2-18.8c3.5-5.5,11-10.2,12.4-19.5c13.3-10.3,18.9-28.3,29.9-41c-0.4-4.4,1-10.5-1.3-13
			c-8,3.2-10.3,13.2-15,20.1c-2,3-5.3,5-7.1,7.8c-3.1,4.5-3.8,9.8-6.5,14.9c-2.1,4-5.5,7.1-7.8,11.1c-2.4,4-3.8,8.6-7.1,11.7
			c-7.1-11.1,2.6-22.1,7.1-29.9c2.1-3.6,3.4-8.1,5.2-11c1.9-3.1,5.7-5.3,7.8-8.5c3.1-4.5,5.8-11.2,9.1-16.9
			c6.8-11.5,17-21.3,10.4-39.6c1.8-6,2.2-13.4,1.9-21.4c-1-3.1-6.4-1.9-7.1-5.2c-1.9-6.4,3.6-10.5,5.2-15.6
			c2.1-6.7,0.8-14.7,2.6-21.4c1.3-5,3.5-9.6,4.5-15c1-5.4,2-10.6,3.9-15.6c7.2-19.2,9.7-37.3,22.8-50c3-10.6,6.7-21.7,11.7-31.9
			c3.6-7.2,8.1-16.8,14.9-18.2c1.3,9.1-5.1,16.4-8.4,23.4c-7.2,15.1-17.8,27.2-21.5,45.5c11.3-10.7,17.1-28.6,26-44.2
			c1.8-3.2,4-6,5.9-9.1c6.6-11.3,13.4-23.5,20.1-35.1c2-3.4,3-9.2,7.8-8.4c5.1,6.1-2.9,14.7-5.9,19.5c-10.7,17.7-20.5,37-31.2,55.9
			c-14,24.7-29.3,49.4-39,76.7c4.5-1.2,6.5-7,9.1-11.1c2.6-4,5.4-8.6,7.8-13c4.7-8.7,8.4-20.3,18.2-23.4c1.7,9.4-5.2,17.3-9.8,24.7
			c-4.4,7.1-8.9,14.3-13,22.1c-7.9,15-22.1,30.4-22.1,48.1c0,3.3,1.7,6.7,2,9.8c0.5,6.7-3.4,14.3,1.3,20.8
			c11.6,0.7,12.2-10.4,17.6-17.6c1.9-2.5,5.2-4,7.1-6.5c6-7.5,10.7-17.8,16.9-27.3c11.3-17.2,23.1-34.7,35.1-52.6
			c6-9,13.8-17.5,17.5-26c1.3-2.9,1.3-6.4,2.6-9.1c2.6-5.3,8.1-10.4,11.7-16.3c10.5-17,22-34.3,33.8-49.4
			c10-19.3,21.8-36.7,34.5-53.3c5.8-12.5,13.7-24.1,21.4-35.1c7.8-11.1,14.3-23,22.8-33.1c4.9-5.9,12.8-9.5,14.9-17.5
			c-16.4-1.8-25.6,9.1-35.7,15.6c1.6-6.7,11.5-8.4,8.4-17.6c-2.3-1.8-7.3-1.9-9.8-1.3c-7.3,1.7-18.9,15.5-24.7,22.8
			c-15.2,19.1-25.2,36.2-38.4,56.5C221,151.7,208.6,168.6,196,188c-12,18.5-24.2,37.1-36.4,55.9c-4.6,7-8,14.1-13,21.4
			c-0.7,1-2,4.9-4.5,3.9c6.3-9.2,10.3-19.5,16.3-29.3c2-3.2,5.6-5.4,7.8-8.4c7.1-9.7,12-23.6,18.9-35.1c3.3-5.6,6.9-11.5,10.4-16.9
			c3.6-5.4,8.1-11.1,10.4-16.3c1.1-2.4,0.9-5.4,2-7.8c3.1-7.4,9.2-14.9,13.6-22.8c4.3-7.6,9.5-15.1,14.3-22.1
			C245.7,96,255,80.4,265.5,68.4c6-6.8,13.9-11.3,18.2-18.9c-7.4-3.6-12.5,5.5-21.4,4.5c-0.5-4.8,3-5.7,2.6-10.4
			c-8.8,1.1-16.1,5.4-22.1,10.4c-12.1,10.2-17.8,27.8-31.2,33.8c3.3-16.5,16.5-29.6,28.6-39.7c2.9-2.4,6-6.6,8.5-7.8
			c5.8-2.7,10.5,0.1,16.9,0.6c13.5,1.1,27.9,0.2,42.2,1.3c9.1,0.7,18.4,0.6,27.3,1.3c5.1,0.4,10.8,2.8,16.3,3.3
			C362.3,47.9,372.6,45.3,378.6,50.9z M114.1,279.7c0.3-1.5,3.6-3.3,2-4.6C115.1,276,112.6,278.5,114.1,279.7z"/>
		<path class="st0" d="M387.1,54.1c0.1-1.4,2.8-0.3,3.9-0.6C391,55.2,387.9,55,387.1,54.1z"/>
		<path class="st0" d="M368.2,68.4c1.9,6.3-3.2,10.5-9.1,11C352.3,74,360.5,63.2,368.2,68.4z"/>
		<path class="st0" d="M463.8,71c-4.6,4.7-11.9,2.8-17.5,5.2c-3.1,1.3-14.4,7.9-16.9,11c-2,2.5-1.9,6.4-3.3,9.1
			c-1.9,3.9-5.7,8.5-8.5,13c-2.8,4.6-5.1,10.3-7.8,13.6c-1.9,2.4-5.2,3.5-7.2,5.9c-7.2,8.7-10.7,21-16.3,30.6
			c-5.6,9.7-11.5,18.6-18.8,26c6.1-15.4,15.3-30.7,24-46.2c2.8-4.9,7.2-10.4,7.8-14.9c0.3-2.6-1-5.4-0.7-7.8c0.6-4,4.4-9.2,7.8-14.3
			c5.2-7.9,8.7-15.1,18.2-17.5C425.3,68.6,450.9,62.5,463.8,71z"/>
		<path class="st0" d="M472.2,85.3c0.4,0,0.9,0,1.3,0c1.2,2.8-4.3,3.7-5.8,5.9c-5.3,11.2-12,20.8-17.5,31.8
			c-5.3,10.5-10.1,22.3-16.3,32.5c-2,3.4-5.6,5.8-7.8,9.1c-4.4,6.9-8.9,16.1-12.4,24.1c-3.7,8.5-7.9,16.9-13,25.3
			c-4.8,8-8.6,17.1-13.6,24.1c-3.1,4.3-7.8,7.1-11.1,11.7c-6.2,8.6-11.2,17.8-17.5,27.3c-3,4.6-7.1,8.7-9.1,13
			c-1.1,2.5-0.8,5.4-2,7.8c-2.2,4.5-7.1,10.1-11,15.6c-10.4,14.5-23.2,30.7-33.8,44.9c-15.3,20.5-30.5,40.3-46.1,58.5
			c-23.6,27.5-48,57-72.8,84.5c-16,17.7-32,32.2-48.1,49.4c-3.6,3.8-7.2,8.2-11.1,11.7c-12.9,11.8-23.9,24.2-37.7,36.4
			c-5.2,4.6-10.4,10.2-14.3,12.4c-2.1,1.1-5.1,0.9-7.1,2c-10.2,5.1-15.9,16.3-27.9,18.8c6.9-9.1,16.9-15.1,26-22.1
			c1.9-11.4,12.8-16.1,20.1-23.4c6-5.9,10.3-12.6,18.2-14.3c11-8.6,18.1-18.5,29.3-29.3c8.1-7.8,16.4-13.7,19.5-24.7
			c21.7-23.5,42.3-48.4,63.7-72.8c6.3-7.2,11.5-13.6,18.2-21.5c6.8-7.9,12.1-16.8,20.8-23.4c3.6-8.1,9-14.4,15.6-19.5
			c0.8-5.3,4.1-8,7.8-10.4c3.3-8.2,8.7-14.3,15-19.5c6.1-10.1,12.2-20.3,20.8-28c3.1-8.6,8.9-14.5,14.9-20.1
			c3.2-8.3,7.3-15.7,15.6-18.9c8.3-14.1,21.3-25.5,29.3-41.6c2.3-4.8,2-10.5,3.9-15.6c1.6-4.3,6.3-8.2,9.1-13
			c1.6-2.8,2.3-5.8,3.9-8.4c3.1-5,6.3-13.4,10.4-18.2c1.9-2.3,5.8-3.5,7.8-5.9c2.4-2.9,4.4-8.7,7.2-13c4.5-7.1,7.5-10.2,7.1-20.1
			c4-9.5,10.5-19.5,16.3-31.2c4.3-8.8,10.6-24.3,19.5-28C462,87.3,467.4,88.5,472.2,85.3z"/>
		<path class="st0" d="M352.6,86.6c1.3,12.2-7.5,19.5-13.7,28.6c-4.7,6.8-8.4,14.7-12.3,19.5c-1.7,2-4.8,2.7-6.5,4.5
			c-4.5,5-5.8,12.6-11.7,15c0.7-7.6,8-11.3,9.1-18.9c0.4-2.8-1.2-5.9-0.6-9.1c0.7-3.7,7-11,10.4-16.3c3.8-6,7.5-12.1,10.4-16.3
			C340.4,89.9,345.7,85.7,352.6,86.6z"/>
		<path class="st0" d="M205.7,96.4c-3,10.9-6.4,27-17.5,31.9C184.5,113.1,199.8,106.1,205.7,96.4z"/>
		<path class="st0" d="M514.5,106.8c-11.5-0.2-18.1,4.4-26,7.8c0.7-10.6,4.9-18.3,16.3-16.3C508.3,99,514,102,514.5,106.8z"/>
		<path class="st0" d="M483.3,124.3c0.2,12.7-3.7,26.5-14.9,29.9C461.9,142.8,468.5,122.1,483.3,124.3z"/>
		<path class="st0" d="M524.2,126.9c-0.4,6-3.9,15.7-9.1,14.9c-3.3-0.5-5-7.9-4.5-11C511.6,123.8,518.6,122.1,524.2,126.9z"/>
		<path class="st0" d="M438.4,370.7c-23.1,32.6-49.2,62.2-74.8,93c-8.1,9.8-16.1,21.2-27.3,27.9c14.4-21.4,33.9-40.2,50.7-62.4
			c7.6-10,15.1-21.9,23.4-33.2c7.8-10.6,18.3-21.7,22.8-33.1c1.2-3,0.8-6.8,2-9.8c2.6-6.6,11-11.4,11.7-19.5
			c9.6-4.7,10.1-17.2,17.5-24.7c2-2,5.8-2.6,7.8-4.6c2.8-2.7,4.6-8.6,7.2-13c2.6-4.6,6.2-8.8,7.1-13c0.8-3.5-0.3-7.1,0.7-10.4
			c1.2-3.9,5.1-7,7.2-11c3.4-6.7,6.5-15.3,9.8-23.4c7.3-18,18.4-37.6,24-57.2c2.4-8.4,2.7-19.1,8.5-24.7c20.5-6.2,5.8,23.8,1.3,35.8
			c-8.6,22.7-15.8,41.4-25.4,62.4c-4.7,10.3-8.7,20.7-14.3,29.3c-1.7,2.6-4.9,4.8-6.5,7.2c-7.4,11-10.7,22-16.3,33.1
			c-3.6,7.3-10,14.6-15.6,22.8C452.4,352.8,449.1,365.3,438.4,370.7z"/>
		<path class="st0" d="M300.6,165.9c0.8,4.3-4,8.6-7.2,11C295,172.5,298.5,169.8,300.6,165.9z"/>
		<path class="st0" d="M457.9,175.7c-1.5,12.8-3.9,24.7-10.4,34.4c-1.5,2.3-4.2,3.5-5.8,5.9c-7.1,10.1-10.8,23.2-18.8,31.2
			c-3.1,16.6-15.6,27.2-24.1,39.6c-4.4,6.5-7.7,15.6-14.9,16.9c0.9-14.2,17.6-23,19.5-36.4c0.4-2.8-1.2-6.2-0.7-9.1
			c0.9-5.2,6.5-8.8,9.1-13c1.2-1.2,4.3-0.5,6.5-0.6c4.2-4,6.8-10,9.8-16.3c2.6-5.5,7.8-11.6,8.5-17.6c0.3-2.9-1.1-5.7-0.6-8.4
			c1.1-6.8,8.1-11.8,9.1-18.2C450.7,182.7,455.7,180.5,457.9,175.7z"/>
		<path class="st0" d="M480,216c0.6,0,0.5,0.8,0.7,1.3c-4.4,23.1-13.8,41.2-25.3,57.2c-1.8,10.7-9.1,16.5-14.3,25.4
			c-9.6,16.4-19,32.4-30.5,48.1c-27.3,37-56.6,74.3-86.5,109.8c-15.7,18.7-33.1,34.8-49.4,53.3c-10.5,4.2-14.8,14-21.5,22.8
			c-10.5,13.9-27.6,25.9-41.6,41c-14.3,15.3-28.5,28.3-43.5,38.4c-4.5,3-7.8,7.3-11.7,9.8c-10.8,6.8-22.8,12.6-32.5,20.8
			c-4.1,3.4-6.1,7.7-9.8,10.4c-8.4,6.1-21.4,10.3-31.2,16.3c-11.8-0.7-22,9.7-32.5,3.9c2.7-4.2,8.1-2.8,12.3-3.9
			c3.9-1.1,7.3-3.8,11.1-5.2c2.8-1.1,6.5-0.7,9.1-2.6c3.1-2.2,4-6.8,6.5-9.1c2.3-2.1,7.2-4.2,11-6.5c3.6-2.1,7.6-5.7,11-6.5
			c2.3-0.5,5.2,0.7,7.8,0c6.6-1.7,15.4-11,22.8-16.9c6.9-5.6,18.3-11.8,22.1-17.5c1.9-2.9,1.8-7.1,3.3-9.1c2.2-3,6.7-4.4,9.8-7.2
			c18.4-16.8,35.9-37.8,55.3-52.7c2.5-6.6,8.9-9.3,11.7-15.6c11.9-2.4,21.3-15.8,29.3-24.7c3.3-3.7,7-7.9,10.4-11.7
			c6.2-6.8,8.3-11.2,12.4-19.5c4.8-9.8,15.4-16.2,22.1-24.7c1.2-1.5,1-3.9,2-5.2c2.6-3.8,7.6-5.2,8.5-9.8c1.7-1.3,3.8-2.2,5.8-3.3
			c1.6-4.2,3.3-8.4,7.8-9.8c0.7-3,2.4-5,3.3-7.8c15.8-14.6,25.3-35.3,41-50.1c4.6-14.7,17.8-20.8,22.8-35.1c1.9-1.3,3.4-3.1,5.2-4.5
			c16.9-29.7,35.8-57.4,51.3-88.4C472.8,225.6,476.7,221.1,480,216z"/>
		<path class="st0" d="M573.6,247.2c0.5,0.1,0.6,0.7,1.3,0.6c2.1,19.5-7.2,46.3-15,63c-2.8,6.1-7.5,10.5-9.8,16.3
			c-1.5,3.8-1.7,8.3-3.3,12.4c-2.5,6.4-7.4,13-11,19.5c-3.7,6.7-6.4,13.9-10.4,19.5c-2.4,3.3-5.9,5.8-8.4,9.1
			c-5.5,7.3-10.7,16.3-16.3,24.7c-7.7,11.8-14,20.8-20.8,33.2c-3.6,6.6-9.1,13.2-14.3,20.1c-4.9,6.5-9.8,14.3-15,19.5
			c-3.1,3.1-6.9,4.8-9.8,7.8c-7.6,8.1-17.7,18.2-24,27.9c-1.6,2.4-1.7,5.4-3.3,7.8c-5.6,8.4-15.5,16-23.4,24.7
			C352.5,595,311,634.2,264.9,667.7c-17.8,12.9-38,29.5-58.5,37c-5.7,2.1-10,3.3-14.3,5.2c-17.2,7.8-44.3,19.2-68.3,11.7
			c1.2-3.3,4.3-2.1,7.8-2c18.8-10.1,43.3-9.2,60.4-18.8c5.1-2.9,9.2-7.4,14.3-10.4c15-8.8,30-17.8,44.2-28
			c19-13.6,36.1-29.3,54-42.3c5.9-9.2,15.6-14.7,23.4-22.1c7.1-8.1,14.3-16,23.4-22.1c9.7-12.8,20.9-24.2,33.1-34.4
			c5.4-7.1,11.9-17.8,19.5-23.4c1.8-1.4,4.4-1.4,6.5-2.6c5.2-3,10.2-10.1,15-15.6c5.1-5.9,11.3-10.9,13.7-16.3
			c1.3-3,0.7-6.7,1.9-9.8c1.8-4.5,6.4-8.3,9.8-12.3c7.1-8.6,14-16.4,20.2-26.7c11.1-4.4,17.5-18.9,25.3-28.6c3.1-3.9,6.2-8.4,9.1-13
			c2.8-4.5,7.1-9.4,8.5-13c1.1-3,0.4-7.9,1.9-12.4c1.9-5.5,8-12.1,11.7-19.5c3.6-7.2,7.1-15.8,10.4-20.8c3.7-5.6,8.8-8.3,11-16.3
			c1.7-5.9,1.9-11.4,3.9-16.9c1.7-4.7,3.9-9.5,5.8-14.9C562.4,269.3,566.2,249.9,573.6,247.2z"/>
		<path class="st0" d="M592.5,285.5c1.8,1.6,2.3,4.7,2,8.5c-0.8,2.4-5.3,1.2-5.8,3.9c-0.5,11.5-5,23-9.1,34.5
			c-4.9,13.7-7.3,29.7-18.2,35.8c-4.1-15.1,5.6-28.7,10.4-42.3c3.4-9.5,5-20.9,9.1-27.3c2.9-4.6,7.8-7.3,7.8-13
			C589.9,285.5,591.2,285.5,592.5,285.5z"/>
		<path class="st0" d="M381.2,307.6c1.6,12.7-7.9,21.4-13.6,29.3c-6.2,8.5-13.2,16.1-18.9,24.7c-9.2,5-15.2,16.6-22.1,25.4
			c-10.8,13.8-21.6,27.4-33.2,41c-5.4,6.3-10.2,14.9-18.8,17.5c0.5-9.3,9-15.2,14.3-22.1c10.9-14.1,21.7-26.6,33.8-41.6
			c4.9-6.1,13.8-15.1,15.6-21.5c1.1-3.8-0.2-8,1.3-11.7c1.2-2.9,6-7.8,9.8-13c1.4-1.9,2.9-4.5,4.5-6.5c1.6-2,4.3-3.2,5.8-5.2
			c1.4-1.9,1.3-4.7,2.6-6.5c1.1-1.6,3.7-2.8,5.2-4.5C370.8,308.9,373.4,303.3,381.2,307.6z"/>
		<path class="st0" d="M595.1,318c3.3,0.7,3.8,9.6,0.6,11.1C591.7,328.4,592.7,319.7,595.1,318z"/>
		<path class="st0" d="M77,369.4c2.4,10.2,3.8,24.2-7.1,26C69.5,383.9,72.9,376.2,77,369.4z"/>
		<path class="st0" d="M582.1,375.9c4.9,3.3,1.8,13.3-2,15.6C572.5,390.8,576.6,373.2,582.1,375.9z"/>
		<path class="st0" d="M64,415.5c2.8,1.5,0.9,9-2,9.1C58.8,422.6,61.8,416.2,64,415.5z"/>
		<path class="st0" d="M517.7,443.5c-4.5,10-11.5,17.6-18.2,25.3C505.4,460.2,509.6,449.9,517.7,443.5z"/>
		<path class="st0" d="M54.9,454.5c1.5,3.9,0.6,10.5-3.9,10.4C49.9,461.1,50.3,454.5,54.9,454.5z"/>
		<path class="st0" d="M520.3,496.1c-8.7-10,6.6-21.8,8.4-9.8C529.5,491,526.2,496,520.3,496.1z"/>
		<path class="st0" d="M483.9,490.9c-0.4,4.7-5.8,6.7-7.8,10.4c-1.5,2.8-1.2,6.7-2.6,9.8c-3.9,8.2-14.1,17.2-20.8,25.4
			c-7.5,9.1-14.3,18.4-20.8,24.7c-1.4,1.4-4.9,1.8-7.2,3.3c-2.7,1.8-4.2,6.1-8.4,5.8c-1-4.5,3.9-6.3,5.2-9.8c1-2.5,0.2-7,2-10.4
			c2.6-5,9.9-9.1,14.3-14.3c3.7-4.4,6.4-10,10.4-14.3c3.4-3.7,9.4-8,12.3-12.3c3.8-5.5,3.3-11,13.7-9.1
			C478.8,498.3,478.2,491.4,483.9,490.9z"/>
		<path class="st0" d="M146.6,583.2c-6.4-15,11.9-23.2,20.8-32.5c1.2-1.2,2-2.6,3.3-3.9c6.9-7.6,15.9-16.5,23.4-24.7
			c2.5-2.8,5.2-4.3,7.1-6.5c8.4-9.2,16.3-28.4,29.3-20.8c2.8,8.8-11.3,19.9-17.5,26.7c-14.5,15.8-27.8,28.2-42.9,42.9
			C162.8,571.3,156.9,581.5,146.6,583.2z"/>
		<path class="st0" d="M116,607.3c-3.5,8.4-11.9,14-18.9,18.9c-7.2,5.1-15.1,10.1-23.4,13.6c2.2-8,12.5-10.6,19.5-16.3
			c7.3-5.9,13.3-12.9,21.4-16.3C115.2,607.3,115.6,607.3,116,607.3z"/>
		<path class="st0" d="M99.8,685.3c-1.8-7.5,5.6-8.8,11-11c13.9-5.9,28.2-15.5,38.4-20.8c2-1.1,9-2.2,10.4,2
			c2,6.2-7.8,9.4-11.7,11.7c-4.9,2.9-10.5,6.3-15,8.5C122.4,680.7,111.5,689.7,99.8,685.3z"/>
		<path class="st0" d="M217.4,654c-1.8,2.3-4.2,4.1-7.8,4.6C210.5,655.4,213.2,653.9,217.4,654z"/>
		<path class="st0" d="M115.4,703.5c0.8-7.6,8.9-7.3,14.9-9.1c14.6-4.3,30.4-13.3,40.3-18.9c2.6-1.4,10.4-2.3,11.7,2
			c2.4,8-20.4,16.3-26,18.8c-4.7,2.1-10.7,3.9-16.3,5.9C131.3,705.2,121.7,710.8,115.4,703.5z"/>
		<path class="st0" d="M82.9,696.3c-2.7-0.8-4.4-2.5-5.9-4.5C77.9,679.1,91.2,690,82.9,696.3z"/>
		<path class="st0" d="M105,706c0.6,2.3-2.8,1.2-3.3,0.7C101.4,705.4,104.7,704.6,105,706z"/>
		<path class="st0" d="M154.4,736c3-6,15.4-3.9,22.8-5.2c6.4-1.2,14.4-5.3,20.1-5.8c3.8-0.4,10.5-0.2,10.4,4.5
			c-0.1,4.9-13.9,7.2-20.1,8.5C175.2,740.3,160.2,741.9,154.4,736z"/>
		<path class="st0" d="M208.3,750.9c0.1,3.2-3.7,4.2-6.5,4.5c-8.8,1.2-26.1-1.8-28.6-7.2C183.9,748.9,203.1,743.6,208.3,750.9z"/>
		<path class="st0" d="M188.8,74.3c1.4,8.1-4,16-7.8,22.8c-5.5,9.7-11.3,18.3-14.3,31.2c9.5-7.7,14.3-23.8,22.1-35.8
			c2.4-3.6,4.8-9.7,9.8-9.8c-1.1,10-7.2,19.1-12.4,28c-8.6,14.9-16.2,30.1-24,46.8c-2.7,5.9-5.8,13.5-12.4,16.3
			c-1.5-5.8,3.2-9.3,1.3-16.3c10.8-29.2,19.9-60.3,37-83.2C188.4,74.3,188.6,74.3,188.8,74.3z"/>
		<path class="st0" d="M560,193.2c6.4,10.1,0.4,22.6-3.3,35.1c-2.5,8.5-4.4,17.6-7.1,24c-1.4,3.2-4,5.4-5.2,8.5
			c-1.4,3.5-1.3,7.4-2.6,11c-8,22.7-21.7,44.5-33.8,66.3c-11.8,21.2-26.2,41.2-39,60.5c-19.4,29.1-42.2,57.5-65,84.5
			c-7.6,9-14.9,18.7-22.8,26.6c-6.3,6.4-13.5,11.7-19.5,18.2c-40.7,44.3-87.9,88.9-138.4,122.8c14-18.5,40.2-30.4,52.6-52.6
			c11.1-7.8,21-19.4,31.2-29.3c3.6-3.5,7.7-5.7,11-9.1c4.5-4.5,6.8-10.3,11.7-14.3c2.3-1.9,5.4-3.1,7.8-5.2
			c4.9-4.2,10.4-10.5,15.6-16.3c5.3-5.8,11.9-11.8,15-16.9c1.7-2.9,1.5-6.7,3.3-9.8c4.7-8.4,15-14.8,21.5-22.8
			c2.5-3.1,4.2-7.1,7.2-10.4c5.4-6.1,10.1-12.7,15.6-19.5c2.6-3.1,6.3-5.5,8.5-8.5c1.2-1.7,1.4-4.1,2.6-5.8c2.9-4.1,6.4-8.3,11-12.3
			c11-19.8,24.5-37.1,38.4-54c13.7-27,33.3-56.9,48.1-85.8c2.8-5.4,4-11.9,7.2-16.9c1.6-2.6,6.2-5.4,7.1-8.5
			c0.8-2.5,0.2-7.2,0.7-9.8c1.5-8.5,6.5-17.7,9.1-26.6C550.7,208.1,550.7,195.9,560,193.2z"/>
		<path class="st0" d="M552.8,384.3c-3.9,18.6-16.8,28.3-23.4,44.2c-2,0.6-2,3.2-4.5,3.3c-0.6,2.8-1.2,5.8-3.9,6.5
			c-0.5-4.2,2.7-4.7,3.9-7.1c1.9-7,7.5-11.9,11-18.2C541.4,403.1,543.5,390.7,552.8,384.3z"/>
	</g>
</g>
</svg>
