<?xml version="1.0" encoding="utf-8"?>
<!-- Generator: Adobe Illustrator 15.0.0, SVG Export Plug-In . SVG Version: 6.00 Build 0)  -->
<!DOCTYPE svg PUBLIC "-//W3C//DTD SVG 1.1//EN" "http://www.w3.org/Graphics/SVG/1.1/DTD/svg11.dtd">
<svg version="1.1" id="Layer_1" xmlns="http://www.w3.org/2000/svg" xmlns:xlink="http://www.w3.org/1999/xlink" x="0px" y="0px"
	 width="552px" height="567px" viewBox="0 0 552 567" style="enable-background:new 0 0 552 567;" xml:space="preserve">
<style type="text/css">
<![CDATA[
	.st0{fill-rule:evenodd;clip-rule:evenodd;}
]]>
</style>
<g>
	<g>
		<path class="st0" d="M483,134c18.1-5.8,10,24.8,8,42c-1.9,16.8,0.3,55.7-6,72c-1.3,3.4-2.4,4.9-6,6c7.9,4.1,5.8,15.5,5,27
			c-1.5,21.3-3.2,37.2-6,57c-0.9,6.4,0.5,16.2-1,23c-0.6,2.5-4,5.7-4,7c0,2.5,3.1,3.4,4,7c0.6,2.5-0.5,10.9-1,17
			c-1.3,15.9-5.5,44-7,63c-0.7,9.1,1.5,14.2-1,21c-3.8,10.5-8.8,11.4-22,12c-64.5,3.1-124.4,9-192,9c-16.2,0-40-0.2-62,2
			c-15.9,1.6-54.8,3.5-64-1c-6.8-3.3-9.3-18.8-13-28c-10.1-25.3-23.3-45.2-35-69c1.1-2.9,7.3-0.7,8-4c0.5-6.6-9.1,0.3-9-4
			c0-1.3,0-2.7,0-4c2.2-2.1,4.8,1.1,9,0c0-1.3,0-2.7,0-4c-2.1-3.6-9,2.2-9-2c2.8-4.9,7,1.1,10-6c0.7-1.6-6.2-6.6-1-8
			c0.9-0.3,0.8-3,1-3c1.7-0.3,3.4,4.7,6,4c2,5.7-4.8,2.6-4,7c1,3.2,13,3.2,14,0c1.2-6.2-10.2,0.2-9-6c-0.5-4.8,9.3,0.6,9-4
			c-4-7.7-15.9,0.8-19-4c-3.6-5.6,12.6-7.5,16-1c9.9-13-15.8-5.1-23-9c1.9-8.2,13.7-2.9,21-4c-1.9-11-16.3,1.3-21-8
			c-0.1-5.1,10.9,0.9,11-4c0.6-6.3-11.1-0.2-12-5c-0.7-5.7,8.9-1.1,11-4c0.4-5.8-8-2.7-11-5c-1.2-4.2,1.5-4.5,5-4
			c-4.7-5.8-4.8-10.4-5-20c3.5-0.5,9.5,1.5,10-2c0.9-5.9-9.2-0.8-11-4c-1.7-8.6,7.7-1.4,11-6c-7.3-1.9-19.5-7.3,0-10
			c-1-4.3-10.2-0.5-12-4c-0.9-7.7,5.2-3.9,12-5c-0.5-4.9-8.4-2.2-12-4c-2.2-3.7,2.9-6.3,3-7c0.1-1.5-2.6-2.5-3-4
			c-1.9-7.1,0-21.7,0-31c-0.1-25.5,0.1-53.6,0-80c0-10.5-1.2-21.3-1-31c0.3-18.3,26.9-14,45-13c18.3,1,43,1.5,67,0
			c49-3,93.9,1.4,131,1c4.7-0.1,2.1-0.8,7,0c12.1,2.1,25-2.4,34-2c10.7,0.5,25.1,9.6,41,12c8.4,1.3,25.6,2.1,35,6
			c3.7,1.5,3.5,6.8,9,7c1.3,0.1,1.6-2.2,3-2c6.8,1.2,23.3,6,25,7c1.1,0.6,0.2,3.1,0,3C475.8,131,487.7,126.9,483,134z M93,315
			c0,1,0,2,0,3c2.6,1.6,10.1,1.2,11-2C101.3,314.9,95.6,313.1,93,315z M119,340c3-0.8,1-11.8-2-9c0.3,3.4-8,2.6-7-2
			c0.4-2.1,5.2,0.3,5-4c-18.9-0.9,1.7,36.3,7,36C121.2,356.6,124.6,336.7,119,340z M107,379c4.3-0.3,10.5,1.1,12-2
			C117.7,373.9,105,370.8,107,379z M92,385c0,1,0,2,0,3c2.5,1,13.4,3.1,13-2C104.1,382.5,94.5,383.8,92,385z M107,389
			c7-0.7,9-0.3,16-1c-2.9-5.7-10.4-2.5-16-4C107,385.7,107,387.3,107,389z M92,395c0,1,0,2,0,3c2.5,1,13.4,3.1,13-2
			C104.1,392.5,94.5,393.8,92,395z M106,395c0,1,0,2,0,3c6.4,2.3,11-0.1,17,0C120.6,392.6,112.1,394.1,106,395z M93,407
			c1.6,1.2,12,2.7,12-1C104.3,402.3,89.5,403.3,93,407z M106,405c0,1,0,2,0,3c4.1,1.7,13.9,1.5,16-2
			C117.5,403.4,109.2,403.7,106,405z M106,417c2.9,1.1,14.8,2.8,16-1C118.3,414,109.2,413.4,106,417z"/>
	</g>
</g>
</svg>
