<?xml version="1.0" encoding="utf-8"?>
<!-- Generator: Adobe Illustrator 15.0.0, SVG Export Plug-In . SVG Version: 6.00 Build 0)  -->
<!DOCTYPE svg PUBLIC "-//W3C//DTD SVG 1.1//EN" "http://www.w3.org/Graphics/SVG/1.1/DTD/svg11.dtd">
<svg version="1.1" id="Layer_1" xmlns="http://www.w3.org/2000/svg" xmlns:xlink="http://www.w3.org/1999/xlink" x="0px" y="0px"
	 width="550px" height="680px" viewBox="0 0 550 680" style="enable-background:new 0 0 550 680;" xml:space="preserve">
<style type="text/css">
<![CDATA[
	.st0{fill-rule:evenodd;clip-rule:evenodd;}
]]>
</style>
<g>
	<g>
		<path class="st0" d="M206,601c-2.7,1.6-13.6-18-15-24c-1.1-4.9-1.5-14.6,3-19c-2.6-17.1,1.7-28.5,3-43c1-10.3-1.8-19.5,5-25
			c-0.5-4.5,0.5-7.5,1-11c0.2-3.8-4.1-3.3-6-5c0.3-6.3,0.1-12.1-2-16c10-6.4,10.4-30.6,1-38c-0.3-14.7-1.8-28.2-3-42
			c-6.6-5.7-14-10.7-20-17c1.1,2.8,1.1,5.2,0,8c-19-2.7-38,15.4-64,9c-3.7-5.3-8.4-9.6-15-12c-3.5-0.9-3.5-5.2-6-7
			c-1.2,1.2-3.5,1.1-6,1c-3.6-4.4-6.6-9.4-12-12c-5.9-10.3,0-25.6-5-34c6.4-13.3,20.5-13.9,26-29c2.4,0,2.9,1.7,6,1
			c15.4-12,40-25.2,65-21c4.6-1.6,10.5-6.2,15-2c5.4-2.4,11-4.6,9-14c-0.8-3.7-4.9-5.6-7-10c-6-12.8-5-28-4-45c-1-1.4-3.4-1.3-4-3
			c-0.8-14.4-3.7-36.1,5-44c1-8-4-10-5-16c4.1-4.1,1.9-9.2,3-17c5.2-3.5,10.4-6.9,12-14c11.4-3,19.1-9.5,24-19
			c-5.1-12.1,8.4-23.5,23-19c-6.5,5.4,6.7,12.7-3,14c10.7,0.6,17.1,5.5,19,15c22.5,0.1,52.1-8.6,71,3c16.5-4.8,29.7,8.2,43,13
			c3.2-1.6-3.5-3.7,0-6c3.9,1.1,5.1,4.9,9,6c12.8,0.5,17-3.3,26-1c8.8,2.2,23,14.5,25,22c4.4,16.6,7.6,37.6,2,57
			c-4.5,15.6-20.2,28.9-14,49c-4.1,4.2-5.6,11-6,19c3.1,6.1,7.8,3.6,15,4c11.5,0.6,18.2,11.1,30,12c3.9,9.5,13.5,13.1,19,21
			c-1.7,9.3,3.8,11.6,7,16c-2.8,12.7,3.5,24,1,34c-0.9,3.4-4.5,4.6-7,9c-7.1,12.4-12.1,33.6-29,36c-3,0.4-7.9-1.9-11-1
			c-6.3,1.7-8.5,8.5-9,16c-3.2-0.5-3.5,1.8-7,1c-0.4,7.7-5,12.5-3,21c-10,6-12.5,19.5-16,32c2.9,4.1,1.2,9.4,1,16
			c-0.7,25.5,17.5,56.8,3,77c3.2,18.6-7,25.7-12,39c-13,13.2-37.1,33.7-62,22c-20.2,1.2-23.4-14.6-33-24c-11.1,5.6-15,18.3-22,28
			c-17.2,3.5-42-0.9-55-8C212.8,603.3,207,607,206,601z M321,208c2,0,1.3,2.7,4,2c0.3-2.3-0.2-3.8-2-4
			C323,207.3,321.2,206.9,321,208z M321,220c4.9-3.4,5.6,4.7,10-1C329.5,215.2,321.1,214.6,321,220z M128,374c4.8-0.6,9.6-1,13-3
			c-1.6-0.3-0.7-2.2,0-3c-4,1-3-3-7-2C134.2,370.9,129.3,370.6,128,374z"/>
	</g>
</g>
</svg>
