<?xml version="1.0" encoding="utf-8"?>
<!-- Generator: Adobe Illustrator 19.0.0, SVG Export Plug-In . SVG Version: 6.00 Build 0)  -->
<svg version="1.1" xmlns="http://www.w3.org/2000/svg" xmlns:xlink="http://www.w3.org/1999/xlink" x="0px" y="0px"
	 viewBox="0 0 518.7 539.6" style="enable-background:new 0 0 518.7 539.6;" xml:space="preserve">
<style type="text/css">
	.st0{display:none;}
	.st1{display:inline;fill:none;stroke:#000000;stroke-width:0.25;stroke-miterlimit:10;}
	.st2{fill:#39C1D4;}
</style>
<g id="Layer_1" class="st0">
	<circle id="XMLID_1_" class="st1" cx="259.3" cy="269.1" r="252"/>
</g>
<g id="Layer_3">
</g>
<g id="Layer_2">
	<g id="XMLID_2_">
		<g id="XMLID_73_">
			<path id="XMLID_77_" class="st2" d="M147.2,25.4c-37.4,16.8-70.5,44.3-95.1,77C16.5,149.6,0.1,208.2,0.5,266.9
				c0.2,35.5,5.6,71.9,16.7,105.7C26.1,399.5,39,425,56.9,447c29.5,36.3,70.1,61.4,114.2,75.7c33.1,10.7,68.2,16.8,103.1,16.2
				c2.8-0.1,5.6-0.2,8.3-0.3c5.3-0.3,6.9-9,7.4-12.8c12.8-86.9,21.6-177.2,5.2-264.2c-5.2-27.6-13.4-54.4-23.8-80.5
				c-9.6-24.1-20.9-47.4-31.6-71c-6.7-14.6-13.1-29.3-19.1-44.3c-3.2-8.1-6.3-16.2-9.3-24.3c-0.8-2.2-1.6-4.4-2.3-6.5
				c-0.4-1-0.7-2-1.1-3.1c-0.2-0.7-0.5-1.4-0.7-2.1c0.6,1.6,0.7,1.9,0.3,0.9c-1.6-4.8-3.2-9.7-4.7-14.5c-2.9,8.6-5.8,17.1-8.7,25.7
				c50.7,23.1,97.8,55,131.3,99.6c3.4,4.5,6.7,9.2,9.8,13.9c1.5,2.3,3,4.7,4.5,7c0.7,1.2,1.4,2.4,2.1,3.5c0.3,0.6,0.7,1.2,1,1.8
				c-0.9-1.5-0.3-0.6,0.2,0.4c5.3,9.6,10.1,19.6,14.2,29.8c1,2.4,1.9,4.9,2.8,7.3c0.4,1.2,0.9,2.4,1.3,3.7c0.2,0.6,0.4,1.2,0.6,1.8
				c0.7,1.8-1.1-3.4-0.1-0.3c1.6,5,3.2,10.1,4.5,15.2c1.4,5,2.6,10.1,3.7,15.2c0.3,1.2,0.5,2.5,0.8,3.7c0.1,0.6,0.2,1.2,0.4,1.8
				c0.4,1.9-0.7,0.4-0.3-1.4c-0.4,1.9,0.9,5.4,1.3,7.4c1.6,10,2.7,20.1,3.4,30.2c0,0.6,0.1,1.2,0.1,1.8c0.2,2.8-0.1-1.8-0.1-1.9
				c-0.2,1,0.1,2.5,0.2,3.6c0.1,2.5,0.2,5.1,0.3,7.6c0.1,4.9,0.2,9.8,0.1,14.7c0,4.8-0.2,9.6-0.4,14.5c0,1.2-0.1,2.3-0.2,3.5
				c0,0.7-0.3,5.1-0.1,1.6c0.2-3.6-0.1,0.8-0.1,1.5c-0.1,1.3-0.2,2.6-0.3,3.8c-0.7,9.1-1.6,18.2-2.7,27.3
				c-1.1,8.6-2.3,17.1-3.7,25.7c-0.6,3.9-1.3,7.8-2,11.8c-0.3,1.9-0.7,3.8-1,5.7c-0.2,0.9-0.3,1.9-0.5,2.8c-0.4,2.4,0.4-2.2,0.4-2.1
				c-0.1,0.7-0.3,1.4-0.4,2.1c-2.7,14.5-5.7,28.9-8.3,43.4c-1.9,10.7-3.7,21.5-3.7,32.4c-0.1,9.3,0.7,24.4,9.5,30.2
				c5.9,3.9,12-0.9,17.5-3.8c9.1-4.8,18-10.2,26.4-16.2c16.9-12,32.2-26.2,45.7-42c27.2-31.9,46.4-70.6,56.8-111.1
				c11.3-43.8,12.4-89.9,3.2-134.2c-8.8-42.2-28.5-82.4-57.4-114.5c-33-36.7-76.1-62.3-122.8-77.7c-13.6-4.5-27.3-8.2-41.3-11.2
				c-2.4-0.5-4.8,3.7-5.4,5.1c-1.7,3.6-2.3,8.5-2.3,12.4c0.1,5.6,0.8,16,7.7,17.5c49.1,10.7,96.7,30.8,135.2,63.7
				c8.5,7.2,14.7,13.3,22.3,22c7,7.9,13.5,16.3,19.3,25.1c2.8,4.2,5.5,8.6,8,13c-1.4-2.4,0.3,0.7,0.8,1.4c0.5,1,1,1.9,1.6,2.9
				c1.2,2.4,2.4,4.7,3.6,7.1c2.2,4.5,4.2,9.1,6.1,13.7c0.9,2.3,1.8,4.6,2.7,7c0.4,1.2,0.8,2.3,1.3,3.5c0.2,0.4,0.3,0.9,0.5,1.3
				c0.6,1.7-0.9-3-0.2-0.5c3,9.6,5.6,19.2,7.6,29c0.8,3.9-0.6-3.5,0.1,0.3c0.2,1.1,0.4,2.1,0.5,3.2c0.4,2.6,0.8,5.2,1.1,7.7
				c0.6,5,1.1,10,1.5,15.1c0.2,3-0.2-4.6,0-0.5c0.1,1.2,0.1,2.4,0.2,3.7c0.1,2.6,0.2,5.2,0.2,7.8c0,4.9-0.1,9.8-0.3,14.7
				c-0.1,3,0.3-4.6,0-0.1c-0.1,1.2-0.2,2.4-0.3,3.7c-0.2,2.4-0.4,4.9-0.7,7.3c-0.5,4.9-1.2,9.7-2,14.5c-0.2,1.1-0.7,2.5-0.6,3.6
				c-0.3-4.1,0.3-1.6-0.1,0.3c-0.5,2.6-1.1,5.1-1.6,7.6c-1.1,4.8-2.3,9.5-3.7,14.2c-0.6,2.2-1.3,4.4-2,6.6c-0.4,1.2-0.8,2.3-1.1,3.5
				c-0.8,2.4,0.2-0.7,0.3-0.9c-0.3,0.7-0.5,1.4-0.8,2.2c-1.7,4.8-3.5,9.5-5.4,14.1c-3.8,9-8.1,17.8-12.8,26.4
				c-0.3,0.5-0.6,1.1-0.9,1.6c0.2-0.3,1.3-2.3,0.2-0.3c-0.6,1.1-1.2,2.1-1.9,3.2c-1.3,2.1-2.5,4.2-3.9,6.3
				c-2.6,4.1-5.4,8.2-8.2,12.2c-5.8,8.1-12.1,15.8-18.9,23.2c-7.3,8-12.1,12.6-20.5,19.6c-7.6,6.4-15.6,12.3-23.9,17.7
				c-8.3,5.4-17.5,11.4-26.8,14.9c-1.1,0.4,1,0.3,0.2-0.1c-1.2-0.5,1.6,1.1,1.2,0.4c-0.2-0.3-1.1-0.4-1.3-0.7
				c-1.6-1.4,0.7,0.8,0.7,0.8c-0.4-0.4-0.7-0.8-0.9-1.2c2.1,3.2,1.4,2.7,0.8,1.1c-0.6-1.6,1.4,4.6,0.6,1.5c-0.9-3.1,0.6,4.8,0.4,2.1
				c0-0.4-0.5-2-0.2-2.3c0,0,0.1,6,0.2,3.2c0-0.4,0-0.7,0-1.1c0-0.9,0-1.9,0.1-2.8c0.1-3.7-0.5,5.7-0.1,1.4c0.1-1,0.2-2.1,0.3-3.1
				c0.5-4.9,1.3-9.8,2.1-14.7c0.2-1.3,0.4-2.6,0.7-3.8c0.1-0.7,0.3-1.4,0.4-2.1c0.6-3.4-0.8,4.1-0.2,1.2c0.6-3,1.1-6.1,1.7-9.1
				c1.3-6.8,2.7-13.6,4-20.4c3.2-16.8,6.2-33.6,8.6-50.5c5.5-39.3,7.4-79.4,3.2-118.9c-4.7-44.2-17.8-87.2-40.5-125.5
				C322.5,90.3,283.1,55.1,239,29.2c-13.2-7.8-26.9-14.7-40.8-21.1c-10.6-4.8-10.2,20.9-8.7,25.7c9.6,30.5,21.2,60.3,34.2,89.6
				c10.6,23.7,22,47.1,32.1,71c2.5,5.8,4.8,11.6,7.1,17.5c1.1,2.8,2.2,5.7,3.2,8.5c0.5,1.3,0.9,2.6,1.4,3.9c0.3,0.8,0.5,1.6,0.8,2.4
				c0.9,2.7-1.1-3.3,0,0.1c4.2,12.7,7.8,25.5,10.7,38.5c0.7,3.3,1.5,6.7,2.1,10.1c0.2,0.9,0.4,1.9,0.5,2.8c-0.7-4.9-0.3-1.4-0.1-0.4
				c0.3,1.9,0.7,3.9,1,5.8c1.3,7.7,2.3,15.5,3.2,23.3c0.4,4,0.8,7.9,1.1,11.9c0.2,2.2,0.4,4.5,0.5,6.7c0.1,0.8,0.1,1.5,0.2,2.3
				c0.3,5.1-0.1-2.1,0.1,1.1c0.5,9.3,0.8,18.6,0.8,27.9c0.1,11.4-0.1,22.7-0.6,34.1c-0.1,3.1-0.3,6.2-0.4,9.3
				c-0.1,1.5-0.1,2.9-0.2,4.4c0,0.5-0.3,5.5-0.1,1.2c-0.4,6.6-0.9,13.2-1.4,19.9c-2.5,30.4-6.2,60.7-10.7,90.8
				c2.5-4.3,4.9-8.6,7.4-12.8c-30.7,1.9-62.2-2.4-91.9-10.1C151,483.1,109.6,462.7,80.4,434c-8.5-8.4-16.4-17.5-23.3-27.2
				c-8-11.2-12.6-19.2-18.3-31.4c-12.6-27.2-18.7-55.1-21.7-85.7c-0.2-2.1-0.4-4.2-0.5-6.2c-0.1-1.1-0.4-6.8-0.2-3
				c-0.2-4-0.3-8-0.4-12c0-3.9,0-7.8,0.1-11.7c0-1.7,0.1-3.3,0.2-5c0-0.6,0.2-3.6,0.1-1.2c-0.2,2.6,0.1-1.4,0.1-1.9
				c0.6-7.3,1.4-14.5,2.6-21.7c0.2-1,1-5.9,0.4-2.3c0.3-1.7,0.7-3.4,1-5.1c0.7-3.4,1.5-6.7,2.3-10c0.8-3.3,1.7-6.5,2.7-9.7
				c0.4-1.4,0.8-2.8,1.3-4.2c0.3-0.8,0.5-1.6,0.8-2.3c0.5-1.6-0.8,2.1,0.2-0.5c2.2-6,4.5-12,7.1-17.8c2.5-5.6,5.3-11.2,8.3-16.6
				c0.4-0.7,0.7-1.3,1.1-2c-1,1.8-0.1,0.1,0.1-0.2c0.8-1.3,1.5-2.6,2.3-3.9c1.5-2.5,3.1-5,4.8-7.5c22.6-34.2,52.4-61.2,89.1-80.2
				c3.6-1.9,7.2-3.6,10.9-5.2C160.8,54.9,158,20.6,147.2,25.4L147.2,25.4z"/>
		</g>
	</g>
	<g id="XMLID_3_">
		<g id="XMLID_35_">
			<path id="XMLID_72_" class="st2" d="M20.9,361.2c44.7-15.4,89.4-30.9,134.2-46.3c6.4-2.2,12.8-4.4,19.2-6.6
				c1.9-0.6,3.2-4.7,3.5-6.2c0.9-3.3,1-7.1,0.6-10.4c-0.5-3.8-2.1-11.2-7.3-9.4c-44.7,15.4-89.4,30.9-134.2,46.3
				c-6.4,2.2-12.8,4.4-19.2,6.6c-1.9,0.6-3.2,4.7-3.5,6.2c-0.9,3.3-1,7.1-0.6,10.4C14.1,355.6,15.7,363,20.9,361.2L20.9,361.2z"/>
		</g>
	</g>
</g>
</svg>
